M48
;Layer_Color=9474304
;FILE_FORMAT=2:5
INCH,LZ
;TYPE=PLATED
T01F00S00C0.00984
T02F00S00C0.02362
T03F00S00C0.03543
;TYPE=NON_PLATED
T04F00S00C0.02362
T05F00S00C0.02559
%
T01
X00205Y0003789
X00175Y0015485
X00275Y0016319
X00425
X00525Y0015485
X00495Y0003789
X0044Y0042563
Y0050063
X0047371Y0053569
X0045669Y005748
X0054724Y0057087
Y0053543
X0061024Y0055512
X00366Y0058363
X0031979Y0057355
X0033137Y0054613
X0029921Y0054724
X00365Y0050063
Y0042563
X00313Y0038263
X0027463Y0036002
X0026935Y0040583
X0023382Y0045299
X0018Y0043213
X001811Y0033858
X0008268Y0054331
X00105Y00624
X0018504Y0062992
X0018898Y0067716
Y0071654
X0030709Y0068504
X0029909Y0061671
X0048531Y0071598
T02
X0Y001
Y002
Y003
Y004
Y0045
Y005
Y0055
Y006
X007
Y0055
Y005
Y0045
Y004
Y0035
Y003
Y0025
Y002
Y0015
Y001
Y0065
Y007
Y0075
X0035Y008
X0Y0075
Y007
Y0065
T03
X0005Y001
Y002
Y003
Y004
Y005
Y006
X0065
Y005
Y004
Y003
Y002
Y001
X0055Y003
Y004
X0045Y0031181
X0035Y0075
X0065Y007
X0005
T04
X0047153Y0076
X0053847
T05
X0023622Y0018158
X0046378
M30
