G04*
G04 #@! TF.GenerationSoftware,Altium Limited,Altium Designer,23.10.1 (27)*
G04*
G04 Layer_Physical_Order=1*
G04 Layer_Color=3394611*
%FSLAX25Y25*%
%MOIN*%
G70*
G04*
G04 #@! TF.SameCoordinates,194C9E44-5DED-4EF5-99F0-288BDC966464*
G04*
G04*
G04 #@! TF.FilePolarity,Positive*
G04*
G01*
G75*
%ADD10C,0.00984*%
%ADD11C,0.00394*%
%ADD12C,0.00591*%
%ADD13C,0.00787*%
%ADD16C,0.01575*%
%ADD17R,0.01181X0.05709*%
%ADD18R,0.07087X0.05709*%
%ADD19R,0.07087X0.04724*%
%ADD20R,0.07874X0.04724*%
%ADD21R,0.06102X0.02362*%
%ADD22C,0.01575*%
%ADD23R,0.04528X0.02362*%
%ADD24R,0.01929X0.01772*%
%ADD25R,0.03543X0.04724*%
%ADD26R,0.04528X0.05118*%
%ADD27R,0.02362X0.01968*%
%ADD28O,0.00787X0.02953*%
%ADD29O,0.02953X0.00787*%
%ADD30R,0.11024X0.11024*%
%ADD31R,0.01772X0.01772*%
%ADD32R,0.01968X0.02362*%
%ADD57C,0.01181*%
%ADD58C,0.00500*%
%ADD59C,0.00591*%
%ADD60C,0.01968*%
%ADD61C,0.02559*%
%ADD62C,0.05118*%
%ADD63C,0.02362*%
%ADD64C,0.05906*%
%ADD65R,0.05906X0.05906*%
%ADD66R,0.02500X0.03150*%
%ADD67R,0.05906X0.05000*%
%ADD68R,0.05000X0.05906*%
G36*
X2481Y75555D02*
X2496Y75513D01*
X2522Y75475D01*
X2558Y75443D01*
X2604Y75415D01*
X2660Y75393D01*
X2727Y75375D01*
X2804Y75363D01*
X2891Y75355D01*
X2988Y75353D01*
Y74853D01*
X2891Y74850D01*
X2804Y74843D01*
X2727Y74830D01*
X2660Y74813D01*
X2604Y74790D01*
X2558Y74763D01*
X2522Y74730D01*
X2496Y74693D01*
X2481Y74650D01*
X2476Y74603D01*
Y75603D01*
X2481Y75555D01*
D02*
G37*
G36*
X19853Y72371D02*
X20070Y72186D01*
X20176Y72111D01*
X20279Y72048D01*
X20380Y71996D01*
X20478Y71956D01*
X20513Y71945D01*
X20565Y71966D01*
X20611Y71994D01*
X20647Y72026D01*
X20673Y72064D01*
X20688Y72106D01*
X20693Y72154D01*
Y71908D01*
X20761Y71904D01*
Y71404D01*
X20693Y71399D01*
Y71154D01*
X20688Y71201D01*
X20673Y71244D01*
X20647Y71281D01*
X20611Y71314D01*
X20565Y71341D01*
X20513Y71362D01*
X20478Y71352D01*
X20380Y71311D01*
X20279Y71259D01*
X20176Y71196D01*
X20070Y71121D01*
X19963Y71034D01*
X19741Y70827D01*
Y72480D01*
X19853Y72371D01*
D02*
G37*
G36*
X34201Y70885D02*
X33466Y70873D01*
X33513Y70879D01*
X33556Y70895D01*
X33593Y70921D01*
X33626Y70957D01*
X33653Y71003D01*
X33676Y71059D01*
X33693Y71125D01*
X33706Y71202D01*
X33713Y71288D01*
X33716Y71385D01*
X34216D01*
X34201Y70885D01*
D02*
G37*
G36*
X66224Y72782D02*
X66783Y72550D01*
X67286Y72214D01*
X67500Y72000D01*
X67624Y71887D01*
X67902Y71702D01*
X68212Y71574D01*
X68540Y71508D01*
X68707Y71500D01*
X69200D01*
Y70000D01*
X65000Y70000D01*
Y72900D01*
X65630D01*
X66224Y72782D01*
D02*
G37*
G36*
X5000Y70000D02*
X800Y70000D01*
Y71500D01*
X1293D01*
X1460Y71508D01*
X1788Y71574D01*
X2098Y71702D01*
X2376Y71887D01*
X2500Y72000D01*
X2714Y72214D01*
X3217Y72550D01*
X3777Y72782D01*
X4370Y72900D01*
X5000D01*
Y70000D01*
D02*
G37*
G36*
X41666Y69814D02*
X41660Y69870D01*
X41642Y69920D01*
X41611Y69965D01*
X41569Y70003D01*
X41515Y70036D01*
X41449Y70062D01*
X41370Y70083D01*
X41280Y70098D01*
X41178Y70107D01*
X41063Y70109D01*
Y70700D01*
X41178Y70703D01*
X41280Y70712D01*
X41370Y70727D01*
X41449Y70747D01*
X41515Y70774D01*
X41569Y70806D01*
X41611Y70845D01*
X41642Y70889D01*
X41660Y70939D01*
X41666Y70995D01*
Y69814D01*
D02*
G37*
G36*
X37553Y70850D02*
X37571Y70818D01*
X37600Y70791D01*
X37642Y70767D01*
X37695Y70746D01*
X37760Y70730D01*
X37836Y70717D01*
X37925Y70707D01*
X38138Y70700D01*
Y70109D01*
X38024Y70107D01*
X37922Y70098D01*
X37832Y70083D01*
X37754Y70062D01*
X37687Y70036D01*
X37633Y70003D01*
X37591Y69965D01*
X37560Y69920D01*
X37542Y69870D01*
X37535Y69814D01*
X37547Y70885D01*
X37553Y70850D01*
D02*
G37*
G36*
X48928Y70754D02*
X49358D01*
X49276Y70668D01*
X49202Y70579D01*
X49137Y70488D01*
X49081Y70394D01*
X49033Y70297D01*
X49022Y70268D01*
X49024Y70264D01*
X49067Y70193D01*
X49118Y70138D01*
X49177Y70098D01*
X49244Y70075D01*
X49319Y70067D01*
X48958D01*
X48943Y69992D01*
X48930Y69885D01*
X48925Y69775D01*
X48138D01*
X48134Y69885D01*
X48120Y69992D01*
X48105Y70067D01*
X47744D01*
X47819Y70075D01*
X47886Y70098D01*
X47945Y70138D01*
X47996Y70193D01*
X48039Y70264D01*
X48041Y70268D01*
X48030Y70297D01*
X47982Y70394D01*
X47926Y70488D01*
X47861Y70579D01*
X47787Y70668D01*
X47705Y70754D01*
X48135D01*
X48138Y70854D01*
X48925D01*
X48928Y70754D01*
D02*
G37*
G36*
X54855Y68398D02*
X54850Y68445D01*
X54834Y68488D01*
X54809Y68525D01*
X54773Y68558D01*
X54727Y68585D01*
X54670Y68608D01*
X54604Y68625D01*
X54527Y68638D01*
X54440Y68645D01*
X54343Y68648D01*
Y69148D01*
X54440Y69150D01*
X54527Y69158D01*
X54604Y69170D01*
X54670Y69188D01*
X54727Y69210D01*
X54773Y69238D01*
X54809Y69270D01*
X54834Y69308D01*
X54850Y69350D01*
X54855Y69398D01*
Y68398D01*
D02*
G37*
G36*
X53434Y69350D02*
X53449Y69308D01*
X53475Y69270D01*
X53511Y69238D01*
X53557Y69210D01*
X53613Y69188D01*
X53680Y69170D01*
X53756Y69158D01*
X53843Y69150D01*
X53941Y69148D01*
Y68648D01*
X53843Y68645D01*
X53756Y68638D01*
X53680Y68625D01*
X53613Y68608D01*
X53557Y68585D01*
X53511Y68558D01*
X53475Y68525D01*
X53449Y68488D01*
X53434Y68445D01*
X53429Y68398D01*
Y69398D01*
X53434Y69350D01*
D02*
G37*
G36*
X69200Y70000D02*
Y68500D01*
X68707D01*
X68540Y68492D01*
X68212Y68427D01*
X67902Y68298D01*
X67624Y68112D01*
X67500Y68000D01*
X67286Y67786D01*
X66783Y67450D01*
X66224Y67218D01*
X66181Y67210D01*
X64268Y65676D01*
X64151Y65543D01*
X64076Y65433D01*
X63553Y65524D01*
X63629Y65699D01*
X63667Y65895D01*
X63668Y66113D01*
X63631Y66353D01*
X63556Y66615D01*
X63445Y66899D01*
X63295Y67204D01*
X63108Y67531D01*
X62884Y67879D01*
X62622Y68249D01*
X65000Y67864D01*
Y70000D01*
X69200Y70000D01*
D02*
G37*
G36*
X53116Y67735D02*
X53073Y67720D01*
X53036Y67694D01*
X53003Y67659D01*
X52976Y67612D01*
X52953Y67556D01*
X52936Y67490D01*
X52923Y67413D01*
X52916Y67326D01*
X52913Y67229D01*
X52413D01*
X52411Y67326D01*
X52403Y67413D01*
X52391Y67490D01*
X52373Y67556D01*
X52351Y67612D01*
X52323Y67659D01*
X52291Y67694D01*
X52253Y67720D01*
X52211Y67735D01*
X52163Y67740D01*
X53163D01*
X53116Y67735D01*
D02*
G37*
G36*
X19853Y68434D02*
X20070Y68249D01*
X20176Y68174D01*
X20279Y68111D01*
X20380Y68059D01*
X20478Y68019D01*
X20513Y68008D01*
X20565Y68029D01*
X20611Y68057D01*
X20647Y68089D01*
X20673Y68126D01*
X20688Y68169D01*
X20693Y68217D01*
Y67971D01*
X20761Y67967D01*
Y67466D01*
X20693Y67462D01*
Y67216D01*
X20688Y67264D01*
X20673Y67307D01*
X20647Y67344D01*
X20611Y67377D01*
X20565Y67404D01*
X20513Y67425D01*
X20478Y67415D01*
X20380Y67374D01*
X20279Y67322D01*
X20176Y67259D01*
X20070Y67184D01*
X19963Y67097D01*
X19741Y66890D01*
Y68543D01*
X19853Y68434D01*
D02*
G37*
G36*
X49464Y69244D02*
X49460Y69131D01*
X49481Y68996D01*
X49525Y68840D01*
X49594Y68661D01*
X49687Y68459D01*
X49945Y67991D01*
X50299Y67434D01*
X49580Y67112D01*
X49447Y67304D01*
X49211Y67601D01*
X49108Y67706D01*
X49014Y67783D01*
X48930Y67832D01*
X48856Y67852D01*
X48792Y67843D01*
X48737Y67806D01*
X48692Y67740D01*
X49492Y69334D01*
X49464Y69244D01*
D02*
G37*
G36*
X5000Y67100D02*
X4370D01*
X3777Y67218D01*
X3217Y67450D01*
X2714Y67786D01*
X2500Y68000D01*
X2376Y68112D01*
X2098Y68298D01*
X1788Y68427D01*
X1460Y68492D01*
X1293Y68500D01*
X800D01*
Y70000D01*
X5000Y70000D01*
Y67100D01*
D02*
G37*
G36*
X45902Y67345D02*
X45859Y67329D01*
X45820Y67301D01*
X45787Y67263D01*
X45759Y67213D01*
X45736Y67152D01*
X45718Y67081D01*
X45706Y66998D01*
X45698Y66905D01*
X45695Y66800D01*
X45105D01*
X45102Y66905D01*
X45094Y66998D01*
X45082Y67081D01*
X45064Y67152D01*
X45041Y67213D01*
X45013Y67263D01*
X44980Y67301D01*
X44941Y67329D01*
X44898Y67345D01*
X44849Y67351D01*
X45951D01*
X45902Y67345D01*
D02*
G37*
G36*
X32574Y67839D02*
X32790Y67656D01*
X32885Y67590D01*
X32972Y67540D01*
X33051Y67506D01*
X33121Y67489D01*
X33184Y67489D01*
X33237Y67506D01*
X33283Y67538D01*
X32453Y66709D01*
X32486Y66754D01*
X32502Y66808D01*
X32502Y66870D01*
X32485Y66940D01*
X32452Y67019D01*
X32401Y67106D01*
X32335Y67202D01*
X32252Y67306D01*
X32035Y67538D01*
X32453Y67956D01*
X32574Y67839D01*
D02*
G37*
G36*
X37540Y67117D02*
X37556Y67075D01*
X37581Y67037D01*
X37617Y67005D01*
X37663Y66977D01*
X37719Y66955D01*
X37786Y66937D01*
X37863Y66925D01*
X37950Y66917D01*
X38047Y66915D01*
Y66415D01*
X37950Y66412D01*
X37863Y66405D01*
X37786Y66392D01*
X37719Y66375D01*
X37663Y66352D01*
X37617Y66325D01*
X37581Y66292D01*
X37556Y66255D01*
X37540Y66212D01*
X37535Y66165D01*
Y67165D01*
X37540Y67117D01*
D02*
G37*
G36*
X50538Y66197D02*
X50559Y65984D01*
X50577Y65898D01*
X50601Y65825D01*
X50629Y65765D01*
X50663Y65718D01*
X50702Y65685D01*
X50746Y65664D01*
X50796Y65657D01*
X49596Y65669D01*
X49625Y65676D01*
X49651Y65695D01*
X49674Y65728D01*
X49694Y65774D01*
X49710Y65833D01*
X49724Y65904D01*
X49735Y65989D01*
X49747Y66199D01*
X49748Y66323D01*
X50536D01*
X50538Y66197D01*
D02*
G37*
G36*
X2481Y66201D02*
X2496Y66158D01*
X2522Y66120D01*
X2558Y66088D01*
X2604Y66061D01*
X2660Y66038D01*
X2727Y66021D01*
X2804Y66008D01*
X2891Y66000D01*
X2988Y65998D01*
Y65498D01*
X2891Y65496D01*
X2804Y65488D01*
X2727Y65475D01*
X2660Y65458D01*
X2604Y65435D01*
X2558Y65408D01*
X2522Y65376D01*
X2496Y65338D01*
X2481Y65295D01*
X2476Y65248D01*
Y66248D01*
X2481Y66201D01*
D02*
G37*
G36*
X45841Y66027D02*
X45968Y65740D01*
X46025Y65641D01*
X46078Y65571D01*
X46128Y65530D01*
X46173Y65518D01*
X46215Y65535D01*
X46252Y65581D01*
X46286Y65657D01*
X45989Y64809D01*
X46364Y65185D01*
X46400Y65151D01*
X46468Y65093D01*
X46502Y65068D01*
X46535Y65047D01*
X46568Y65029D01*
X46600Y65014D01*
X46632Y65002D01*
X46663Y64994D01*
X46694Y64988D01*
X46143Y64438D01*
X46138Y64468D01*
X46129Y64500D01*
X46117Y64531D01*
X46102Y64564D01*
X46084Y64596D01*
X46063Y64629D01*
X46039Y64663D01*
X45981Y64732D01*
X45967Y64746D01*
X45671Y63904D01*
X45695Y63996D01*
X45706Y64106D01*
X45705Y64233D01*
X45692Y64377D01*
X45667Y64539D01*
X45581Y64916D01*
X45520Y65130D01*
X45362Y65612D01*
X45772Y66214D01*
X45841Y66027D01*
D02*
G37*
G36*
X57492Y62807D02*
X57482Y62898D01*
X57453Y62980D01*
X57404Y63052D01*
X57335Y63115D01*
X57246Y63167D01*
X57138Y63211D01*
X57010Y63244D01*
X56862Y63268D01*
X56695Y63283D01*
X56693Y63283D01*
X56691Y63283D01*
X56523Y63268D01*
X56376Y63244D01*
X56248Y63211D01*
X56140Y63167D01*
X56051Y63115D01*
X55982Y63052D01*
X55933Y62980D01*
X55903Y62898D01*
X55893Y62807D01*
Y64752D01*
X55903Y64661D01*
X55933Y64579D01*
X55982Y64507D01*
X56051Y64445D01*
X56140Y64392D01*
X56248Y64349D01*
X56376Y64315D01*
X56523Y64291D01*
X56691Y64276D01*
X56693Y64276D01*
X56695Y64276D01*
X56862Y64291D01*
X57010Y64315D01*
X57138Y64349D01*
X57246Y64392D01*
X57335Y64445D01*
X57404Y64507D01*
X57453Y64579D01*
X57482Y64661D01*
X57492Y64752D01*
Y62807D01*
D02*
G37*
G36*
X54575Y62819D02*
X54524Y62832D01*
X54468Y62835D01*
X54408Y62826D01*
X54343Y62806D01*
X54275Y62775D01*
X54202Y62733D01*
X54125Y62680D01*
X54043Y62615D01*
X53958Y62540D01*
X53868Y62454D01*
X53202Y62494D01*
X53316Y62612D01*
X53492Y62816D01*
X53555Y62902D01*
X53600Y62978D01*
X53628Y63043D01*
X53638Y63099D01*
X53632Y63143D01*
X53608Y63178D01*
X53567Y63202D01*
X54575Y62819D01*
D02*
G37*
G36*
X46560Y63321D02*
X46476Y63292D01*
X46403Y63242D01*
X46339Y63173D01*
X46284Y63085D01*
X46240Y62977D01*
X46206Y62849D01*
X46181Y62701D01*
X46166Y62534D01*
X46161Y62347D01*
X45177D01*
X45182Y62534D01*
X45196Y62701D01*
X45221Y62849D01*
X45254Y62977D01*
X45298Y63085D01*
X45351Y63173D01*
X45413Y63242D01*
X45486Y63292D01*
X45568Y63321D01*
X45659Y63331D01*
X46654D01*
X46560Y63321D01*
D02*
G37*
G36*
X26758Y63110D02*
X26767Y63091D01*
X26786Y63063D01*
X26815Y63027D01*
X26904Y62932D01*
X27203Y62643D01*
X26786Y62225D01*
X26699Y62305D01*
X26327Y62607D01*
X26307Y62613D01*
X26296Y62610D01*
X26760Y63121D01*
X26758Y63110D01*
D02*
G37*
G36*
X11457Y63114D02*
X11673Y62927D01*
X11778Y62849D01*
X11881Y62782D01*
X11981Y62725D01*
X12080Y62679D01*
X12176Y62644D01*
X12270Y62620D01*
X12362Y62606D01*
X12361Y62104D01*
X12269Y62106D01*
X12176Y62096D01*
X12080Y62074D01*
X11981Y62040D01*
X11880Y61992D01*
X11777Y61933D01*
X11672Y61861D01*
X11564Y61777D01*
X11454Y61680D01*
X11341Y61571D01*
X11346Y63224D01*
X11457Y63114D01*
D02*
G37*
G36*
X19687Y62836D02*
X19712Y62570D01*
X19735Y62449D01*
X19766Y62336D01*
X19803Y62231D01*
X19847Y62134D01*
X19899Y62045D01*
X19957Y61964D01*
X20022Y61891D01*
X19605Y61474D01*
X19532Y61539D01*
X19451Y61598D01*
X19362Y61649D01*
X19265Y61693D01*
X19160Y61730D01*
X19047Y61761D01*
X18926Y61784D01*
X18798Y61800D01*
X18661Y61809D01*
X18516Y61811D01*
X19685Y62980D01*
X19687Y62836D01*
D02*
G37*
G36*
X30856Y62397D02*
X31062Y62227D01*
X31164Y62158D01*
X31265Y62099D01*
X31365Y62051D01*
X31465Y62014D01*
X31565Y61988D01*
X31659Y61972D01*
X31725Y61978D01*
X31815Y61993D01*
X31894Y62014D01*
X31960Y62040D01*
X32014Y62073D01*
X32056Y62111D01*
X32087Y62155D01*
X32105Y62206D01*
X32111Y62262D01*
Y61081D01*
X32105Y61137D01*
X32087Y61187D01*
X32056Y61231D01*
X32014Y61270D01*
X31960Y61302D01*
X31894Y61329D01*
X31815Y61349D01*
X31725Y61364D01*
X31659Y61370D01*
X31565Y61355D01*
X31465Y61328D01*
X31365Y61291D01*
X31265Y61243D01*
X31164Y61185D01*
X31062Y61115D01*
X30959Y61036D01*
X30856Y60945D01*
X30752Y60844D01*
Y62498D01*
X30856Y62397D01*
D02*
G37*
G36*
X37947Y61447D02*
X37939Y61397D01*
X37944Y61341D01*
X37961Y61279D01*
X37991Y61211D01*
X38034Y61137D01*
X38090Y61058D01*
X38159Y60972D01*
X38334Y60784D01*
X38122Y60288D01*
X38012Y60395D01*
X37818Y60561D01*
X37735Y60621D01*
X37659Y60665D01*
X37593Y60694D01*
X37536Y60707D01*
X37486Y60705D01*
X37446Y60687D01*
X37415Y60654D01*
X37968Y61491D01*
X37947Y61447D01*
D02*
G37*
G36*
X62891Y57933D02*
X62545Y58278D01*
X61620Y59096D01*
X61350Y59296D01*
X61099Y59459D01*
X60867Y59587D01*
X60654Y59677D01*
X60461Y59732D01*
X60295Y59749D01*
X60233Y59747D01*
X60146Y59740D01*
X60069Y59728D01*
X60003Y59710D01*
X59947Y59688D01*
X59900Y59660D01*
X59865Y59627D01*
X59839Y59590D01*
X59824Y59548D01*
X59819Y59500D01*
Y60500D01*
X59824Y60453D01*
X59839Y60410D01*
X59865Y60373D01*
X59900Y60340D01*
X59947Y60312D01*
X60003Y60290D01*
X60069Y60273D01*
X60146Y60260D01*
X60233Y60252D01*
X60295Y60251D01*
X60461Y60268D01*
X60654Y60323D01*
X60867Y60413D01*
X61099Y60541D01*
X61350Y60704D01*
X61620Y60904D01*
X62217Y61413D01*
X62891Y62067D01*
Y57933D01*
D02*
G37*
G36*
X20671Y61270D02*
X20911Y61092D01*
X21016Y61029D01*
X21110Y60982D01*
X21194Y60952D01*
X21267Y60939D01*
X21330Y60942D01*
X21383Y60962D01*
X21425Y61000D01*
X20693Y60094D01*
X20720Y60141D01*
X20730Y60194D01*
X20724Y60255D01*
X20701Y60323D01*
X20662Y60397D01*
X20606Y60479D01*
X20534Y60567D01*
X20445Y60663D01*
X20218Y60874D01*
X20535Y61384D01*
X20671Y61270D01*
D02*
G37*
G36*
X66224Y62782D02*
X66783Y62550D01*
X67286Y62214D01*
X67500Y62000D01*
X67624Y61888D01*
X67902Y61702D01*
X68212Y61573D01*
X68540Y61508D01*
X68707Y61500D01*
X69200D01*
Y60000D01*
X65000Y60000D01*
Y62900D01*
X65630D01*
X66224Y62782D01*
D02*
G37*
G36*
X5000Y60000D02*
X800Y60000D01*
Y61500D01*
X1293D01*
X1460Y61508D01*
X1788Y61573D01*
X2098Y61702D01*
X2376Y61888D01*
X2500Y62000D01*
X2714Y62214D01*
X3217Y62550D01*
X3777Y62782D01*
X4370Y62900D01*
X5000D01*
Y60000D01*
D02*
G37*
G36*
X59114Y58877D02*
X59071Y58862D01*
X59034Y58836D01*
X59001Y58800D01*
X58974Y58754D01*
X58951Y58698D01*
X58934Y58631D01*
X58921Y58555D01*
X58914Y58468D01*
X58911Y58370D01*
X58411D01*
X58409Y58468D01*
X58401Y58555D01*
X58389Y58631D01*
X58371Y58698D01*
X58349Y58754D01*
X58321Y58800D01*
X58289Y58836D01*
X58251Y58862D01*
X58209Y58877D01*
X58161Y58882D01*
X59161D01*
X59114Y58877D01*
D02*
G37*
G36*
X46165Y59143D02*
X46175Y59030D01*
X46191Y58922D01*
X46215Y58819D01*
X46245Y58723D01*
X46282Y58631D01*
X46325Y58546D01*
X46376Y58466D01*
X46433Y58392D01*
X46496Y58324D01*
X44842D01*
X44906Y58392D01*
X44963Y58466D01*
X45013Y58546D01*
X45057Y58631D01*
X45094Y58723D01*
X45124Y58819D01*
X45147Y58922D01*
X45164Y59030D01*
X45174Y59143D01*
X45177Y59263D01*
X46161D01*
X46165Y59143D01*
D02*
G37*
G36*
X35298Y59525D02*
X35399Y59504D01*
X35506Y59487D01*
X35619Y59476D01*
X35859Y59471D01*
X35986Y59477D01*
X36257Y59505D01*
X36400Y59527D01*
X35432Y58187D01*
X35406Y58327D01*
X35373Y58455D01*
X35332Y58571D01*
X35284Y58675D01*
X35228Y58766D01*
X35165Y58846D01*
X35095Y58913D01*
X35017Y58969D01*
X34931Y59012D01*
X34838Y59043D01*
X35201Y59553D01*
X35298Y59525D01*
D02*
G37*
G36*
X54979Y58882D02*
X55224D01*
X55177Y58877D01*
X55134Y58862D01*
X55097Y58836D01*
X55064Y58800D01*
X55037Y58754D01*
X55016Y58702D01*
X55026Y58667D01*
X55067Y58569D01*
X55119Y58468D01*
X55182Y58365D01*
X55257Y58259D01*
X55344Y58152D01*
X55551Y57930D01*
X53898D01*
X54007Y58042D01*
X54192Y58259D01*
X54267Y58365D01*
X54330Y58468D01*
X54382Y58569D01*
X54422Y58667D01*
X54433Y58702D01*
X54412Y58754D01*
X54384Y58800D01*
X54352Y58836D01*
X54314Y58862D01*
X54272Y58877D01*
X54224Y58882D01*
X54470D01*
X54474Y58950D01*
X54974D01*
X54979Y58882D01*
D02*
G37*
G36*
X69200Y60000D02*
Y58500D01*
X68707D01*
X68540Y58492D01*
X68212Y58426D01*
X67902Y58298D01*
X67624Y58113D01*
X67500Y58000D01*
X67286Y57786D01*
X66783Y57450D01*
X66224Y57218D01*
X65630Y57100D01*
X65000D01*
Y60000D01*
X69200Y60000D01*
D02*
G37*
G36*
X5000Y57100D02*
X4370D01*
X3777Y57218D01*
X3217Y57450D01*
X2714Y57786D01*
X2500Y58000D01*
X2376Y58113D01*
X2098Y58298D01*
X1788Y58426D01*
X1460Y58492D01*
X1293Y58500D01*
X800D01*
Y60000D01*
X5000Y60000D01*
Y57100D01*
D02*
G37*
G36*
X37659Y57815D02*
X37630Y57700D01*
X37614Y57589D01*
X37610Y57484D01*
X37618Y57383D01*
X37639Y57286D01*
X37672Y57194D01*
X37717Y57106D01*
X37775Y57023D01*
X37845Y56944D01*
X37378Y56576D01*
X37297Y56652D01*
X37207Y56726D01*
X37110Y56799D01*
X36890Y56938D01*
X36767Y57005D01*
X36497Y57133D01*
X36193Y57254D01*
X37700Y57934D01*
X37659Y57815D01*
D02*
G37*
G36*
X33025Y57926D02*
X33106Y57831D01*
X33189Y57748D01*
X33274Y57675D01*
X33360Y57613D01*
X33449Y57563D01*
X33539Y57524D01*
X33631Y57496D01*
X33725Y57480D01*
X33821Y57474D01*
X33805Y56974D01*
X33707Y56969D01*
X33607Y56954D01*
X33507Y56930D01*
X33405Y56895D01*
X33302Y56851D01*
X33199Y56796D01*
X33094Y56732D01*
X32988Y56659D01*
X32881Y56575D01*
X32774Y56481D01*
X32946Y58032D01*
X33025Y57926D01*
D02*
G37*
G36*
X54991Y55936D02*
X54823Y55895D01*
X54390Y55764D01*
X54270Y55717D01*
X54066Y55620D01*
X53982Y55570D01*
X53910Y55518D01*
X53850Y55465D01*
X53408Y55730D01*
X53474Y55805D01*
X53528Y55886D01*
X53572Y55974D01*
X53605Y56070D01*
X53627Y56173D01*
X53639Y56283D01*
X53640Y56401D01*
X53631Y56525D01*
X53610Y56657D01*
X53579Y56797D01*
X54991Y55936D01*
D02*
G37*
G36*
X43401Y55621D02*
X43417Y55380D01*
X43427Y55313D01*
X43453Y55197D01*
X43470Y55148D01*
X43488Y55106D01*
X43509Y55070D01*
X42790D01*
X42811Y55106D01*
X42829Y55148D01*
X42846Y55197D01*
X42860Y55252D01*
X42872Y55313D01*
X42890Y55454D01*
X42895Y55534D01*
X42900Y55713D01*
X43400D01*
X43401Y55621D01*
D02*
G37*
G36*
X41826D02*
X41842Y55380D01*
X41852Y55313D01*
X41879Y55197D01*
X41895Y55148D01*
X41914Y55106D01*
X41934Y55070D01*
X41215D01*
X41236Y55106D01*
X41255Y55148D01*
X41271Y55197D01*
X41285Y55252D01*
X41297Y55313D01*
X41315Y55454D01*
X41320Y55534D01*
X41325Y55713D01*
X41825D01*
X41826Y55621D01*
D02*
G37*
G36*
X40251D02*
X40268Y55380D01*
X40277Y55313D01*
X40304Y55197D01*
X40320Y55148D01*
X40339Y55106D01*
X40360Y55070D01*
X39640D01*
X39661Y55106D01*
X39680Y55148D01*
X39696Y55197D01*
X39711Y55252D01*
X39723Y55313D01*
X39740Y55454D01*
X39746Y55534D01*
X39750Y55713D01*
X40250D01*
X40251Y55621D01*
D02*
G37*
G36*
X35018Y55532D02*
X35257Y55428D01*
X35303Y55400D01*
X35331Y55375D01*
X35343Y55354D01*
X35338Y55336D01*
X35315Y55322D01*
X35276Y55310D01*
X34898Y54833D01*
X34917Y54862D01*
X34926Y54892D01*
X34925Y54921D01*
X34914Y54949D01*
X34894Y54977D01*
X34864Y55005D01*
X34824Y55033D01*
X34774Y55060D01*
X34714Y55087D01*
X34645Y55113D01*
X34904Y55574D01*
X35018Y55532D01*
D02*
G37*
G36*
X45465Y55247D02*
X45366Y55190D01*
X45208Y55085D01*
X45151Y55036D01*
X45108Y54991D01*
X45078Y54948D01*
X45063Y54907D01*
X45062Y54869D01*
X45075Y54835D01*
X45102Y54802D01*
X44576Y55281D01*
X44518Y55272D01*
X44482Y55273D01*
X44469Y55283D01*
X44477Y55304D01*
X44508Y55334D01*
X44561Y55373D01*
X44636Y55422D01*
X44994Y55628D01*
X45465Y55247D01*
D02*
G37*
G36*
X2481Y55453D02*
X2496Y55410D01*
X2522Y55373D01*
X2558Y55340D01*
X2604Y55313D01*
X2660Y55290D01*
X2727Y55273D01*
X2804Y55260D01*
X2891Y55252D01*
X2988Y55250D01*
Y54750D01*
X2891Y54747D01*
X2804Y54740D01*
X2727Y54728D01*
X2660Y54710D01*
X2604Y54688D01*
X2558Y54660D01*
X2522Y54628D01*
X2496Y54590D01*
X2481Y54548D01*
X2476Y54500D01*
Y55500D01*
X2481Y55453D01*
D02*
G37*
G36*
X33537Y55738D02*
X34112Y55583D01*
X34129Y55566D01*
X34124Y55551D01*
X34097Y55540D01*
X34401Y55094D01*
X34403Y55088D01*
X34403Y55068D01*
X34400Y55034D01*
X34360Y54760D01*
X34301Y54411D01*
X33363Y55773D01*
X33537Y55738D01*
D02*
G37*
G36*
X61739Y54572D02*
X61613Y54473D01*
X61293Y54186D01*
X61206Y54094D01*
X61061Y53916D01*
X61004Y53829D01*
X60956Y53744D01*
X60919Y53661D01*
X60405Y53727D01*
X60435Y53815D01*
X60452Y53907D01*
X60455Y54002D01*
X60445Y54102D01*
X60421Y54205D01*
X60384Y54312D01*
X60333Y54423D01*
X60268Y54537D01*
X60190Y54655D01*
X60098Y54778D01*
X61739Y54572D01*
D02*
G37*
G36*
X48866Y54709D02*
X48805Y54640D01*
X48750Y54561D01*
X48702Y54473D01*
X48661Y54374D01*
X48627Y54266D01*
X48599Y54149D01*
X48577Y54021D01*
X48562Y53884D01*
X48552Y53580D01*
X47383Y54750D01*
X47540Y54751D01*
X47824Y54774D01*
X47951Y54796D01*
X48069Y54824D01*
X48177Y54858D01*
X48276Y54900D01*
X48364Y54947D01*
X48443Y55002D01*
X48512Y55063D01*
X48866Y54709D01*
D02*
G37*
G36*
X56218Y54684D02*
X56158Y54615D01*
X56103Y54536D01*
X56055Y54447D01*
X56014Y54349D01*
X55980Y54241D01*
X55952Y54123D01*
X55930Y53996D01*
X55915Y53859D01*
X55905Y53555D01*
X54736Y54724D01*
X54893Y54726D01*
X55177Y54749D01*
X55304Y54771D01*
X55422Y54799D01*
X55530Y54833D01*
X55629Y54874D01*
X55717Y54922D01*
X55796Y54976D01*
X55865Y55037D01*
X56218Y54684D01*
D02*
G37*
G36*
X67524Y53500D02*
X67519Y53548D01*
X67503Y53590D01*
X67478Y53628D01*
X67442Y53660D01*
X67396Y53688D01*
X67340Y53710D01*
X67273Y53728D01*
X67196Y53740D01*
X67109Y53747D01*
X67012Y53750D01*
Y54250D01*
X67109Y54252D01*
X67196Y54260D01*
X67273Y54273D01*
X67340Y54290D01*
X67396Y54312D01*
X67442Y54340D01*
X67478Y54373D01*
X67503Y54410D01*
X67519Y54453D01*
X67524Y54500D01*
Y53500D01*
D02*
G37*
G36*
X30413Y53645D02*
X30372Y53610D01*
X30336Y53568D01*
X30304Y53519D01*
X30277Y53463D01*
X30255Y53401D01*
X30238Y53331D01*
X30226Y53255D01*
X30219Y53172D01*
X30217Y53082D01*
X29626D01*
X29624Y53172D01*
X29616Y53255D01*
X29604Y53331D01*
X29587Y53401D01*
X29565Y53463D01*
X29539Y53519D01*
X29507Y53568D01*
X29471Y53610D01*
X29429Y53645D01*
X29383Y53673D01*
X30459D01*
X30413Y53645D01*
D02*
G37*
G36*
X8905Y53326D02*
X8844Y53262D01*
X8795Y53197D01*
X8760Y53129D01*
X8738Y53061D01*
X8729Y52990D01*
X8733Y52918D01*
X8750Y52844D01*
X8781Y52769D01*
X8825Y52692D01*
X8277Y52644D01*
X8229Y52732D01*
X8127Y52894D01*
X8072Y52968D01*
X8014Y53036D01*
X7954Y53100D01*
X7891Y53158D01*
X7825Y53211D01*
X7757Y53259D01*
X7687Y53302D01*
X8980Y53389D01*
X8905Y53326D01*
D02*
G37*
G36*
X49043Y51126D02*
X49085Y51108D01*
X49134Y51091D01*
X49189Y51077D01*
X49250Y51065D01*
X49391Y51047D01*
X49471Y51042D01*
X49650Y51037D01*
Y50537D01*
X49558Y50536D01*
X49317Y50520D01*
X49250Y50510D01*
X49134Y50484D01*
X49085Y50467D01*
X49043Y50449D01*
X49007Y50428D01*
Y51147D01*
X49043Y51126D01*
D02*
G37*
G36*
X66224Y52782D02*
X66783Y52550D01*
X67286Y52214D01*
X67500Y52000D01*
X67624Y51888D01*
X67902Y51702D01*
X68212Y51573D01*
X68540Y51508D01*
X68707Y51500D01*
X69200D01*
Y50000D01*
X65000Y50000D01*
Y52900D01*
X65630D01*
X66224Y52782D01*
D02*
G37*
G36*
X5000Y50000D02*
X800Y50000D01*
Y51500D01*
X1293D01*
X1460Y51508D01*
X1788Y51573D01*
X2098Y51702D01*
X2376Y51888D01*
X2500Y52000D01*
X2714Y52214D01*
X3217Y52550D01*
X3777Y52782D01*
X4370Y52900D01*
X5000D01*
Y50000D01*
D02*
G37*
G36*
X49043Y49551D02*
X49085Y49533D01*
X49134Y49516D01*
X49189Y49502D01*
X49250Y49490D01*
X49391Y49472D01*
X49471Y49467D01*
X49650Y49463D01*
Y48963D01*
X49558Y48961D01*
X49317Y48945D01*
X49250Y48935D01*
X49134Y48909D01*
X49085Y48893D01*
X49043Y48874D01*
X49007Y48853D01*
Y49572D01*
X49043Y49551D01*
D02*
G37*
G36*
X30993Y48853D02*
X30957Y48874D01*
X30915Y48893D01*
X30866Y48909D01*
X30811Y48923D01*
X30750Y48935D01*
X30609Y48953D01*
X30529Y48958D01*
X30350Y48963D01*
Y49463D01*
X30442Y49464D01*
X30683Y49480D01*
X30750Y49490D01*
X30866Y49516D01*
X30915Y49533D01*
X30957Y49551D01*
X30993Y49572D01*
Y48853D01*
D02*
G37*
G36*
X7129Y52122D02*
X9100Y50956D01*
X9305Y50876D01*
X9476Y50827D01*
X9611Y50811D01*
X9708Y50311D01*
X9512Y50291D01*
X9310Y50233D01*
X9102Y50136D01*
X8887Y50000D01*
X8665Y49826D01*
X8438Y49613D01*
X8204Y49360D01*
X7963Y49069D01*
X7463Y48371D01*
X6678Y52430D01*
X7129Y52122D01*
D02*
G37*
G36*
X19830Y46331D02*
X19748Y46440D01*
X19662Y46501D01*
X19569Y46513D01*
X19471Y46477D01*
X19367Y46393D01*
X19258Y46260D01*
X19143Y46079D01*
X19023Y45850D01*
X18897Y45572D01*
X18766Y45246D01*
X17872Y46235D01*
X17984Y46535D01*
X18063Y46793D01*
X18034Y46805D01*
X17880Y46846D01*
X17703Y46874D01*
X17503Y46892D01*
X17400Y46894D01*
X17297Y46892D01*
X17097Y46874D01*
X16919Y46846D01*
X16766Y46805D01*
X16636Y46753D01*
X16530Y46689D01*
X16447Y46614D01*
X16388Y46527D01*
X16353Y46429D01*
X16341Y46319D01*
Y48657D01*
X16353Y48547D01*
X16388Y48449D01*
X16447Y48362D01*
X16530Y48287D01*
X16636Y48223D01*
X16766Y48171D01*
X16919Y48131D01*
X17097Y48102D01*
X17297Y48085D01*
X17400Y48082D01*
X17503Y48085D01*
X17703Y48102D01*
X17880Y48131D01*
X18034Y48171D01*
X18164Y48223D01*
X18270Y48287D01*
X18353Y48362D01*
X18412Y48449D01*
X18447Y48547D01*
X18459Y48657D01*
X19830Y46331D01*
D02*
G37*
G36*
X49043Y47976D02*
X49085Y47958D01*
X49134Y47941D01*
X49189Y47927D01*
X49250Y47915D01*
X49391Y47898D01*
X49471Y47892D01*
X49650Y47888D01*
Y47388D01*
X49558Y47387D01*
X49317Y47370D01*
X49250Y47360D01*
X49134Y47334D01*
X49085Y47318D01*
X49043Y47299D01*
X49007Y47278D01*
Y47997D01*
X49043Y47976D01*
D02*
G37*
G36*
X30993Y47278D02*
X30957Y47299D01*
X30915Y47318D01*
X30866Y47334D01*
X30811Y47348D01*
X30750Y47360D01*
X30609Y47378D01*
X30529Y47383D01*
X30350Y47388D01*
Y47888D01*
X30442Y47889D01*
X30683Y47905D01*
X30750Y47915D01*
X30866Y47941D01*
X30915Y47958D01*
X30957Y47976D01*
X30993Y47997D01*
Y47278D01*
D02*
G37*
G36*
X69200Y50000D02*
Y48500D01*
X68707D01*
X68540Y48492D01*
X68212Y48426D01*
X67902Y48298D01*
X67624Y48112D01*
X67500Y48000D01*
X67286Y47786D01*
X66783Y47450D01*
X66224Y47218D01*
X65630Y47100D01*
X65000D01*
Y50000D01*
X69200Y50000D01*
D02*
G37*
G36*
X5000Y47100D02*
X4370D01*
X3777Y47218D01*
X3217Y47450D01*
X2714Y47786D01*
X2500Y48000D01*
X2376Y48112D01*
X2098Y48298D01*
X1788Y48426D01*
X1460Y48492D01*
X1293Y48500D01*
X800D01*
Y50000D01*
X5000Y50000D01*
Y47100D01*
D02*
G37*
G36*
X49043Y46402D02*
X49085Y46383D01*
X49134Y46367D01*
X49189Y46352D01*
X49250Y46340D01*
X49391Y46323D01*
X49471Y46317D01*
X49650Y46313D01*
Y45813D01*
X49558Y45812D01*
X49317Y45796D01*
X49250Y45786D01*
X49134Y45759D01*
X49085Y45743D01*
X49043Y45724D01*
X49007Y45703D01*
Y46423D01*
X49043Y46402D01*
D02*
G37*
G36*
X30993Y45703D02*
X30957Y45724D01*
X30915Y45743D01*
X30866Y45759D01*
X30811Y45774D01*
X30750Y45786D01*
X30609Y45803D01*
X30529Y45809D01*
X30350Y45813D01*
Y46313D01*
X30442Y46314D01*
X30683Y46330D01*
X30750Y46340D01*
X30866Y46367D01*
X30915Y46383D01*
X30957Y46402D01*
X30993Y46423D01*
Y45703D01*
D02*
G37*
G36*
X67524Y45169D02*
X67519Y45217D01*
X67503Y45259D01*
X67478Y45297D01*
X67442Y45329D01*
X67396Y45357D01*
X67340Y45379D01*
X67273Y45397D01*
X67196Y45409D01*
X67109Y45417D01*
X67012Y45419D01*
Y45919D01*
X67109Y45922D01*
X67196Y45929D01*
X67273Y45942D01*
X67340Y45959D01*
X67396Y45982D01*
X67442Y46009D01*
X67478Y46042D01*
X67503Y46079D01*
X67519Y46122D01*
X67524Y46169D01*
Y45169D01*
D02*
G37*
G36*
X24367Y45085D02*
X24413Y44353D01*
X24430Y44274D01*
X24449Y44218D01*
X24471Y44184D01*
X24496Y44173D01*
X22267D01*
X22292Y44184D01*
X22314Y44218D01*
X22333Y44274D01*
X22351Y44353D01*
X22365Y44455D01*
X22386Y44725D01*
X22397Y45299D01*
X24366D01*
X24367Y45085D01*
D02*
G37*
G36*
X12382Y46307D02*
X12363Y46272D01*
X12346Y46213D01*
X12332Y46130D01*
X12319Y46024D01*
X12302Y45740D01*
X12294Y45277D01*
X12297Y45140D01*
X12315Y44938D01*
X12344Y44759D01*
X12386Y44604D01*
X12439Y44473D01*
X12504Y44366D01*
X12581Y44282D01*
X12669Y44222D01*
X12770Y44186D01*
X12882Y44173D01*
X11122Y44185D01*
X11120Y44197D01*
X11118Y44232D01*
X11112Y45138D01*
X11110D01*
X11104Y45362D01*
X11087Y45563D01*
X11057Y45740D01*
X11016Y45894D01*
X10963Y46024D01*
X10898Y46130D01*
X10821Y46213D01*
X10732Y46272D01*
X10632Y46307D01*
X10520Y46319D01*
X12404D01*
X12382Y46307D01*
D02*
G37*
G36*
X49043Y44827D02*
X49085Y44808D01*
X49134Y44792D01*
X49189Y44778D01*
X49250Y44766D01*
X49391Y44748D01*
X49471Y44743D01*
X49650Y44738D01*
Y44238D01*
X49558Y44237D01*
X49317Y44221D01*
X49250Y44211D01*
X49134Y44184D01*
X49085Y44168D01*
X49043Y44150D01*
X49007Y44129D01*
Y44848D01*
X49043Y44827D01*
D02*
G37*
G36*
X30993Y44129D02*
X30957Y44150D01*
X30915Y44168D01*
X30866Y44184D01*
X30811Y44199D01*
X30750Y44211D01*
X30609Y44228D01*
X30529Y44234D01*
X30350Y44238D01*
Y44738D01*
X30442Y44739D01*
X30683Y44756D01*
X30750Y44766D01*
X30866Y44792D01*
X30915Y44808D01*
X30957Y44827D01*
X30993Y44848D01*
Y44129D01*
D02*
G37*
G36*
X18686Y44935D02*
X18664Y44817D01*
X18651Y44705D01*
X18645Y44600D01*
X18648Y44501D01*
X18659Y44409D01*
X18678Y44324D01*
X18705Y44245D01*
X18741Y44172D01*
X18784Y44106D01*
X18836Y44047D01*
X17183Y44065D01*
X17219Y44106D01*
X17254Y44157D01*
X17288Y44219D01*
X17320Y44291D01*
X17351Y44373D01*
X17409Y44569D01*
X17436Y44683D01*
X17485Y44942D01*
X18686Y44935D01*
D02*
G37*
G36*
X49043Y43252D02*
X49085Y43233D01*
X49134Y43217D01*
X49189Y43203D01*
X49250Y43191D01*
X49391Y43173D01*
X49471Y43168D01*
X49650Y43163D01*
Y42663D01*
X49558Y42662D01*
X49317Y42646D01*
X49250Y42636D01*
X49134Y42610D01*
X49085Y42593D01*
X49043Y42575D01*
X49007Y42554D01*
Y43273D01*
X49043Y43252D01*
D02*
G37*
G36*
X30993Y42554D02*
X30957Y42575D01*
X30915Y42593D01*
X30866Y42610D01*
X30811Y42624D01*
X30750Y42636D01*
X30609Y42654D01*
X30529Y42659D01*
X30350Y42663D01*
Y43163D01*
X30442Y43165D01*
X30683Y43181D01*
X30750Y43191D01*
X30866Y43217D01*
X30915Y43233D01*
X30957Y43252D01*
X30993Y43273D01*
Y42554D01*
D02*
G37*
G36*
X6211Y44531D02*
X6133Y44356D01*
X6095Y44162D01*
X6098Y43948D01*
X6141Y43716D01*
X6225Y43464D01*
X6348Y43193D01*
X6512Y42903D01*
X6717Y42593D01*
X6961Y42265D01*
X7246Y41917D01*
X5000Y42117D01*
Y40000D01*
X800Y40000D01*
Y41500D01*
X1293D01*
X1460Y41508D01*
X1788Y41574D01*
X2098Y41702D01*
X2376Y41888D01*
X2500Y42000D01*
X2714Y42214D01*
X3217Y42550D01*
X3593Y42706D01*
X5669Y44591D01*
X6211Y44531D01*
D02*
G37*
G36*
X18782Y42319D02*
X18742Y42259D01*
X18706Y42192D01*
X18676Y42116D01*
X18650Y42031D01*
X18628Y41938D01*
X18612Y41837D01*
X18600Y41727D01*
X18590Y41481D01*
X17410D01*
X17407Y41608D01*
X17388Y41837D01*
X17372Y41938D01*
X17350Y42031D01*
X17324Y42116D01*
X17294Y42192D01*
X17258Y42259D01*
X17218Y42319D01*
X17173Y42369D01*
X18827D01*
X18782Y42319D01*
D02*
G37*
G36*
X49043Y41677D02*
X49085Y41659D01*
X49134Y41642D01*
X49189Y41628D01*
X49250Y41616D01*
X49391Y41598D01*
X49471Y41593D01*
X49650Y41589D01*
Y41089D01*
X49558Y41087D01*
X49317Y41071D01*
X49250Y41061D01*
X49134Y41035D01*
X49085Y41019D01*
X49043Y41000D01*
X49007Y40979D01*
Y41698D01*
X49043Y41677D01*
D02*
G37*
G36*
X30993Y40979D02*
X30969Y40991D01*
X30935Y41002D01*
X30891Y41012D01*
X30837Y41020D01*
X30699Y41033D01*
X30419Y41043D01*
X30306Y41043D01*
Y41634D01*
X30419Y41635D01*
X30891Y41665D01*
X30935Y41675D01*
X30969Y41686D01*
X30993Y41698D01*
Y40979D01*
D02*
G37*
G36*
X52071Y40839D02*
X52066Y40886D01*
X52051Y40929D01*
X52025Y40966D01*
X51989Y40999D01*
X51943Y41026D01*
X51887Y41049D01*
X51820Y41066D01*
X51744Y41079D01*
X51657Y41086D01*
X51559Y41089D01*
Y41589D01*
X51657Y41591D01*
X51744Y41599D01*
X51820Y41611D01*
X51887Y41629D01*
X51943Y41651D01*
X51989Y41679D01*
X52025Y41711D01*
X52051Y41749D01*
X52066Y41791D01*
X52071Y41839D01*
Y40839D01*
D02*
G37*
G36*
X37484Y41893D02*
X37389Y41676D01*
X37350Y41569D01*
X37291Y41356D01*
X37271Y41250D01*
X37256Y41145D01*
X37247Y41041D01*
X37244Y40937D01*
X36457Y40674D01*
X36452Y40788D01*
X36437Y40894D01*
X36412Y40995D01*
X36377Y41088D01*
X36333Y41175D01*
X36278Y41256D01*
X36214Y41330D01*
X36139Y41397D01*
X36055Y41458D01*
X35961Y41512D01*
X37540Y42003D01*
X37484Y41893D01*
D02*
G37*
G36*
X27356Y41698D02*
X27750Y41628D01*
X27873Y41614D01*
X28107Y41600D01*
X28218Y41601D01*
X28427Y41615D01*
X28758Y41043D01*
X28660Y41036D01*
X28569Y41015D01*
X28484Y40979D01*
X28406Y40928D01*
X28336Y40863D01*
X28272Y40784D01*
X28216Y40691D01*
X28166Y40583D01*
X28123Y40461D01*
X28087Y40324D01*
X27217Y41730D01*
X27356Y41698D01*
D02*
G37*
G36*
X23246Y42226D02*
X23178Y42103D01*
X23118Y41952D01*
X23090Y41859D01*
X23216D01*
X23160Y41853D01*
X23110Y41835D01*
X23077Y41812D01*
X23066Y41774D01*
X23021Y41566D01*
X22986Y41331D01*
X22937Y40776D01*
X22921Y40108D01*
X22331D01*
X22327Y40456D01*
X22266Y41331D01*
X22230Y41566D01*
X22186Y41774D01*
X22175Y41812D01*
X22142Y41835D01*
X22092Y41853D01*
X22035Y41859D01*
X22162D01*
X22134Y41952D01*
X22074Y42103D01*
X22006Y42226D01*
X21930Y42320D01*
X23322D01*
X23246Y42226D01*
D02*
G37*
G36*
X66224Y42782D02*
X66783Y42550D01*
X67286Y42214D01*
X67500Y42000D01*
X67624Y41888D01*
X67902Y41702D01*
X68212Y41574D01*
X68540Y41508D01*
X68707Y41500D01*
X69200D01*
Y40000D01*
X65000Y40000D01*
Y42900D01*
X65630D01*
X66224Y42782D01*
D02*
G37*
G36*
X37563Y40567D02*
X37496Y40543D01*
X37437Y40503D01*
X37386Y40447D01*
X37343Y40375D01*
X37307Y40287D01*
X37279Y40183D01*
X37260Y40064D01*
X37248Y39928D01*
X37244Y39776D01*
X36457D01*
X36453Y39928D01*
X36441Y40064D01*
X36421Y40183D01*
X36394Y40287D01*
X36358Y40375D01*
X36315Y40447D01*
X36264Y40503D01*
X36205Y40543D01*
X36138Y40567D01*
X36063Y40575D01*
X37638D01*
X37563Y40567D01*
D02*
G37*
G36*
X34898Y37697D02*
X34892Y37753D01*
X34874Y37803D01*
X34844Y37847D01*
X34802Y37886D01*
X34748Y37918D01*
X34681Y37945D01*
X34603Y37966D01*
X34513Y37980D01*
X34410Y37989D01*
X34296Y37992D01*
Y38583D01*
X34410Y38586D01*
X34513Y38594D01*
X34603Y38609D01*
X34681Y38630D01*
X34748Y38656D01*
X34802Y38689D01*
X34844Y38727D01*
X34874Y38772D01*
X34892Y38822D01*
X34898Y38878D01*
Y37697D01*
D02*
G37*
G36*
X32233Y39007D02*
X32443Y38840D01*
X32546Y38771D01*
X32649Y38714D01*
X32750Y38667D01*
X32851Y38630D01*
X32950Y38604D01*
X33048Y38588D01*
X33146Y38583D01*
X33158Y37992D01*
X33060Y37987D01*
X32961Y37971D01*
X32862Y37944D01*
X32763Y37906D01*
X32663Y37857D01*
X32563Y37798D01*
X32463Y37728D01*
X32362Y37648D01*
X32261Y37556D01*
X32160Y37454D01*
X32126Y39107D01*
X32233Y39007D01*
D02*
G37*
G36*
X69200Y40000D02*
Y38500D01*
X68707D01*
X68540Y38492D01*
X68212Y38427D01*
X67902Y38298D01*
X67624Y38113D01*
X67500Y38000D01*
X67286Y37786D01*
X66783Y37450D01*
X66224Y37218D01*
X65630Y37100D01*
X65000D01*
Y40000D01*
X69200Y40000D01*
D02*
G37*
G36*
X5000Y37100D02*
X4370D01*
X3777Y37218D01*
X3217Y37450D01*
X2714Y37786D01*
X2500Y38000D01*
X2376Y38113D01*
X2098Y38298D01*
X1788Y38427D01*
X1460Y38492D01*
X1293Y38500D01*
X800D01*
Y40000D01*
X5000Y40000D01*
Y37100D01*
D02*
G37*
G36*
X57931Y37054D02*
X57928Y37038D01*
X57933Y37013D01*
X57945Y36976D01*
X57964Y36930D01*
X58024Y36805D01*
X58168Y36541D01*
X57494Y36551D01*
X57436Y36648D01*
X57376Y36734D01*
X57316Y36810D01*
X57254Y36876D01*
X57191Y36932D01*
X57128Y36978D01*
X57063Y37014D01*
X56997Y37039D01*
X56930Y37054D01*
X56861Y37059D01*
X57941D01*
X57931Y37054D01*
D02*
G37*
G36*
X67524Y34500D02*
X67519Y34547D01*
X67503Y34590D01*
X67478Y34628D01*
X67442Y34660D01*
X67396Y34688D01*
X67340Y34710D01*
X67273Y34727D01*
X67196Y34740D01*
X67109Y34747D01*
X67012Y34750D01*
Y35250D01*
X67109Y35252D01*
X67196Y35260D01*
X67273Y35272D01*
X67340Y35290D01*
X67396Y35313D01*
X67442Y35340D01*
X67478Y35372D01*
X67503Y35410D01*
X67519Y35452D01*
X67524Y35500D01*
Y34500D01*
D02*
G37*
G36*
X9820Y37083D02*
X9855Y36882D01*
X9915Y36705D01*
X9997Y36551D01*
X10103Y36421D01*
X10233Y36315D01*
X10387Y36232D01*
X10547Y36179D01*
X10697Y36219D01*
X10827Y36271D01*
X10933Y36334D01*
X11016Y36410D01*
X11075Y36496D01*
X11110Y36595D01*
X11122Y36704D01*
Y34366D01*
X11110Y34476D01*
X11075Y34575D01*
X11016Y34661D01*
X10933Y34737D01*
X10827Y34800D01*
X10697Y34852D01*
X10544Y34893D01*
X10387Y34842D01*
X10233Y34762D01*
X10103Y34659D01*
X9997Y34533D01*
X9915Y34385D01*
X9855Y34213D01*
X9820Y34019D01*
X9808Y33801D01*
X8627Y35535D01*
X9808Y37307D01*
X9820Y37083D01*
D02*
G37*
G36*
X19302Y33779D02*
X19323Y33637D01*
X19350Y33505D01*
X19384Y33385D01*
X19425Y33275D01*
X19473Y33177D01*
X19528Y33090D01*
X19590Y33014D01*
X19658Y32949D01*
X19734Y32895D01*
X19403Y32512D01*
X19322Y32557D01*
X19234Y32595D01*
X19136Y32627D01*
X19030Y32653D01*
X18915Y32673D01*
X18791Y32687D01*
X18658Y32695D01*
X18367Y32692D01*
X18209Y32681D01*
X19289Y33933D01*
X19302Y33779D01*
D02*
G37*
G36*
X66224Y32782D02*
X66783Y32550D01*
X67286Y32214D01*
X67500Y32000D01*
X67624Y31888D01*
X67902Y31702D01*
X68212Y31574D01*
X68540Y31508D01*
X68707Y31500D01*
X69200D01*
Y30000D01*
X65000Y30000D01*
Y32900D01*
X65630D01*
X66224Y32782D01*
D02*
G37*
G36*
X10736Y30538D02*
X11045Y30111D01*
X11186Y29955D01*
X11319Y29838D01*
X11443Y29759D01*
X11558Y29719D01*
X11666Y29718D01*
X11764Y29755D01*
X11855Y29831D01*
X11063Y28957D01*
X11843Y28095D01*
X11753Y28171D01*
X11656Y28207D01*
X11551Y28204D01*
X11438Y28162D01*
X11319Y28081D01*
X11191Y27960D01*
X11057Y27800D01*
X10915Y27601D01*
X10765Y27362D01*
X10608Y27085D01*
X9634Y27776D01*
X9755Y28010D01*
X10042Y28672D01*
X10112Y28881D01*
X10131Y28953D01*
X10106Y29039D01*
X10033Y29243D01*
X9847Y29667D01*
X9734Y29886D01*
X9607Y30110D01*
X10570Y30809D01*
X10736Y30538D01*
D02*
G37*
G36*
X69200Y30000D02*
Y28500D01*
X68707D01*
X68540Y28492D01*
X68212Y28427D01*
X67902Y28298D01*
X67624Y28113D01*
X67500Y28000D01*
X67286Y27786D01*
X66783Y27450D01*
X66224Y27218D01*
X65630Y27100D01*
X65000D01*
Y30000D01*
X69200Y30000D01*
D02*
G37*
G36*
X36282Y27169D02*
X36291Y27069D01*
X36305Y26980D01*
X36325Y26903D01*
X36350Y26838D01*
X36382Y26785D01*
X36418Y26744D01*
X36461Y26714D01*
X36509Y26697D01*
X36563Y26691D01*
X35406D01*
X35460Y26697D01*
X35508Y26714D01*
X35550Y26744D01*
X35587Y26785D01*
X35618Y26838D01*
X35644Y26903D01*
X35664Y26980D01*
X35678Y27069D01*
X35686Y27169D01*
X35689Y27281D01*
X36279D01*
X36282Y27169D01*
D02*
G37*
G36*
X67524Y24409D02*
X67518Y24465D01*
X67500Y24516D01*
X67470Y24560D01*
X67428Y24598D01*
X67373Y24631D01*
X67307Y24657D01*
X67229Y24678D01*
X67138Y24693D01*
X67036Y24702D01*
X66922Y24705D01*
Y25295D01*
X67036Y25298D01*
X67138Y25307D01*
X67229Y25322D01*
X67307Y25343D01*
X67373Y25369D01*
X67428Y25402D01*
X67470Y25440D01*
X67500Y25484D01*
X67518Y25534D01*
X67524Y25591D01*
Y24409D01*
D02*
G37*
G36*
X42208Y21001D02*
X42145Y20985D01*
X42084Y20958D01*
X42024Y20920D01*
X41965Y20872D01*
X41906Y20813D01*
X41849Y20743D01*
X41793Y20662D01*
X41738Y20571D01*
X41684Y20469D01*
X41034Y20531D01*
X41080Y20621D01*
X41301Y21001D01*
X41311Y21006D01*
X42271D01*
X42208Y21001D01*
D02*
G37*
G36*
X30604Y21000D02*
X30555Y20982D01*
X30513Y20953D01*
X30476Y20912D01*
X30445Y20858D01*
X30419Y20794D01*
X30400Y20717D01*
X30385Y20628D01*
X30377Y20528D01*
X30374Y20415D01*
X29783D01*
X29781Y20528D01*
X29772Y20628D01*
X29758Y20717D01*
X29738Y20794D01*
X29713Y20858D01*
X29682Y20912D01*
X29645Y20953D01*
X29602Y20982D01*
X29554Y21000D01*
X29500Y21006D01*
X30657D01*
X30604Y21000D01*
D02*
G37*
G36*
X66224Y22782D02*
X66783Y22550D01*
X67286Y22214D01*
X67500Y22000D01*
X67624Y21888D01*
X67902Y21702D01*
X68212Y21574D01*
X68540Y21508D01*
X68707Y21500D01*
X69200D01*
Y20000D01*
X65000Y20000D01*
Y22900D01*
X65630D01*
X66224Y22782D01*
D02*
G37*
G36*
X45500Y20319D02*
X45207Y20290D01*
X44667Y20066D01*
X44253Y19652D01*
X44029Y19112D01*
X44000Y18819D01*
Y18819D01*
X44000Y16319D01*
X44000Y16021D01*
X43772Y15469D01*
X43350Y15047D01*
X42798Y14819D01*
X42500Y14819D01*
X42202Y14819D01*
X41650Y15047D01*
X41228Y15469D01*
X41000Y16021D01*
X41000Y16319D01*
Y16319D01*
Y17819D01*
X41000Y18117D01*
X41228Y18669D01*
X41650Y19091D01*
X42202Y19319D01*
X42500Y19319D01*
X42500Y19319D01*
X42695Y19338D01*
X43056Y19487D01*
X43332Y19763D01*
X43481Y20124D01*
X43500Y20319D01*
Y26319D01*
X45500D01*
X45500Y20319D01*
D02*
G37*
G36*
X51017Y27657D02*
X51151Y26984D01*
X51413Y26350D01*
X51794Y25780D01*
X52280Y25295D01*
X52850Y24913D01*
X53484Y24651D01*
X54157Y24517D01*
X54500Y24500D01*
X58500D01*
Y18500D01*
X51000D01*
X50983Y18843D01*
X50849Y19516D01*
X50587Y20150D01*
X50205Y20720D01*
X49720Y21205D01*
X49150Y21587D01*
X48516Y21849D01*
X47843Y21983D01*
X47500Y22000D01*
X46500D01*
Y28000D01*
X51000D01*
X51017Y27657D01*
D02*
G37*
G36*
X69200Y20000D02*
Y18500D01*
X68707D01*
X68540Y18492D01*
X68212Y18427D01*
X67902Y18298D01*
X67624Y18113D01*
X67500Y18000D01*
X67286Y17786D01*
X66783Y17450D01*
X66224Y17218D01*
X65630Y17100D01*
X65000D01*
Y20000D01*
X69200Y20000D01*
D02*
G37*
G36*
X23500Y20819D02*
X22500D01*
X22157Y20802D01*
X21484Y20668D01*
X20850Y20406D01*
X20280Y20024D01*
X19794Y19539D01*
X19413Y18969D01*
X19151Y18335D01*
X19017Y17662D01*
X19000Y17319D01*
X18539D01*
X18527Y17231D01*
X18506Y16924D01*
X18484Y15485D01*
X16516D01*
X16506Y15849D01*
X16478Y16176D01*
X16432Y16464D01*
X16366Y16713D01*
X16282Y16924D01*
X16179Y17097D01*
X16058Y17231D01*
X15929Y17319D01*
X11500D01*
Y23319D01*
X15500D01*
X15843Y23336D01*
X16516Y23470D01*
X17150Y23732D01*
X17720Y24113D01*
X18205Y24599D01*
X18587Y25169D01*
X18849Y25803D01*
X18983Y26476D01*
X19000Y26819D01*
X23500D01*
Y20819D01*
D02*
G37*
G36*
X26500Y20319D02*
X26519Y20124D01*
X26669Y19763D01*
X26944Y19487D01*
X27305Y19338D01*
X27500Y19319D01*
X27500Y19319D01*
X27798Y19319D01*
X28350Y19091D01*
X28772Y18669D01*
X29000Y18117D01*
X29000Y17819D01*
X29000Y16319D01*
X29000Y16319D01*
X29000Y16021D01*
X28772Y15469D01*
X28350Y15047D01*
X27798Y14819D01*
X27500Y14819D01*
X27202Y14819D01*
X26650Y15047D01*
X26228Y15469D01*
X26000Y16021D01*
X26000Y16319D01*
Y18819D01*
X26000Y18819D01*
X25971Y19112D01*
X25747Y19652D01*
X25333Y20066D01*
X24793Y20290D01*
X24500Y20319D01*
X24500Y26319D01*
X26500D01*
Y20319D01*
D02*
G37*
G36*
X67524Y14410D02*
X67518Y14466D01*
X67500Y14516D01*
X67470Y14560D01*
X67428Y14598D01*
X67373Y14631D01*
X67307Y14658D01*
X67229Y14678D01*
X67138Y14693D01*
X67036Y14702D01*
X66922Y14705D01*
Y15295D01*
X67036Y15298D01*
X67138Y15307D01*
X67229Y15322D01*
X67307Y15342D01*
X67373Y15369D01*
X67428Y15402D01*
X67470Y15440D01*
X67500Y15484D01*
X67518Y15534D01*
X67524Y15590D01*
Y14410D01*
D02*
G37*
G36*
X14175Y13853D02*
X14193Y13803D01*
X14222Y13759D01*
X14264Y13721D01*
X14317Y13688D01*
X14382Y13661D01*
X14458Y13641D01*
X14547Y13626D01*
X14648Y13617D01*
X14760Y13614D01*
Y13024D01*
X14648Y13022D01*
X14458Y13005D01*
X14382Y12990D01*
X14317Y12971D01*
X14264Y12949D01*
X14222Y12922D01*
X14193Y12890D01*
X14175Y12855D01*
X14169Y12815D01*
Y13909D01*
X14175Y13853D01*
D02*
G37*
G36*
X8505Y13068D02*
X8393Y12866D01*
X8293Y12641D01*
X8207Y12395D01*
X8132Y12127D01*
X8071Y11837D01*
X8022Y11525D01*
X7962Y10835D01*
X7951Y10456D01*
X7952Y10056D01*
X5003Y12953D01*
X5402Y12962D01*
X5771Y12991D01*
X6111Y13039D01*
X6419Y13106D01*
X6698Y13193D01*
X6946Y13299D01*
X7164Y13424D01*
X7352Y13568D01*
X7509Y13733D01*
X7636Y13916D01*
X8505Y13068D01*
D02*
G37*
G36*
X66224Y12782D02*
X66783Y12550D01*
X67286Y12214D01*
X67500Y12000D01*
X67624Y11887D01*
X67902Y11702D01*
X68212Y11574D01*
X68540Y11508D01*
X68707Y11500D01*
X69200D01*
Y10000D01*
X65000Y10000D01*
Y12900D01*
X65630D01*
X66224Y12782D01*
D02*
G37*
G36*
X13713Y8882D02*
X13646Y8858D01*
X13587Y8818D01*
X13535Y8762D01*
X13492Y8690D01*
X13457Y8602D01*
X13429Y8498D01*
X13409Y8378D01*
X13398Y8243D01*
X13394Y8091D01*
X12606D01*
X12602Y8243D01*
X12591Y8378D01*
X12571Y8498D01*
X12543Y8602D01*
X12508Y8690D01*
X12465Y8762D01*
X12413Y8818D01*
X12354Y8858D01*
X12287Y8882D01*
X12213Y8890D01*
X13787D01*
X13713Y8882D01*
D02*
G37*
G36*
X69200Y10000D02*
Y8500D01*
X68707D01*
X68540Y8492D01*
X68212Y8427D01*
X67902Y8298D01*
X67624Y8112D01*
X67500Y8000D01*
X67286Y7786D01*
X66783Y7450D01*
X66224Y7218D01*
X65630Y7100D01*
X65000D01*
Y10000D01*
X69200Y10000D01*
D02*
G37*
G36*
X57398Y6775D02*
X57410Y6639D01*
X57429Y6519D01*
X57457Y6415D01*
X57492Y6327D01*
X57535Y6256D01*
X57587Y6199D01*
X57646Y6160D01*
X57713Y6136D01*
X57787Y6128D01*
X56213D01*
X56287Y6136D01*
X56354Y6160D01*
X56413Y6199D01*
X56465Y6256D01*
X56508Y6327D01*
X56543Y6415D01*
X56571Y6519D01*
X56590Y6639D01*
X56602Y6775D01*
X56606Y6927D01*
X57394D01*
X57398Y6775D01*
D02*
G37*
G36*
X13398D02*
X13409Y6639D01*
X13429Y6519D01*
X13457Y6415D01*
X13492Y6327D01*
X13535Y6256D01*
X13587Y6199D01*
X13646Y6160D01*
X13713Y6136D01*
X13787Y6128D01*
X12213D01*
X12287Y6136D01*
X12354Y6160D01*
X12413Y6199D01*
X12465Y6256D01*
X12508Y6327D01*
X12543Y6415D01*
X12571Y6519D01*
X12591Y6639D01*
X12602Y6775D01*
X12606Y6927D01*
X13394D01*
X13398Y6775D01*
D02*
G37*
G36*
X51441Y1860D02*
X51422Y2040D01*
X51364Y2200D01*
X51267Y2342D01*
X51131Y2465D01*
X50956Y2569D01*
X50742Y2654D01*
X50490Y2720D01*
X50199Y2767D01*
X49869Y2796D01*
X49500Y2805D01*
Y4774D01*
X49869Y4783D01*
X50199Y4811D01*
X50490Y4859D01*
X50742Y4925D01*
X50956Y5010D01*
X51131Y5114D01*
X51267Y5237D01*
X51364Y5378D01*
X51422Y5539D01*
X51441Y5719D01*
Y1860D01*
D02*
G37*
G36*
X18578Y5539D02*
X18636Y5378D01*
X18733Y5237D01*
X18869Y5114D01*
X19044Y5010D01*
X19258Y4925D01*
X19510Y4859D01*
X19801Y4811D01*
X20131Y4783D01*
X20500Y4774D01*
Y2805D01*
X20131Y2796D01*
X19801Y2767D01*
X19510Y2720D01*
X19258Y2654D01*
X19044Y2569D01*
X18869Y2465D01*
X18733Y2342D01*
X18636Y2200D01*
X18578Y2040D01*
X18559Y1860D01*
Y5719D01*
X18578Y5539D01*
D02*
G37*
G36*
X841951Y-293603D02*
X841665D01*
Y-293889D01*
X841378D01*
Y-294176D01*
Y-294462D01*
X841092D01*
Y-294748D01*
X840806D01*
Y-295035D01*
X840519D01*
Y-295321D01*
Y-295607D01*
X840233D01*
Y-295894D01*
X839947D01*
Y-296180D01*
X839660D01*
Y-296466D01*
X839374D01*
Y-296752D01*
Y-297039D01*
X839088D01*
Y-297325D01*
X838801D01*
Y-297611D01*
X838515D01*
Y-297898D01*
Y-298184D01*
X838229D01*
Y-298470D01*
X837943D01*
Y-298757D01*
X837656D01*
Y-299043D01*
X837370D01*
Y-299329D01*
Y-299616D01*
X837084D01*
Y-299902D01*
X836797D01*
Y-300188D01*
X836511D01*
Y-300475D01*
Y-300761D01*
X836225D01*
Y-301047D01*
X835938D01*
Y-301333D01*
X835652D01*
Y-301620D01*
Y-301906D01*
X835366D01*
Y-302192D01*
X835079D01*
Y-302479D01*
X834793D01*
Y-302765D01*
X834507D01*
Y-303051D01*
Y-303338D01*
X834221D01*
Y-303624D01*
X833934D01*
Y-303910D01*
X833648D01*
Y-304197D01*
Y-304483D01*
X833362D01*
Y-304769D01*
X833075D01*
Y-305055D01*
X832789D01*
Y-305342D01*
Y-305628D01*
X832503D01*
Y-305914D01*
X832216D01*
Y-306201D01*
X831930D01*
Y-306487D01*
X831644D01*
Y-306773D01*
Y-307060D01*
X831357D01*
Y-307346D01*
X831071D01*
Y-307632D01*
X830785D01*
Y-307919D01*
Y-308205D01*
X830499D01*
Y-308491D01*
X830212D01*
Y-308778D01*
X829926D01*
Y-309064D01*
Y-309350D01*
X829640D01*
Y-309636D01*
X829353D01*
Y-309923D01*
X829067D01*
Y-310209D01*
X828781D01*
Y-310495D01*
Y-310782D01*
X828494D01*
Y-311068D01*
X828208D01*
Y-311354D01*
X827922D01*
Y-311641D01*
Y-311927D01*
X827635D01*
Y-312213D01*
X827349D01*
Y-312500D01*
X827063D01*
Y-312786D01*
X826776D01*
Y-313072D01*
Y-313359D01*
X827063D01*
Y-313645D01*
Y-313931D01*
X827349D01*
Y-314217D01*
Y-314504D01*
X827635D01*
Y-314790D01*
X827922D01*
Y-315076D01*
Y-315363D01*
X828208D01*
Y-315649D01*
Y-315935D01*
X828494D01*
Y-316222D01*
Y-316508D01*
X828781D01*
Y-316794D01*
Y-317081D01*
X829067D01*
Y-317367D01*
Y-317653D01*
X829353D01*
Y-317940D01*
Y-318226D01*
X829640D01*
Y-318512D01*
Y-318798D01*
X829926D01*
Y-319085D01*
Y-319371D01*
X830212D01*
Y-319657D01*
X830499D01*
Y-319944D01*
Y-320230D01*
X830785D01*
Y-320516D01*
Y-320803D01*
X831071D01*
Y-321089D01*
Y-321375D01*
X831357D01*
Y-321662D01*
Y-321948D01*
X831644D01*
Y-322234D01*
Y-322521D01*
X831930D01*
Y-322807D01*
Y-323093D01*
X832216D01*
Y-323379D01*
Y-323666D01*
X832503D01*
Y-323952D01*
X832789D01*
Y-324238D01*
Y-324525D01*
X833075D01*
Y-324811D01*
Y-325097D01*
X833362D01*
Y-325384D01*
Y-325670D01*
X833648D01*
Y-325956D01*
Y-326243D01*
X833934D01*
Y-326529D01*
Y-326815D01*
X834221D01*
Y-327102D01*
Y-327388D01*
X834507D01*
Y-327674D01*
Y-327960D01*
X834793D01*
Y-328247D01*
X835079D01*
Y-328533D01*
Y-328819D01*
X835366D01*
Y-329106D01*
Y-329392D01*
X835652D01*
Y-329678D01*
X820477D01*
Y-329392D01*
X820191D01*
Y-329106D01*
Y-328819D01*
Y-328533D01*
X819905D01*
Y-328247D01*
Y-327960D01*
Y-327674D01*
X819619D01*
Y-327388D01*
Y-327102D01*
X819332D01*
Y-326815D01*
Y-326529D01*
Y-326243D01*
X819046D01*
Y-325956D01*
Y-325670D01*
Y-325384D01*
X818760D01*
Y-325097D01*
Y-324811D01*
X818473D01*
Y-324525D01*
Y-324238D01*
Y-323952D01*
X818187D01*
Y-323666D01*
Y-323379D01*
Y-323093D01*
X817901D01*
Y-322807D01*
Y-322521D01*
Y-322234D01*
X817614D01*
Y-321948D01*
X817042D01*
Y-322234D01*
Y-322521D01*
X816755D01*
Y-322807D01*
X816469D01*
Y-323093D01*
Y-323379D01*
X816183D01*
Y-323666D01*
X815897D01*
Y-323952D01*
Y-324238D01*
X815610D01*
Y-324525D01*
X815324D01*
Y-324811D01*
Y-325097D01*
X815038D01*
Y-325384D01*
X814751D01*
Y-325670D01*
X814465D01*
Y-325956D01*
Y-326243D01*
X814179D01*
Y-326529D01*
X813892D01*
Y-326815D01*
Y-327102D01*
X813606D01*
Y-327388D01*
X813320D01*
Y-327674D01*
Y-327960D01*
X813033D01*
Y-328247D01*
X812747D01*
Y-328533D01*
Y-328819D01*
X812461D01*
Y-329106D01*
X812174D01*
Y-329392D01*
Y-329678D01*
X796141D01*
Y-329392D01*
X796427D01*
Y-329106D01*
X796714D01*
Y-328819D01*
X797000D01*
Y-328533D01*
X797286D01*
Y-328247D01*
Y-327960D01*
X797573D01*
Y-327674D01*
X797859D01*
Y-327388D01*
X798145D01*
Y-327102D01*
X798431D01*
Y-326815D01*
Y-326529D01*
X798718D01*
Y-326243D01*
X799004D01*
Y-325956D01*
X799290D01*
Y-325670D01*
Y-325384D01*
X799577D01*
Y-325097D01*
X799863D01*
Y-324811D01*
X800149D01*
Y-324525D01*
X800436D01*
Y-324238D01*
Y-323952D01*
X800722D01*
Y-323666D01*
X801008D01*
Y-323379D01*
X801295D01*
Y-323093D01*
X801581D01*
Y-322807D01*
Y-322521D01*
X801867D01*
Y-322234D01*
X802153D01*
Y-321948D01*
X802440D01*
Y-321662D01*
Y-321375D01*
X802726D01*
Y-321089D01*
X803012D01*
Y-320803D01*
X803299D01*
Y-320516D01*
X803585D01*
Y-320230D01*
Y-319944D01*
X803871D01*
Y-319657D01*
X804158D01*
Y-319371D01*
X804444D01*
Y-319085D01*
Y-318798D01*
X804730D01*
Y-318512D01*
X805017D01*
Y-318226D01*
X805303D01*
Y-317940D01*
X805589D01*
Y-317653D01*
Y-317367D01*
X805876D01*
Y-317081D01*
X806162D01*
Y-316794D01*
X806448D01*
Y-316508D01*
Y-316222D01*
X806734D01*
Y-315935D01*
X807021D01*
Y-315649D01*
X807307D01*
Y-315363D01*
X807594D01*
Y-315076D01*
Y-314790D01*
X807880D01*
Y-314504D01*
X808166D01*
Y-314217D01*
X808452D01*
Y-313931D01*
X808739D01*
Y-313645D01*
Y-313359D01*
X809025D01*
Y-313072D01*
X809311D01*
Y-312786D01*
X809598D01*
Y-312500D01*
Y-312213D01*
X809884D01*
Y-311927D01*
X810170D01*
Y-311641D01*
X810457D01*
Y-311354D01*
X810743D01*
Y-311068D01*
Y-310782D01*
X811029D01*
Y-310495D01*
Y-310209D01*
Y-309923D01*
X810743D01*
Y-309636D01*
X810457D01*
Y-309350D01*
Y-309064D01*
X810170D01*
Y-308778D01*
Y-308491D01*
X809884D01*
Y-308205D01*
Y-307919D01*
X809598D01*
Y-307632D01*
Y-307346D01*
X809311D01*
Y-307060D01*
Y-306773D01*
X809025D01*
Y-306487D01*
Y-306201D01*
X808739D01*
Y-305914D01*
X808452D01*
Y-305628D01*
Y-305342D01*
X808166D01*
Y-305055D01*
Y-304769D01*
X807880D01*
Y-304483D01*
Y-304197D01*
X807594D01*
Y-303910D01*
Y-303624D01*
X807307D01*
Y-303338D01*
Y-303051D01*
X807021D01*
Y-302765D01*
Y-302479D01*
X806734D01*
Y-302192D01*
X806448D01*
Y-301906D01*
Y-301620D01*
X806162D01*
Y-301333D01*
Y-301047D01*
X805876D01*
Y-300761D01*
Y-300475D01*
X805589D01*
Y-300188D01*
Y-299902D01*
X805303D01*
Y-299616D01*
Y-299329D01*
X805017D01*
Y-299043D01*
Y-298757D01*
X804730D01*
Y-298470D01*
Y-298184D01*
X804444D01*
Y-297898D01*
X804158D01*
Y-297611D01*
Y-297325D01*
X803871D01*
Y-297039D01*
Y-296752D01*
X803585D01*
Y-296466D01*
Y-296180D01*
X803299D01*
Y-295894D01*
Y-295607D01*
X803012D01*
Y-295321D01*
Y-295035D01*
X802726D01*
Y-294748D01*
Y-294462D01*
X802440D01*
Y-294176D01*
X802153D01*
Y-293889D01*
Y-293603D01*
X801867D01*
Y-293317D01*
X817614D01*
Y-293603D01*
X817901D01*
Y-293889D01*
Y-294176D01*
Y-294462D01*
X818187D01*
Y-294748D01*
Y-295035D01*
Y-295321D01*
X818473D01*
Y-295607D01*
Y-295894D01*
Y-296180D01*
X818760D01*
Y-296466D01*
Y-296752D01*
Y-297039D01*
X819046D01*
Y-297325D01*
Y-297611D01*
Y-297898D01*
X819332D01*
Y-298184D01*
Y-298470D01*
Y-298757D01*
X819619D01*
Y-299043D01*
Y-299329D01*
Y-299616D01*
X819905D01*
Y-299902D01*
Y-300188D01*
Y-300475D01*
X820191D01*
Y-300761D01*
Y-301047D01*
Y-301333D01*
Y-301620D01*
X820764D01*
Y-301333D01*
X821050D01*
Y-301047D01*
X821336D01*
Y-300761D01*
Y-300475D01*
X821623D01*
Y-300188D01*
X821909D01*
Y-299902D01*
Y-299616D01*
X822195D01*
Y-299329D01*
X822482D01*
Y-299043D01*
Y-298757D01*
X822768D01*
Y-298470D01*
X823054D01*
Y-298184D01*
Y-297898D01*
X823341D01*
Y-297611D01*
X823627D01*
Y-297325D01*
Y-297039D01*
X823913D01*
Y-296752D01*
X824200D01*
Y-296466D01*
Y-296180D01*
X824486D01*
Y-295894D01*
X824772D01*
Y-295607D01*
Y-295321D01*
X825058D01*
Y-295035D01*
X825345D01*
Y-294748D01*
Y-294462D01*
X825631D01*
Y-294176D01*
X825918D01*
Y-293889D01*
Y-293603D01*
X826204D01*
Y-293317D01*
X841951D01*
Y-293603D01*
D02*
G37*
G36*
X708815Y-279574D02*
X710533D01*
Y-279860D01*
X711392D01*
Y-280146D01*
X712251D01*
Y-280433D01*
X713110D01*
Y-280719D01*
X713683D01*
Y-281005D01*
X713969D01*
Y-281292D01*
X714542D01*
Y-281578D01*
X714828D01*
Y-281864D01*
X715401D01*
Y-282151D01*
X715687D01*
Y-282437D01*
X715973D01*
Y-282723D01*
X716260D01*
Y-283009D01*
X716546D01*
Y-283296D01*
X716832D01*
Y-283582D01*
X717119D01*
Y-283868D01*
Y-284155D01*
X717405D01*
Y-284441D01*
X717691D01*
Y-284727D01*
Y-285014D01*
X717978D01*
Y-285300D01*
X718264D01*
Y-285586D01*
Y-285873D01*
X718550D01*
Y-286159D01*
Y-286445D01*
Y-286732D01*
X718836D01*
Y-287018D01*
Y-287304D01*
Y-287590D01*
X719123D01*
Y-287877D01*
Y-288163D01*
Y-288449D01*
Y-288736D01*
X719409D01*
Y-289022D01*
Y-289308D01*
Y-289595D01*
Y-289881D01*
Y-290167D01*
X719695D01*
Y-290454D01*
Y-290740D01*
Y-291026D01*
Y-291313D01*
Y-291599D01*
Y-291885D01*
Y-292171D01*
Y-292458D01*
Y-292744D01*
Y-293030D01*
Y-293317D01*
Y-293603D01*
Y-293889D01*
Y-294176D01*
Y-294462D01*
Y-294748D01*
Y-295035D01*
Y-295321D01*
Y-295607D01*
Y-295894D01*
X719409D01*
Y-296180D01*
Y-296466D01*
Y-296752D01*
Y-297039D01*
Y-297325D01*
Y-297611D01*
Y-297898D01*
X719123D01*
Y-298184D01*
Y-298470D01*
Y-298757D01*
Y-299043D01*
Y-299329D01*
X718836D01*
Y-299616D01*
Y-299902D01*
Y-300188D01*
Y-300475D01*
Y-300761D01*
X718550D01*
Y-301047D01*
Y-301333D01*
Y-301620D01*
X718264D01*
Y-301906D01*
Y-302192D01*
Y-302479D01*
Y-302765D01*
X717978D01*
Y-303051D01*
Y-303338D01*
Y-303624D01*
X717691D01*
Y-303910D01*
Y-304197D01*
X717405D01*
Y-304483D01*
Y-304769D01*
Y-305055D01*
X717119D01*
Y-305342D01*
Y-305628D01*
X716832D01*
Y-305914D01*
Y-306201D01*
X716546D01*
Y-306487D01*
Y-306773D01*
X716260D01*
Y-307060D01*
X715973D01*
Y-307346D01*
Y-307632D01*
X715687D01*
Y-307919D01*
X715401D01*
Y-308205D01*
X715114D01*
Y-308491D01*
Y-308778D01*
X714828D01*
Y-309064D01*
X714542D01*
Y-309350D01*
X714256D01*
Y-309636D01*
X713969D01*
Y-309923D01*
X713683D01*
Y-310209D01*
X713110D01*
Y-310495D01*
X712824D01*
Y-310782D01*
X712251D01*
Y-311068D01*
X711965D01*
Y-311354D01*
X711392D01*
Y-311641D01*
X710533D01*
Y-311927D01*
X709674D01*
Y-312213D01*
X708815D01*
Y-312500D01*
X707098D01*
Y-312786D01*
X701944D01*
Y-312500D01*
X699367D01*
Y-312213D01*
X697363D01*
Y-311927D01*
X695931D01*
Y-311641D01*
X694500D01*
Y-311354D01*
X693068D01*
Y-311641D01*
Y-311927D01*
Y-312213D01*
Y-312500D01*
Y-312786D01*
Y-313072D01*
Y-313359D01*
X692782D01*
Y-313645D01*
Y-313931D01*
Y-314217D01*
Y-314504D01*
Y-314790D01*
Y-315076D01*
X692496D01*
Y-315363D01*
Y-315649D01*
Y-315935D01*
Y-316222D01*
Y-316508D01*
Y-316794D01*
X692209D01*
Y-317081D01*
Y-317367D01*
Y-317653D01*
Y-317940D01*
Y-318226D01*
Y-318512D01*
Y-318798D01*
X691923D01*
Y-319085D01*
Y-319371D01*
Y-319657D01*
Y-319944D01*
Y-320230D01*
Y-320516D01*
X691637D01*
Y-320803D01*
Y-321089D01*
Y-321375D01*
Y-321662D01*
Y-321948D01*
Y-322234D01*
X691350D01*
Y-322521D01*
Y-322807D01*
Y-323093D01*
Y-323379D01*
Y-323666D01*
Y-323952D01*
Y-324238D01*
X691064D01*
Y-324525D01*
Y-324811D01*
Y-325097D01*
Y-325384D01*
Y-325670D01*
Y-325956D01*
X690778D01*
Y-326243D01*
Y-326529D01*
Y-326815D01*
Y-327102D01*
Y-327388D01*
Y-327674D01*
X690491D01*
Y-327960D01*
Y-328247D01*
Y-328533D01*
Y-328819D01*
Y-329106D01*
Y-329392D01*
Y-329678D01*
X677035D01*
Y-329392D01*
X677321D01*
Y-329106D01*
Y-328819D01*
Y-328533D01*
Y-328247D01*
Y-327960D01*
X677607D01*
Y-327674D01*
Y-327388D01*
Y-327102D01*
Y-326815D01*
Y-326529D01*
Y-326243D01*
Y-325956D01*
X677894D01*
Y-325670D01*
Y-325384D01*
Y-325097D01*
Y-324811D01*
Y-324525D01*
Y-324238D01*
X678180D01*
Y-323952D01*
Y-323666D01*
Y-323379D01*
Y-323093D01*
Y-322807D01*
Y-322521D01*
X678466D01*
Y-322234D01*
Y-321948D01*
Y-321662D01*
Y-321375D01*
Y-321089D01*
Y-320803D01*
Y-320516D01*
X678753D01*
Y-320230D01*
Y-319944D01*
Y-319657D01*
Y-319371D01*
Y-319085D01*
Y-318798D01*
X679039D01*
Y-318512D01*
Y-318226D01*
Y-317940D01*
Y-317653D01*
Y-317367D01*
Y-317081D01*
X679325D01*
Y-316794D01*
Y-316508D01*
Y-316222D01*
Y-315935D01*
Y-315649D01*
Y-315363D01*
X679612D01*
Y-315076D01*
Y-314790D01*
Y-314504D01*
Y-314217D01*
Y-313931D01*
Y-313645D01*
Y-313359D01*
X679898D01*
Y-313072D01*
Y-312786D01*
Y-312500D01*
Y-312213D01*
Y-311927D01*
Y-311641D01*
X680184D01*
Y-311354D01*
Y-311068D01*
Y-310782D01*
Y-310495D01*
Y-310209D01*
Y-309923D01*
X680471D01*
Y-309636D01*
Y-309350D01*
Y-309064D01*
Y-308778D01*
Y-308491D01*
Y-308205D01*
X680757D01*
Y-307919D01*
Y-307632D01*
Y-307346D01*
Y-307060D01*
Y-306773D01*
Y-306487D01*
Y-306201D01*
X681043D01*
Y-305914D01*
Y-305628D01*
Y-305342D01*
Y-305055D01*
Y-304769D01*
Y-304483D01*
X681329D01*
Y-304197D01*
Y-303910D01*
Y-303624D01*
Y-303338D01*
Y-303051D01*
Y-302765D01*
X681616D01*
Y-302479D01*
Y-302192D01*
Y-301906D01*
Y-301620D01*
Y-301333D01*
Y-301047D01*
Y-300761D01*
X681902D01*
Y-300475D01*
Y-300188D01*
Y-299902D01*
Y-299616D01*
Y-299329D01*
Y-299043D01*
X682188D01*
Y-298757D01*
Y-298470D01*
Y-298184D01*
Y-297898D01*
Y-297611D01*
Y-297325D01*
X682475D01*
Y-297039D01*
Y-296752D01*
Y-296466D01*
Y-296180D01*
Y-295894D01*
Y-295607D01*
X682761D01*
Y-295321D01*
Y-295035D01*
Y-294748D01*
Y-294462D01*
Y-294176D01*
Y-293889D01*
Y-293603D01*
X683047D01*
Y-293317D01*
Y-293030D01*
Y-292744D01*
Y-292458D01*
Y-292171D01*
Y-291885D01*
X683334D01*
Y-291599D01*
Y-291313D01*
Y-291026D01*
Y-290740D01*
Y-290454D01*
Y-290167D01*
X683620D01*
Y-289881D01*
Y-289595D01*
Y-289308D01*
Y-289022D01*
Y-288736D01*
Y-288449D01*
Y-288163D01*
X683906D01*
Y-287877D01*
Y-287590D01*
Y-287304D01*
Y-287018D01*
Y-286732D01*
Y-286445D01*
X684193D01*
Y-286159D01*
Y-285873D01*
Y-285586D01*
Y-285300D01*
Y-285014D01*
Y-284727D01*
X684479D01*
Y-284441D01*
Y-284155D01*
Y-283868D01*
Y-283582D01*
Y-283296D01*
Y-283009D01*
Y-282723D01*
X684765D01*
Y-282437D01*
Y-282151D01*
Y-281864D01*
Y-281578D01*
Y-281292D01*
Y-281005D01*
X685052D01*
Y-280719D01*
Y-280433D01*
Y-280146D01*
Y-279860D01*
Y-279574D01*
Y-279287D01*
X708815D01*
Y-279574D01*
D02*
G37*
G36*
X797859Y-293603D02*
Y-293889D01*
Y-294176D01*
Y-294462D01*
Y-294748D01*
Y-295035D01*
Y-295321D01*
Y-295607D01*
Y-295894D01*
Y-296180D01*
Y-296466D01*
Y-296752D01*
Y-297039D01*
Y-297325D01*
Y-297611D01*
Y-297898D01*
Y-298184D01*
Y-298470D01*
Y-298757D01*
Y-299043D01*
Y-299329D01*
X797573D01*
Y-299616D01*
Y-299902D01*
Y-300188D01*
Y-300475D01*
Y-300761D01*
X797286D01*
Y-301047D01*
Y-301333D01*
Y-301620D01*
Y-301906D01*
X797000D01*
Y-302192D01*
Y-302479D01*
Y-302765D01*
Y-303051D01*
X796714D01*
Y-303338D01*
Y-303624D01*
Y-303910D01*
X796427D01*
Y-304197D01*
Y-304483D01*
Y-304769D01*
X796141D01*
Y-305055D01*
Y-305342D01*
Y-305628D01*
X795855D01*
Y-305914D01*
Y-306201D01*
Y-306487D01*
X795568D01*
Y-306773D01*
Y-307060D01*
X795282D01*
Y-307346D01*
Y-307632D01*
X794996D01*
Y-307919D01*
Y-308205D01*
Y-308491D01*
X794709D01*
Y-308778D01*
Y-309064D01*
X794423D01*
Y-309350D01*
Y-309636D01*
Y-309923D01*
X794137D01*
Y-310209D01*
Y-310495D01*
X793850D01*
Y-310782D01*
Y-311068D01*
Y-311354D01*
X793564D01*
Y-311641D01*
Y-311927D01*
X793278D01*
Y-312213D01*
Y-312500D01*
Y-312786D01*
X792991D01*
Y-313072D01*
Y-313359D01*
X792705D01*
Y-313645D01*
Y-313931D01*
Y-314217D01*
X792419D01*
Y-314504D01*
Y-314790D01*
X792133D01*
Y-315076D01*
Y-315363D01*
Y-315649D01*
X791846D01*
Y-315935D01*
Y-316222D01*
X791560D01*
Y-316508D01*
Y-316794D01*
Y-317081D01*
X791274D01*
Y-317367D01*
Y-317653D01*
X790987D01*
Y-317940D01*
Y-318226D01*
Y-318512D01*
X790701D01*
Y-318798D01*
Y-319085D01*
X790415D01*
Y-319371D01*
Y-319657D01*
Y-319944D01*
X790128D01*
Y-320230D01*
Y-320516D01*
X789842D01*
Y-320803D01*
Y-321089D01*
Y-321375D01*
X789556D01*
Y-321662D01*
Y-321948D01*
X789269D01*
Y-322234D01*
Y-322521D01*
Y-322807D01*
X788983D01*
Y-323093D01*
Y-323379D01*
X788697D01*
Y-323666D01*
Y-323952D01*
Y-324238D01*
X788411D01*
Y-324525D01*
Y-324811D01*
X788124D01*
Y-325097D01*
Y-325384D01*
Y-325670D01*
X787838D01*
Y-325956D01*
Y-326243D01*
X787552D01*
Y-326529D01*
Y-326815D01*
Y-327102D01*
X787265D01*
Y-327388D01*
Y-327674D01*
X786979D01*
Y-327960D01*
Y-328247D01*
Y-328533D01*
X786693D01*
Y-328819D01*
Y-329106D01*
X786406D01*
Y-329392D01*
Y-329678D01*
Y-329965D01*
X786120D01*
Y-330251D01*
Y-330537D01*
X785834D01*
Y-330824D01*
Y-331110D01*
X785547D01*
Y-331396D01*
Y-331683D01*
X785261D01*
Y-331969D01*
Y-332255D01*
Y-332542D01*
X784975D01*
Y-332828D01*
X784688D01*
Y-333114D01*
Y-333401D01*
Y-333687D01*
X784402D01*
Y-333973D01*
X784116D01*
Y-334259D01*
Y-334546D01*
X783829D01*
Y-334832D01*
Y-335118D01*
X783543D01*
Y-335405D01*
Y-335691D01*
X783257D01*
Y-335977D01*
Y-336264D01*
X782971D01*
Y-336550D01*
X782684D01*
Y-336836D01*
Y-337123D01*
X782398D01*
Y-337409D01*
Y-337695D01*
X782112D01*
Y-337982D01*
X781825D01*
Y-338268D01*
X781539D01*
Y-338554D01*
Y-338840D01*
X781253D01*
Y-339127D01*
X780966D01*
Y-339413D01*
Y-339699D01*
X780680D01*
Y-339986D01*
X780394D01*
Y-340272D01*
X780107D01*
Y-340558D01*
Y-340845D01*
X779821D01*
Y-341131D01*
X779535D01*
Y-341417D01*
X779249D01*
Y-341704D01*
X778962D01*
Y-341990D01*
X778676D01*
Y-342276D01*
Y-342563D01*
X778390D01*
Y-342849D01*
X778103D01*
Y-343135D01*
X777817D01*
Y-343421D01*
X777531D01*
Y-343708D01*
X777244D01*
Y-343994D01*
X776958D01*
Y-344280D01*
X776672D01*
Y-344567D01*
X776099D01*
Y-344853D01*
X775813D01*
Y-345139D01*
X775526D01*
Y-345426D01*
X775240D01*
Y-345712D01*
X774954D01*
Y-345998D01*
X774381D01*
Y-346285D01*
X774095D01*
Y-346571D01*
X773522D01*
Y-346857D01*
X773236D01*
Y-347144D01*
X772663D01*
Y-347430D01*
X772377D01*
Y-347716D01*
X771804D01*
Y-348002D01*
X771232D01*
Y-348289D01*
X770659D01*
Y-348575D01*
X770086D01*
Y-348861D01*
X769514D01*
Y-349148D01*
X768655D01*
Y-349434D01*
X768082D01*
Y-349720D01*
X767223D01*
Y-350007D01*
X766078D01*
Y-350293D01*
X764933D01*
Y-350579D01*
X763215D01*
Y-350866D01*
X761211D01*
Y-351152D01*
X760924D01*
Y-350866D01*
Y-350579D01*
Y-350293D01*
Y-350007D01*
Y-349720D01*
Y-349434D01*
Y-349148D01*
Y-348861D01*
Y-348575D01*
Y-348289D01*
Y-348002D01*
Y-347716D01*
Y-347430D01*
Y-347144D01*
Y-346857D01*
Y-346571D01*
Y-346285D01*
Y-345998D01*
Y-345712D01*
Y-345426D01*
Y-345139D01*
Y-344853D01*
Y-344567D01*
Y-344280D01*
Y-343994D01*
Y-343708D01*
Y-343421D01*
Y-343135D01*
Y-342849D01*
Y-342563D01*
Y-342276D01*
Y-341990D01*
Y-341704D01*
X761497D01*
Y-341417D01*
X762070D01*
Y-341131D01*
X762642D01*
Y-340845D01*
X763215D01*
Y-340558D01*
X763788D01*
Y-340272D01*
X764360D01*
Y-339986D01*
X764646D01*
Y-339699D01*
X765219D01*
Y-339413D01*
X765506D01*
Y-339127D01*
X766078D01*
Y-338840D01*
X766364D01*
Y-338554D01*
X766651D01*
Y-338268D01*
X767223D01*
Y-337982D01*
X767510D01*
Y-337695D01*
X767796D01*
Y-337409D01*
X768082D01*
Y-337123D01*
X768369D01*
Y-336836D01*
X768655D01*
Y-336550D01*
X768941D01*
Y-336264D01*
X769228D01*
Y-335977D01*
X769514D01*
Y-335691D01*
X769800D01*
Y-335405D01*
X770086D01*
Y-335118D01*
X770373D01*
Y-334832D01*
Y-334546D01*
X770659D01*
Y-334259D01*
X770945D01*
Y-333973D01*
X771232D01*
Y-333687D01*
Y-333401D01*
X771518D01*
Y-333114D01*
X771804D01*
Y-332828D01*
Y-332542D01*
X772091D01*
Y-332255D01*
Y-331969D01*
X772377D01*
Y-331683D01*
X772663D01*
Y-331396D01*
Y-331110D01*
X772950D01*
Y-330824D01*
Y-330537D01*
X773236D01*
Y-330251D01*
Y-329965D01*
X771518D01*
Y-329678D01*
X769514D01*
Y-329392D01*
X768369D01*
Y-329106D01*
X767796D01*
Y-328819D01*
X766937D01*
Y-328533D01*
X766364D01*
Y-328247D01*
X766078D01*
Y-327960D01*
X765506D01*
Y-327674D01*
X765219D01*
Y-327388D01*
X764933D01*
Y-327102D01*
X764646D01*
Y-326815D01*
X764360D01*
Y-326529D01*
X764074D01*
Y-326243D01*
Y-325956D01*
X763788D01*
Y-325670D01*
X763501D01*
Y-325384D01*
Y-325097D01*
X763215D01*
Y-324811D01*
Y-324525D01*
X762929D01*
Y-324238D01*
Y-323952D01*
X762642D01*
Y-323666D01*
Y-323379D01*
Y-323093D01*
X762356D01*
Y-322807D01*
Y-322521D01*
Y-322234D01*
Y-321948D01*
X762070D01*
Y-321662D01*
Y-321375D01*
Y-321089D01*
Y-320803D01*
Y-320516D01*
Y-320230D01*
Y-319944D01*
X761783D01*
Y-319657D01*
Y-319371D01*
Y-319085D01*
Y-318798D01*
Y-318512D01*
Y-318226D01*
Y-317940D01*
Y-317653D01*
Y-317367D01*
Y-317081D01*
Y-316794D01*
Y-316508D01*
Y-316222D01*
Y-315935D01*
Y-315649D01*
X761497D01*
Y-315363D01*
Y-315076D01*
Y-314790D01*
Y-314504D01*
Y-314217D01*
Y-313931D01*
Y-313645D01*
Y-313359D01*
Y-313072D01*
Y-312786D01*
Y-312500D01*
Y-312213D01*
Y-311927D01*
Y-311641D01*
Y-311354D01*
X761211D01*
Y-311068D01*
Y-310782D01*
Y-310495D01*
Y-310209D01*
Y-309923D01*
Y-309636D01*
Y-309350D01*
Y-309064D01*
Y-308778D01*
Y-308491D01*
Y-308205D01*
Y-307919D01*
Y-307632D01*
Y-307346D01*
Y-307060D01*
Y-306773D01*
X760924D01*
Y-306487D01*
Y-306201D01*
Y-305914D01*
Y-305628D01*
Y-305342D01*
Y-305055D01*
Y-304769D01*
Y-304483D01*
Y-304197D01*
Y-303910D01*
Y-303624D01*
Y-303338D01*
Y-303051D01*
Y-302765D01*
Y-302479D01*
Y-302192D01*
X760638D01*
Y-301906D01*
Y-301620D01*
Y-301333D01*
Y-301047D01*
Y-300761D01*
Y-300475D01*
Y-300188D01*
Y-299902D01*
Y-299616D01*
Y-299329D01*
Y-299043D01*
Y-298757D01*
Y-298470D01*
Y-298184D01*
X760352D01*
Y-297898D01*
Y-297611D01*
Y-297325D01*
Y-297039D01*
Y-296752D01*
Y-296466D01*
Y-296180D01*
Y-295894D01*
Y-295607D01*
Y-295321D01*
Y-295035D01*
Y-294748D01*
Y-294462D01*
Y-294176D01*
Y-293889D01*
Y-293603D01*
X760066D01*
Y-293317D01*
X773808D01*
Y-293603D01*
Y-293889D01*
Y-294176D01*
Y-294462D01*
Y-294748D01*
Y-295035D01*
Y-295321D01*
Y-295607D01*
Y-295894D01*
Y-296180D01*
Y-296466D01*
Y-296752D01*
Y-297039D01*
Y-297325D01*
X774095D01*
Y-297611D01*
Y-297898D01*
Y-298184D01*
Y-298470D01*
Y-298757D01*
Y-299043D01*
Y-299329D01*
Y-299616D01*
Y-299902D01*
Y-300188D01*
Y-300475D01*
Y-300761D01*
Y-301047D01*
Y-301333D01*
Y-301620D01*
Y-301906D01*
Y-302192D01*
Y-302479D01*
Y-302765D01*
Y-303051D01*
Y-303338D01*
Y-303624D01*
Y-303910D01*
Y-304197D01*
Y-304483D01*
Y-304769D01*
Y-305055D01*
Y-305342D01*
Y-305628D01*
Y-305914D01*
Y-306201D01*
Y-306487D01*
Y-306773D01*
Y-307060D01*
Y-307346D01*
Y-307632D01*
Y-307919D01*
Y-308205D01*
Y-308491D01*
Y-308778D01*
Y-309064D01*
X774381D01*
Y-309350D01*
X774095D01*
Y-309636D01*
Y-309923D01*
X774381D01*
Y-310209D01*
Y-310495D01*
Y-310782D01*
Y-311068D01*
Y-311354D01*
Y-311641D01*
Y-311927D01*
Y-312213D01*
Y-312500D01*
Y-312786D01*
Y-313072D01*
Y-313359D01*
Y-313645D01*
Y-313931D01*
Y-314217D01*
Y-314504D01*
Y-314790D01*
Y-315076D01*
Y-315363D01*
Y-315649D01*
Y-315935D01*
Y-316222D01*
Y-316508D01*
Y-316794D01*
Y-317081D01*
Y-317367D01*
X774668D01*
Y-317653D01*
Y-317940D01*
Y-318226D01*
X774954D01*
Y-318512D01*
X775240D01*
Y-318798D01*
X775526D01*
Y-319085D01*
X776385D01*
Y-319371D01*
X777244D01*
Y-319085D01*
X777531D01*
Y-318798D01*
Y-318512D01*
Y-318226D01*
X777817D01*
Y-317940D01*
Y-317653D01*
X778103D01*
Y-317367D01*
Y-317081D01*
Y-316794D01*
X778390D01*
Y-316508D01*
Y-316222D01*
Y-315935D01*
X778676D01*
Y-315649D01*
Y-315363D01*
Y-315076D01*
X778962D01*
Y-314790D01*
Y-314504D01*
Y-314217D01*
X779249D01*
Y-313931D01*
Y-313645D01*
X779535D01*
Y-313359D01*
Y-313072D01*
Y-312786D01*
X779821D01*
Y-312500D01*
Y-312213D01*
Y-311927D01*
X780107D01*
Y-311641D01*
Y-311354D01*
Y-311068D01*
X780394D01*
Y-310782D01*
Y-310495D01*
X780680D01*
Y-310209D01*
Y-309923D01*
Y-309636D01*
X780966D01*
Y-309350D01*
Y-309064D01*
Y-308778D01*
X781253D01*
Y-308491D01*
Y-308205D01*
Y-307919D01*
X781539D01*
Y-307632D01*
Y-307346D01*
X781825D01*
Y-307060D01*
Y-306773D01*
Y-306487D01*
X782112D01*
Y-306201D01*
Y-305914D01*
Y-305628D01*
X782398D01*
Y-305342D01*
Y-305055D01*
Y-304769D01*
X782684D01*
Y-304483D01*
Y-304197D01*
X782971D01*
Y-303910D01*
Y-303624D01*
Y-303338D01*
X783257D01*
Y-303051D01*
Y-302765D01*
Y-302479D01*
X783543D01*
Y-302192D01*
Y-301906D01*
Y-301620D01*
X783829D01*
Y-301333D01*
Y-301047D01*
Y-300761D01*
Y-300475D01*
X784116D01*
Y-300188D01*
Y-299902D01*
Y-299616D01*
Y-299329D01*
X784402D01*
Y-299043D01*
Y-298757D01*
Y-298470D01*
Y-298184D01*
Y-297898D01*
X784688D01*
Y-297611D01*
Y-297325D01*
Y-297039D01*
Y-296752D01*
Y-296466D01*
Y-296180D01*
X784975D01*
Y-295894D01*
Y-295607D01*
Y-295321D01*
Y-295035D01*
Y-294748D01*
Y-294462D01*
Y-294176D01*
Y-293889D01*
Y-293603D01*
Y-293317D01*
X797859D01*
Y-293603D01*
D02*
G37*
G36*
X740024Y-276138D02*
Y-276424D01*
X739737D01*
Y-276711D01*
Y-276997D01*
Y-277283D01*
Y-277570D01*
Y-277856D01*
Y-278142D01*
X739451D01*
Y-278428D01*
Y-278715D01*
Y-279001D01*
Y-279287D01*
Y-279574D01*
Y-279860D01*
X739165D01*
Y-280146D01*
Y-280433D01*
Y-280719D01*
Y-281005D01*
Y-281292D01*
Y-281578D01*
Y-281864D01*
X738878D01*
Y-282151D01*
Y-282437D01*
Y-282723D01*
Y-283009D01*
Y-283296D01*
Y-283582D01*
X738592D01*
Y-283868D01*
Y-284155D01*
Y-284441D01*
Y-284727D01*
Y-285014D01*
Y-285300D01*
X738306D01*
Y-285586D01*
Y-285873D01*
Y-286159D01*
Y-286445D01*
Y-286732D01*
Y-287018D01*
Y-287304D01*
X738019D01*
Y-287590D01*
Y-287877D01*
Y-288163D01*
Y-288449D01*
Y-288736D01*
Y-289022D01*
X737733D01*
Y-289308D01*
Y-289595D01*
Y-289881D01*
Y-290167D01*
Y-290454D01*
Y-290740D01*
X737447D01*
Y-291026D01*
Y-291313D01*
Y-291599D01*
Y-291885D01*
Y-292171D01*
Y-292458D01*
X737160D01*
Y-292744D01*
Y-293030D01*
Y-293317D01*
Y-293603D01*
Y-293889D01*
Y-294176D01*
Y-294462D01*
X736874D01*
Y-294748D01*
Y-295035D01*
Y-295321D01*
Y-295607D01*
Y-295894D01*
Y-296180D01*
X736588D01*
Y-296466D01*
Y-296752D01*
X737160D01*
Y-296466D01*
X737447D01*
Y-296180D01*
X737733D01*
Y-295894D01*
X738306D01*
Y-295607D01*
X738592D01*
Y-295321D01*
X738878D01*
Y-295035D01*
X739451D01*
Y-294748D01*
X740024D01*
Y-294462D01*
X740310D01*
Y-294176D01*
X740882D01*
Y-293889D01*
X741742D01*
Y-293603D01*
X742314D01*
Y-293317D01*
X743173D01*
Y-293030D01*
X744605D01*
Y-292744D01*
X750904D01*
Y-293030D01*
X752049D01*
Y-293317D01*
X752908D01*
Y-293603D01*
X753480D01*
Y-293889D01*
X753767D01*
Y-294176D01*
X754339D01*
Y-294462D01*
X754626D01*
Y-294748D01*
X754912D01*
Y-295035D01*
X755198D01*
Y-295321D01*
X755484D01*
Y-295607D01*
Y-295894D01*
X755771D01*
Y-296180D01*
Y-296466D01*
X756057D01*
Y-296752D01*
Y-297039D01*
Y-297325D01*
X756344D01*
Y-297611D01*
Y-297898D01*
Y-298184D01*
Y-298470D01*
X756630D01*
Y-298757D01*
Y-299043D01*
Y-299329D01*
Y-299616D01*
Y-299902D01*
Y-300188D01*
Y-300475D01*
Y-300761D01*
Y-301047D01*
Y-301333D01*
Y-301620D01*
Y-301906D01*
Y-302192D01*
Y-302479D01*
Y-302765D01*
Y-303051D01*
Y-303338D01*
Y-303624D01*
X756344D01*
Y-303910D01*
Y-304197D01*
Y-304483D01*
Y-304769D01*
Y-305055D01*
Y-305342D01*
Y-305628D01*
X756057D01*
Y-305914D01*
Y-306201D01*
Y-306487D01*
Y-306773D01*
Y-307060D01*
Y-307346D01*
Y-307632D01*
X755771D01*
Y-307919D01*
Y-308205D01*
Y-308491D01*
Y-308778D01*
Y-309064D01*
Y-309350D01*
X755484D01*
Y-309636D01*
Y-309923D01*
Y-310209D01*
Y-310495D01*
Y-310782D01*
Y-311068D01*
X755198D01*
Y-311354D01*
Y-311641D01*
Y-311927D01*
Y-312213D01*
Y-312500D01*
Y-312786D01*
X754912D01*
Y-313072D01*
Y-313359D01*
Y-313645D01*
Y-313931D01*
Y-314217D01*
Y-314504D01*
Y-314790D01*
X754626D01*
Y-315076D01*
Y-315363D01*
Y-315649D01*
Y-315935D01*
Y-316222D01*
Y-316508D01*
X754339D01*
Y-316794D01*
Y-317081D01*
Y-317367D01*
Y-317653D01*
Y-317940D01*
Y-318226D01*
X754053D01*
Y-318512D01*
Y-318798D01*
Y-319085D01*
Y-319371D01*
Y-319657D01*
Y-319944D01*
Y-320230D01*
X753767D01*
Y-320516D01*
Y-320803D01*
Y-321089D01*
Y-321375D01*
Y-321662D01*
Y-321948D01*
X753480D01*
Y-322234D01*
Y-322521D01*
Y-322807D01*
Y-323093D01*
Y-323379D01*
Y-323666D01*
X753194D01*
Y-323952D01*
Y-324238D01*
Y-324525D01*
Y-324811D01*
Y-325097D01*
Y-325384D01*
X752908D01*
Y-325670D01*
Y-325956D01*
Y-326243D01*
Y-326529D01*
Y-326815D01*
Y-327102D01*
Y-327388D01*
X752621D01*
Y-327674D01*
Y-327960D01*
Y-328247D01*
Y-328533D01*
Y-328819D01*
Y-329106D01*
X752335D01*
Y-329392D01*
Y-329678D01*
X739165D01*
Y-329392D01*
Y-329106D01*
X739451D01*
Y-328819D01*
Y-328533D01*
Y-328247D01*
Y-327960D01*
Y-327674D01*
Y-327388D01*
X739737D01*
Y-327102D01*
Y-326815D01*
Y-326529D01*
Y-326243D01*
Y-325956D01*
Y-325670D01*
Y-325384D01*
X740024D01*
Y-325097D01*
Y-324811D01*
Y-324525D01*
Y-324238D01*
Y-323952D01*
Y-323666D01*
X740310D01*
Y-323379D01*
Y-323093D01*
Y-322807D01*
Y-322521D01*
Y-322234D01*
Y-321948D01*
X740596D01*
Y-321662D01*
Y-321375D01*
Y-321089D01*
Y-320803D01*
Y-320516D01*
Y-320230D01*
Y-319944D01*
X740882D01*
Y-319657D01*
Y-319371D01*
Y-319085D01*
Y-318798D01*
Y-318512D01*
Y-318226D01*
X741169D01*
Y-317940D01*
Y-317653D01*
Y-317367D01*
Y-317081D01*
Y-316794D01*
Y-316508D01*
Y-316222D01*
X741455D01*
Y-315935D01*
Y-315649D01*
Y-315363D01*
Y-315076D01*
Y-314790D01*
Y-314504D01*
X741742D01*
Y-314217D01*
Y-313931D01*
Y-313645D01*
Y-313359D01*
Y-313072D01*
Y-312786D01*
X742028D01*
Y-312500D01*
Y-312213D01*
Y-311927D01*
Y-311641D01*
Y-311354D01*
Y-311068D01*
X742314D01*
Y-310782D01*
Y-310495D01*
Y-310209D01*
Y-309923D01*
Y-309636D01*
Y-309350D01*
Y-309064D01*
X742600D01*
Y-308778D01*
Y-308491D01*
Y-308205D01*
Y-307919D01*
Y-307632D01*
Y-307346D01*
X742887D01*
Y-307060D01*
Y-306773D01*
Y-306487D01*
Y-306201D01*
Y-305914D01*
Y-305628D01*
Y-305342D01*
X743173D01*
Y-305055D01*
Y-304769D01*
Y-304483D01*
Y-304197D01*
Y-303910D01*
Y-303624D01*
X742887D01*
Y-303338D01*
Y-303051D01*
X742600D01*
Y-302765D01*
X742314D01*
Y-302479D01*
X741742D01*
Y-302192D01*
X740024D01*
Y-302479D01*
X738592D01*
Y-302765D01*
X737733D01*
Y-303051D01*
X737160D01*
Y-303338D01*
X736874D01*
Y-303624D01*
X736302D01*
Y-303910D01*
X736015D01*
Y-304197D01*
X735729D01*
Y-304483D01*
Y-304769D01*
X735443D01*
Y-305055D01*
Y-305342D01*
Y-305628D01*
X735156D01*
Y-305914D01*
Y-306201D01*
Y-306487D01*
Y-306773D01*
Y-307060D01*
Y-307346D01*
X734870D01*
Y-307632D01*
Y-307919D01*
Y-308205D01*
Y-308491D01*
Y-308778D01*
Y-309064D01*
Y-309350D01*
X734584D01*
Y-309636D01*
Y-309923D01*
Y-310209D01*
Y-310495D01*
Y-310782D01*
Y-311068D01*
X734297D01*
Y-311354D01*
Y-311641D01*
Y-311927D01*
Y-312213D01*
Y-312500D01*
Y-312786D01*
X734011D01*
Y-313072D01*
Y-313359D01*
Y-313645D01*
Y-313931D01*
Y-314217D01*
Y-314504D01*
X733725D01*
Y-314790D01*
Y-315076D01*
Y-315363D01*
Y-315649D01*
Y-315935D01*
Y-316222D01*
Y-316508D01*
X733438D01*
Y-316794D01*
Y-317081D01*
Y-317367D01*
Y-317653D01*
Y-317940D01*
Y-318226D01*
X733152D01*
Y-318512D01*
Y-318798D01*
Y-319085D01*
Y-319371D01*
Y-319657D01*
Y-319944D01*
X732866D01*
Y-320230D01*
Y-320516D01*
Y-320803D01*
Y-321089D01*
Y-321375D01*
Y-321662D01*
Y-321948D01*
X732580D01*
Y-322234D01*
Y-322521D01*
Y-322807D01*
Y-323093D01*
Y-323379D01*
Y-323666D01*
X732293D01*
Y-323952D01*
Y-324238D01*
Y-324525D01*
Y-324811D01*
Y-325097D01*
Y-325384D01*
X732007D01*
Y-325670D01*
Y-325956D01*
Y-326243D01*
Y-326529D01*
Y-326815D01*
Y-327102D01*
X731720D01*
Y-327388D01*
Y-327674D01*
Y-327960D01*
Y-328247D01*
Y-328533D01*
Y-328819D01*
Y-329106D01*
X731434D01*
Y-329392D01*
Y-329678D01*
X718264D01*
Y-329392D01*
Y-329106D01*
X718550D01*
Y-328819D01*
Y-328533D01*
Y-328247D01*
Y-327960D01*
Y-327674D01*
Y-327388D01*
Y-327102D01*
X718836D01*
Y-326815D01*
Y-326529D01*
Y-326243D01*
Y-325956D01*
Y-325670D01*
Y-325384D01*
X719123D01*
Y-325097D01*
Y-324811D01*
Y-324525D01*
Y-324238D01*
Y-323952D01*
Y-323666D01*
X719409D01*
Y-323379D01*
Y-323093D01*
Y-322807D01*
Y-322521D01*
Y-322234D01*
Y-321948D01*
Y-321662D01*
X719695D01*
Y-321375D01*
Y-321089D01*
Y-320803D01*
Y-320516D01*
Y-320230D01*
Y-319944D01*
X719982D01*
Y-319657D01*
Y-319371D01*
Y-319085D01*
Y-318798D01*
Y-318512D01*
Y-318226D01*
X720268D01*
Y-317940D01*
Y-317653D01*
Y-317367D01*
Y-317081D01*
Y-316794D01*
Y-316508D01*
X720554D01*
Y-316222D01*
Y-315935D01*
Y-315649D01*
Y-315363D01*
Y-315076D01*
Y-314790D01*
Y-314504D01*
X720841D01*
Y-314217D01*
Y-313931D01*
Y-313645D01*
Y-313359D01*
Y-313072D01*
Y-312786D01*
X721127D01*
Y-312500D01*
Y-312213D01*
Y-311927D01*
Y-311641D01*
Y-311354D01*
Y-311068D01*
X721413D01*
Y-310782D01*
Y-310495D01*
Y-310209D01*
Y-309923D01*
Y-309636D01*
Y-309350D01*
Y-309064D01*
X721700D01*
Y-308778D01*
Y-308491D01*
Y-308205D01*
Y-307919D01*
Y-307632D01*
Y-307346D01*
X721986D01*
Y-307060D01*
Y-306773D01*
Y-306487D01*
Y-306201D01*
Y-305914D01*
Y-305628D01*
X722272D01*
Y-305342D01*
Y-305055D01*
Y-304769D01*
Y-304483D01*
Y-304197D01*
Y-303910D01*
X722558D01*
Y-303624D01*
Y-303338D01*
Y-303051D01*
Y-302765D01*
Y-302479D01*
Y-302192D01*
Y-301906D01*
X722845D01*
Y-301620D01*
Y-301333D01*
Y-301047D01*
Y-300761D01*
Y-300475D01*
Y-300188D01*
X723131D01*
Y-299902D01*
Y-299616D01*
Y-299329D01*
Y-299043D01*
Y-298757D01*
Y-298470D01*
X723418D01*
Y-298184D01*
Y-297898D01*
Y-297611D01*
Y-297325D01*
Y-297039D01*
Y-296752D01*
X723704D01*
Y-296466D01*
Y-296180D01*
Y-295894D01*
Y-295607D01*
Y-295321D01*
Y-295035D01*
Y-294748D01*
X723990D01*
Y-294462D01*
Y-294176D01*
Y-293889D01*
Y-293603D01*
Y-293317D01*
Y-293030D01*
X724276D01*
Y-292744D01*
Y-292458D01*
Y-292171D01*
Y-291885D01*
Y-291599D01*
Y-291313D01*
X724563D01*
Y-291026D01*
Y-290740D01*
Y-290454D01*
Y-290167D01*
Y-289881D01*
Y-289595D01*
Y-289308D01*
X724849D01*
Y-289022D01*
Y-288736D01*
Y-288449D01*
Y-288163D01*
Y-287877D01*
Y-287590D01*
X725135D01*
Y-287304D01*
Y-287018D01*
Y-286732D01*
Y-286445D01*
Y-286159D01*
Y-285873D01*
X725422D01*
Y-285586D01*
Y-285300D01*
Y-285014D01*
Y-284727D01*
Y-284441D01*
Y-284155D01*
X725708D01*
Y-283868D01*
Y-283582D01*
Y-283296D01*
Y-283009D01*
Y-282723D01*
Y-282437D01*
Y-282151D01*
X725994D01*
Y-281864D01*
Y-281578D01*
Y-281292D01*
Y-281005D01*
Y-280719D01*
Y-280433D01*
X726281D01*
Y-280146D01*
Y-279860D01*
Y-279574D01*
Y-279287D01*
Y-279001D01*
Y-278715D01*
X726567D01*
Y-278428D01*
Y-278142D01*
Y-277856D01*
Y-277570D01*
Y-277283D01*
Y-276997D01*
Y-276711D01*
X726853D01*
Y-276424D01*
Y-276138D01*
Y-275852D01*
X740024D01*
Y-276138D01*
D02*
G37*
%LPC*%
G36*
X704521Y-290454D02*
X696504D01*
Y-290740D01*
Y-291026D01*
Y-291313D01*
Y-291599D01*
Y-291885D01*
X696218D01*
Y-292171D01*
Y-292458D01*
Y-292744D01*
Y-293030D01*
Y-293317D01*
Y-293603D01*
X695931D01*
Y-293889D01*
Y-294176D01*
Y-294462D01*
Y-294748D01*
Y-295035D01*
Y-295321D01*
X695645D01*
Y-295607D01*
Y-295894D01*
Y-296180D01*
Y-296466D01*
Y-296752D01*
Y-297039D01*
X695359D01*
Y-297325D01*
Y-297611D01*
Y-297898D01*
Y-298184D01*
Y-298470D01*
Y-298757D01*
Y-299043D01*
X695073D01*
Y-299329D01*
Y-299616D01*
Y-299902D01*
Y-300188D01*
Y-300475D01*
Y-300761D01*
X694786D01*
Y-301047D01*
Y-301333D01*
Y-301620D01*
X701944D01*
Y-301333D01*
X703089D01*
Y-301047D01*
X703662D01*
Y-300761D01*
X703948D01*
Y-300475D01*
X704235D01*
Y-300188D01*
X704521D01*
Y-299902D01*
X704807D01*
Y-299616D01*
Y-299329D01*
X705093D01*
Y-299043D01*
Y-298757D01*
X705380D01*
Y-298470D01*
Y-298184D01*
X705666D01*
Y-297898D01*
Y-297611D01*
Y-297325D01*
Y-297039D01*
X705952D01*
Y-296752D01*
Y-296466D01*
Y-296180D01*
Y-295894D01*
Y-295607D01*
X706239D01*
Y-295321D01*
Y-295035D01*
Y-294748D01*
Y-294462D01*
Y-294176D01*
Y-293889D01*
Y-293603D01*
Y-293317D01*
Y-293030D01*
Y-292744D01*
Y-292458D01*
X705952D01*
Y-292171D01*
Y-291885D01*
X705666D01*
Y-291599D01*
Y-291313D01*
X705380D01*
Y-291026D01*
X705093D01*
Y-290740D01*
X704521D01*
Y-290454D01*
D02*
G37*
%LPD*%
D10*
X45669Y57480D02*
Y63538D01*
X54724Y63779D02*
X58661D01*
X45669Y63538D02*
X46632Y64500D01*
X1019299Y-339807D02*
Y-331936D01*
X1023235D01*
X1024547Y-333248D01*
Y-335872D01*
X1023235Y-337183D01*
X1019299D01*
X1021923D02*
X1024547Y-339807D01*
X1031106D02*
X1028482D01*
X1027170Y-338495D01*
Y-335872D01*
X1028482Y-334560D01*
X1031106D01*
X1032418Y-335872D01*
Y-337183D01*
X1027170D01*
X1035042Y-334560D02*
X1037666Y-339807D01*
X1040289Y-334560D01*
X664968Y-371306D02*
Y-379177D01*
X668904D01*
X670216Y-377865D01*
Y-372618D01*
X668904Y-371306D01*
X664968D01*
X676775Y-379177D02*
X674152D01*
X672840Y-377865D01*
Y-375242D01*
X674152Y-373930D01*
X676775D01*
X678087Y-375242D01*
Y-376554D01*
X672840D01*
X680711Y-379177D02*
X684647D01*
X685959Y-377865D01*
X684647Y-376554D01*
X682023D01*
X680711Y-375242D01*
X682023Y-373930D01*
X685959D01*
X691207Y-381801D02*
X692518D01*
X693830Y-380489D01*
Y-373930D01*
X689894D01*
X688583Y-375242D01*
Y-377865D01*
X689894Y-379177D01*
X693830D01*
X696454D02*
X699078D01*
X697766D01*
Y-373930D01*
X696454D01*
X703014Y-379177D02*
Y-373930D01*
X706949D01*
X708261Y-375242D01*
Y-379177D01*
X714821D02*
X712197D01*
X710885Y-377865D01*
Y-375242D01*
X712197Y-373930D01*
X714821D01*
X716133Y-375242D01*
Y-376554D01*
X710885D01*
X718757Y-373930D02*
Y-379177D01*
Y-376554D01*
X720069Y-375242D01*
X721381Y-373930D01*
X722692D01*
X861819Y-253196D02*
Y-261067D01*
X865754D01*
X867066Y-259755D01*
Y-254507D01*
X865754Y-253196D01*
X861819D01*
X871002Y-261067D02*
X873626D01*
X874938Y-259755D01*
Y-257131D01*
X873626Y-255820D01*
X871002D01*
X869690Y-257131D01*
Y-259755D01*
X871002Y-261067D01*
X882809Y-255820D02*
X878874D01*
X877561Y-257131D01*
Y-259755D01*
X878874Y-261067D01*
X882809D01*
X885433Y-255820D02*
Y-259755D01*
X886745Y-261067D01*
X890681D01*
Y-255820D01*
X893305Y-261067D02*
Y-255820D01*
X894616D01*
X895928Y-257131D01*
Y-261067D01*
Y-257131D01*
X897240Y-255820D01*
X898552Y-257131D01*
Y-261067D01*
X905112D02*
X902488D01*
X901176Y-259755D01*
Y-257131D01*
X902488Y-255820D01*
X905112D01*
X906424Y-257131D01*
Y-258443D01*
X901176D01*
X909048Y-261067D02*
Y-255820D01*
X912983D01*
X914295Y-257131D01*
Y-261067D01*
X918231Y-254507D02*
Y-255820D01*
X916919D01*
X919543D01*
X918231D01*
Y-259755D01*
X919543Y-261067D01*
X861819Y-292566D02*
Y-300437D01*
X867066D01*
X871002Y-295189D02*
X873626D01*
X874938Y-296501D01*
Y-300437D01*
X871002D01*
X869690Y-299125D01*
X871002Y-297813D01*
X874938D01*
X877561Y-295189D02*
Y-299125D01*
X878874Y-300437D01*
X882809D01*
Y-301749D01*
X881497Y-303061D01*
X880185D01*
X882809Y-300437D02*
Y-295189D01*
X889369Y-300437D02*
X886745D01*
X885433Y-299125D01*
Y-296501D01*
X886745Y-295189D01*
X889369D01*
X890681Y-296501D01*
Y-297813D01*
X885433D01*
X893305Y-295189D02*
Y-300437D01*
Y-297813D01*
X894616Y-296501D01*
X895928Y-295189D01*
X897240D01*
X909048Y-300437D02*
Y-292566D01*
X914295Y-300437D01*
Y-292566D01*
X918231Y-295189D02*
X920855D01*
X922167Y-296501D01*
Y-300437D01*
X918231D01*
X916919Y-299125D01*
X918231Y-297813D01*
X922167D01*
X924790Y-300437D02*
Y-295189D01*
X926102D01*
X927414Y-296501D01*
Y-300437D01*
Y-296501D01*
X928726Y-295189D01*
X930038Y-296501D01*
Y-300437D01*
X936598D02*
X933974D01*
X932662Y-299125D01*
Y-296501D01*
X933974Y-295189D01*
X936598D01*
X937910Y-296501D01*
Y-297813D01*
X932662D01*
X861819Y-331936D02*
Y-339807D01*
X865754D01*
X867066Y-338495D01*
Y-333248D01*
X865754Y-331936D01*
X861819D01*
X871002Y-334560D02*
X873626D01*
X874938Y-335872D01*
Y-339807D01*
X871002D01*
X869690Y-338495D01*
X871002Y-337183D01*
X874938D01*
X878874Y-333248D02*
Y-334560D01*
X877561D01*
X880185D01*
X878874D01*
Y-338495D01*
X880185Y-339807D01*
X888057D02*
X885433D01*
X884121Y-338495D01*
Y-335872D01*
X885433Y-334560D01*
X888057D01*
X889369Y-335872D01*
Y-337183D01*
X884121D01*
X861819Y-371306D02*
Y-379177D01*
X865754D01*
X867066Y-377865D01*
Y-372618D01*
X865754Y-371306D01*
X861819D01*
X871002Y-379177D02*
X873626D01*
X874938Y-377865D01*
Y-375242D01*
X873626Y-373930D01*
X871002D01*
X869690Y-375242D01*
Y-377865D01*
X871002Y-379177D01*
X882809Y-373930D02*
X878874D01*
X877561Y-375242D01*
Y-377865D01*
X878874Y-379177D01*
X882809D01*
X885433Y-373930D02*
Y-377865D01*
X886745Y-379177D01*
X890681D01*
Y-373930D01*
X893305Y-379177D02*
Y-373930D01*
X894616D01*
X895928Y-375242D01*
Y-379177D01*
Y-375242D01*
X897240Y-373930D01*
X898552Y-375242D01*
Y-379177D01*
X905112D02*
X902488D01*
X901176Y-377865D01*
Y-375242D01*
X902488Y-373930D01*
X905112D01*
X906424Y-375242D01*
Y-376554D01*
X901176D01*
X909048Y-379177D02*
Y-373930D01*
X912983D01*
X914295Y-375242D01*
Y-379177D01*
X918231Y-372618D02*
Y-373930D01*
X916919D01*
X919543D01*
X918231D01*
Y-377865D01*
X919543Y-379177D01*
D11*
X65000Y-0D02*
G03*
X70000Y5000I0J5000D01*
G01*
X70000Y75000D02*
G03*
X65000Y80000I-5000J0D01*
G01*
X5000Y80000D02*
G03*
X0Y75000I0J-5000D01*
G01*
X-0Y5000D02*
G03*
X5000Y0I5000J0D01*
G01*
X0Y5000D02*
Y75000D01*
X5000Y80000D02*
X65000D01*
X70000Y5000D02*
Y75000D01*
X5000Y0D02*
X65000D01*
D12*
X36002Y34057D02*
G03*
X38425Y36480I0J2423D01*
G01*
X33160Y35504D02*
G03*
X31429Y36220I-1731J-1731D01*
G01*
X29528Y37008D02*
G03*
X31429Y36220I1901J1901D01*
G01*
X29528Y37008D02*
G03*
X25726Y38583I-3802J-3802D01*
G01*
X37193Y30133D02*
G03*
X36378Y28165I1968J-1968D01*
G01*
X38331Y29600D02*
G03*
X37559Y27736I1867J-1864D01*
G01*
X41052Y33992D02*
G03*
X41772Y35728I-1736J1736D01*
G01*
X41892Y33162D02*
G03*
X42953Y35721I-2560J2560D01*
G01*
X33000Y27819D02*
G03*
X32047Y26866I0J-953D01*
G01*
X36032Y27819D02*
G03*
X35984Y27704I116J-115D01*
G01*
X37000Y19819D02*
G03*
X38000Y20819I0J1000D01*
G01*
X34016Y20803D02*
G03*
X35000Y19819I984J0D01*
G01*
X22626Y39972D02*
G03*
X24016Y38583I1390J0D01*
G01*
X60027Y17680D02*
G03*
X62707Y15000I2680J0D01*
G01*
X60027Y23226D02*
G03*
X58793Y26207I-4215J-0D01*
G01*
X32931Y61671D02*
G03*
X33071Y61811I0J140D01*
G01*
X32038Y67953D02*
G03*
X30709Y68504I-1329J-1329D01*
G01*
X20192Y61304D02*
G03*
X23720Y59842I3528J3528D01*
G01*
X36600Y58363D02*
G03*
X33979Y59449I-2621J-2621D01*
G01*
X27844Y60734D02*
G03*
X29129Y59449I1285J0D01*
G01*
X27013Y62416D02*
G03*
X23720Y63779I-3292J-3292D01*
G01*
X27844Y60734D02*
G03*
X27242Y62186I-2053J0D01*
G01*
X36600Y58363D02*
G03*
X37017Y57354I1428J-0D01*
G01*
X52006Y32994D02*
G03*
X45669Y35619I-6337J-6337D01*
G01*
X44724Y36564D02*
G03*
X45669Y35619I945J0D01*
G01*
X30709Y51181D02*
G03*
X31659Y50787I950J950D01*
G01*
X29921Y53082D02*
G03*
X30709Y51181I2688J0D01*
G01*
X45400Y66800D02*
G03*
X46156Y64976I2580J0D01*
G01*
X28758Y41339D02*
G03*
X26935Y40583I0J-2579D01*
G01*
X38425Y55339D02*
G03*
X37995Y56376I-1467J0D01*
G01*
X40777Y19746D02*
G03*
X41890Y22432I-2687J2687D01*
G01*
X40122Y19091D02*
G03*
X39500Y17589I1502J-1502D01*
G01*
Y15061D02*
G03*
X41243Y13319I1743J0D01*
G01*
X28262D02*
G03*
X30079Y15135I0J1817D01*
G01*
X61500Y25500D02*
G03*
X62707Y25000I1207J1207D01*
G01*
X59000Y31536D02*
G03*
X61500Y25500I8535J0D01*
G01*
X59000Y31858D02*
G03*
X56071Y38929I-10000J0D01*
G01*
X34606Y34057D02*
X36002D01*
X38425Y36480D02*
Y38287D01*
X24016Y38583D02*
X25726D01*
X33160Y35504D02*
X34606Y34057D01*
X38331Y29600D02*
X41892Y33162D01*
X37193Y30133D02*
X41052Y33992D01*
X36032Y27819D02*
X36378Y28165D01*
X36032Y27819D02*
X36032Y27819D01*
X33000D02*
X36032D01*
X35984Y23848D02*
Y27704D01*
X32047Y23848D02*
Y26866D01*
X38000Y20819D02*
Y23848D01*
X37559Y26971D02*
Y27736D01*
X35000Y19819D02*
X37000D01*
X34016Y20803D02*
Y23848D01*
X41772Y35728D02*
Y38091D01*
X41575Y38287D02*
X41772Y38091D01*
X37657Y24144D02*
X37953Y23848D01*
X38000D01*
X37657Y24144D02*
Y26873D01*
X37559Y26971D02*
X37657Y26873D01*
X42953Y38091D02*
X43150Y38287D01*
X42953Y35721D02*
Y38091D01*
X22626Y39972D02*
Y43016D01*
X29921Y53082D02*
Y54724D01*
X62707Y15000D02*
X68900D01*
X60027Y23226D02*
Y23226D01*
Y17680D02*
Y23226D01*
X46632Y64500D02*
X46700Y64432D01*
X32038Y67953D02*
X33327Y66665D01*
X18504Y62992D02*
X20192Y61304D01*
X29909Y61671D02*
X32931D01*
X29129Y59449D02*
X33979D01*
X27013Y62416D02*
X27242Y62186D01*
X55000Y30000D02*
X58793Y26207D01*
X52006Y32994D02*
X55000Y30000D01*
X44724Y36564D02*
Y38287D01*
X31659Y50787D02*
X32224D01*
X37067Y70405D02*
X43905D01*
X36673Y70011D02*
X37067Y70405D01*
X43905Y69898D02*
Y70405D01*
X28758Y41339D02*
X32224D01*
X37017Y57354D02*
X37995Y56376D01*
X38425Y53839D02*
Y55339D01*
X45400Y66800D02*
Y69898D01*
X31324Y38287D02*
X35276D01*
X41890Y22432D02*
Y23848D01*
X30079Y15135D02*
Y23848D01*
X40122Y19091D02*
X40777Y19746D01*
X39500Y15061D02*
Y17589D01*
X41243Y13319D02*
X56532D01*
X57000Y13787D01*
X13468Y13319D02*
X28262D01*
X13000Y13787D02*
X13468Y13319D01*
X43905Y69898D02*
X45400D01*
X46156Y64976D02*
X46632Y64500D01*
X62707Y25000D02*
X68900D01*
X59000Y31536D02*
Y31858D01*
D13*
X50142Y66323D02*
G03*
X49460Y67969I-2328J0D01*
G01*
X50142Y64926D02*
G03*
X50568Y64500I426J0D01*
G01*
X36850Y41717D02*
G03*
X36500Y42563I-1196J0D01*
G01*
X36850Y37205D02*
Y41717D01*
X50142Y64926D02*
Y66323D01*
X57000Y3819D02*
Y9850D01*
X55000Y3819D02*
X57000D01*
X13000Y4819D02*
Y9850D01*
Y4819D02*
X14500D01*
X48531Y68898D02*
X49460Y67969D01*
X48531Y68898D02*
Y71598D01*
X1015362Y-367366D02*
Y-327996D01*
X857882Y-288626D02*
X1133472D01*
X857882Y-327996D02*
X1133472D01*
X661031Y-367366D02*
X1133472D01*
X661031Y-249256D02*
X1133472D01*
X661031Y-406736D02*
Y-249256D01*
X857882Y-406736D02*
Y-249256D01*
X-520071Y762555D02*
X1133472D01*
Y-406736D02*
Y762555D01*
X-520071Y-406736D02*
Y762555D01*
Y-406736D02*
X1133472D01*
X867724Y-392959D02*
Y-398862D01*
X871660D01*
X873628D02*
Y-394927D01*
X875596Y-392959D01*
X877563Y-394927D01*
Y-398862D01*
Y-395911D01*
X873628D01*
X879531Y-398862D02*
Y-392959D01*
X883467Y-398862D01*
Y-392959D01*
X885435Y-398862D02*
Y-394927D01*
X887403Y-392959D01*
X889371Y-394927D01*
Y-398862D01*
Y-395911D01*
X885435D01*
X891339Y-399846D02*
X895274D01*
X897242Y-392959D02*
X901178D01*
X899210D01*
Y-398862D01*
X903146D02*
Y-392959D01*
X907081Y-398862D01*
Y-392959D01*
X909049D02*
Y-393943D01*
X911017Y-395911D01*
X912985Y-393943D01*
Y-392959D01*
X911017Y-395911D02*
Y-398862D01*
X914953Y-399846D02*
X918889D01*
X920856Y-393943D02*
X921840Y-392959D01*
X923808D01*
X924792Y-393943D01*
Y-397878D01*
X923808Y-398862D01*
X921840D01*
X920856Y-397878D01*
Y-393943D01*
X926760Y-398862D02*
X928728D01*
X927744D01*
Y-392959D01*
X926760Y-393943D01*
X931680Y-398862D02*
Y-397878D01*
X932664D01*
Y-398862D01*
X931680D01*
X936599D02*
Y-392959D01*
X939551D01*
X940535Y-393943D01*
Y-395911D01*
X939551Y-396895D01*
X936599D01*
X946439Y-394927D02*
X943487D01*
X942503Y-395911D01*
Y-397878D01*
X943487Y-398862D01*
X946439D01*
X948407Y-392959D02*
Y-398862D01*
X951358D01*
X952342Y-397878D01*
Y-396895D01*
Y-395911D01*
X951358Y-394927D01*
X948407D01*
X954310Y-392959D02*
Y-398862D01*
X957262D01*
X958246Y-397878D01*
Y-393943D01*
X957262Y-392959D01*
X954310D01*
X961198Y-398862D02*
X963166D01*
X964150Y-397878D01*
Y-395911D01*
X963166Y-394927D01*
X961198D01*
X960214Y-395911D01*
Y-397878D01*
X961198Y-398862D01*
X970053Y-394927D02*
X967101D01*
X966117Y-395911D01*
Y-397878D01*
X967101Y-398862D01*
X970053D01*
D16*
X873628Y-322091D02*
X867724Y-316187D01*
X873628Y-310283D01*
X879531Y-322091D02*
Y-310283D01*
X885435D01*
X887403Y-312251D01*
Y-316187D01*
X885435Y-318155D01*
X879531D01*
X891339Y-322091D02*
Y-314219D01*
X895274Y-310283D01*
X899210Y-314219D01*
Y-322091D01*
Y-316187D01*
X891339D01*
X903146Y-322091D02*
Y-310283D01*
X911017Y-322091D01*
Y-310283D01*
X922824D02*
X914953D01*
Y-322091D01*
X922824D01*
X914953Y-316187D02*
X918889D01*
X926760Y-310283D02*
Y-322091D01*
X934632D01*
X938567D02*
X944471Y-316187D01*
X938567Y-310283D01*
X682685Y-385088D02*
Y-400831D01*
X687932Y-395583D01*
X693180Y-400831D01*
Y-385088D01*
X698428Y-400831D02*
X703675D01*
X701052D01*
Y-390336D01*
X698428D01*
X711547Y-400831D02*
Y-390336D01*
X714171D01*
X716794Y-392959D01*
Y-400831D01*
Y-392959D01*
X719418Y-390336D01*
X722042Y-392959D01*
Y-400831D01*
X727290Y-385088D02*
Y-395583D01*
X732537Y-400831D01*
X737785Y-395583D01*
Y-385088D01*
X753528Y-387712D02*
X750904Y-385088D01*
X745656D01*
X743033Y-387712D01*
Y-398207D01*
X745656Y-400831D01*
X750904D01*
X753528Y-398207D01*
Y-392959D01*
X748280D01*
X1037015Y-348342D02*
X1039639Y-345718D01*
X1044887D01*
X1047511Y-348342D01*
Y-358837D01*
X1044887Y-361461D01*
X1039639D01*
X1037015Y-358837D01*
Y-348342D01*
X1052758Y-361461D02*
X1058006D01*
X1055382D01*
Y-345718D01*
X1052758Y-348342D01*
X873630Y-361461D02*
X878221D01*
X875925D01*
Y-347686D01*
X873630Y-349982D01*
X894292Y-361461D02*
X885109D01*
X894292Y-352277D01*
Y-349982D01*
X891996Y-347686D01*
X887405D01*
X885109Y-349982D01*
X898884Y-361461D02*
X908067Y-352277D01*
X912659Y-361461D02*
X917251D01*
X914955D01*
Y-347686D01*
X912659Y-349982D01*
X924138Y-361461D02*
X928730D01*
X926434D01*
Y-347686D01*
X924138Y-349982D01*
X935617Y-361461D02*
X944801Y-352277D01*
X958576Y-361461D02*
X949393D01*
X958576Y-352277D01*
Y-349982D01*
X956280Y-347686D01*
X951688D01*
X949393Y-349982D01*
X963168D02*
X965464Y-347686D01*
X970055D01*
X972351Y-349982D01*
Y-359165D01*
X970055Y-361461D01*
X965464D01*
X963168Y-359165D01*
Y-349982D01*
X986126Y-361461D02*
X976943D01*
X986126Y-352277D01*
Y-349982D01*
X983830Y-347686D01*
X979239D01*
X976943Y-349982D01*
X990718D02*
X993014Y-347686D01*
X997605D01*
X999901Y-349982D01*
Y-352277D01*
X997605Y-354573D01*
X995310D01*
X997605D01*
X999901Y-356869D01*
Y-359165D01*
X997605Y-361461D01*
X993014D01*
X990718Y-359165D01*
X867724Y-270913D02*
Y-282721D01*
X875596D01*
X881499Y-274849D02*
X885435D01*
X887403Y-276817D01*
Y-282721D01*
X881499D01*
X879531Y-280753D01*
X881499Y-278785D01*
X887403D01*
X891339Y-282721D02*
Y-274849D01*
X897242D01*
X899210Y-276817D01*
Y-282721D01*
X905114Y-274849D02*
X909049D01*
X911017Y-276817D01*
Y-282721D01*
X905114D01*
X903146Y-280753D01*
X905114Y-278785D01*
X911017D01*
X926760Y-270913D02*
X934632D01*
X930696D01*
Y-282721D01*
X938567D02*
Y-274849D01*
X944471D01*
X946439Y-276817D01*
Y-282721D01*
X950375Y-274849D02*
Y-280753D01*
X952342Y-282721D01*
X958246D01*
Y-284688D01*
X956278Y-286656D01*
X954310D01*
X958246Y-282721D02*
Y-274849D01*
D17*
X24961Y23848D02*
D03*
X26142Y23848D02*
D03*
X28110Y23848D02*
D03*
X30079D02*
D03*
X32047Y23848D02*
D03*
X34016D02*
D03*
X35984D02*
D03*
X37953D02*
D03*
X39921Y23848D02*
D03*
X41890D02*
D03*
X43858D02*
D03*
X45039Y23848D02*
D03*
X48287Y23848D02*
D03*
X47106Y23848D02*
D03*
X22894Y23848D02*
D03*
X21713Y23848D02*
D03*
D18*
X54961Y20246D02*
D03*
X15039D02*
D03*
D19*
Y3789D02*
D03*
X54961D02*
D03*
D20*
X14173Y76772D02*
D03*
Y54724D02*
D03*
D21*
X23720Y59842D02*
D03*
Y63779D02*
D03*
Y67716D02*
D03*
Y71654D02*
D03*
D22*
X70000Y25000D02*
D03*
X35000Y80000D02*
D03*
X0Y55000D02*
D03*
X70000Y65000D02*
D03*
Y55000D02*
D03*
Y45000D02*
D03*
Y35000D02*
D03*
X0Y45000D02*
D03*
Y65000D02*
D03*
X-0Y75000D02*
D03*
X70000Y15000D02*
D03*
D23*
X22626Y43016D02*
D03*
X22626Y35535D02*
D03*
X13374D02*
D03*
Y39276D02*
D03*
Y43016D02*
D03*
D24*
X20201Y28957D02*
D03*
X11224D02*
D03*
D25*
X59554Y76000D02*
D03*
X41445D02*
D03*
D26*
X57095Y69898D02*
D03*
X43905D02*
D03*
D27*
X58661Y63779D02*
D03*
Y59842D02*
D03*
X13000Y13787D02*
D03*
Y9850D02*
D03*
X57000D02*
D03*
Y13787D02*
D03*
X54724Y59842D02*
D03*
Y63779D02*
D03*
D28*
X44724Y53839D02*
D03*
X43150D02*
D03*
X41575D02*
D03*
X40000D02*
D03*
X38425D02*
D03*
X36850D02*
D03*
X35276D02*
D03*
Y38287D02*
D03*
X36850D02*
D03*
X38425D02*
D03*
X40000D02*
D03*
X41575D02*
D03*
X43150D02*
D03*
X44724D02*
D03*
D29*
X32224Y50787D02*
D03*
Y49213D02*
D03*
Y47638D02*
D03*
Y46063D02*
D03*
Y44488D02*
D03*
Y42913D02*
D03*
Y41339D02*
D03*
X47776D02*
D03*
Y42913D02*
D03*
Y44488D02*
D03*
Y46063D02*
D03*
Y47638D02*
D03*
Y49213D02*
D03*
Y50787D02*
D03*
D30*
X40000Y46063D02*
D03*
D31*
X33327Y66665D02*
D03*
X36673D02*
D03*
Y70011D02*
D03*
X33327D02*
D03*
D32*
X37008Y61811D02*
D03*
X33071D02*
D03*
X34606Y34057D02*
D03*
X30669D02*
D03*
X46632Y64500D02*
D03*
X50568D02*
D03*
X11432Y47488D02*
D03*
X15369D02*
D03*
X23369D02*
D03*
X19432D02*
D03*
X48531Y68898D02*
D03*
X52469D02*
D03*
D57*
X29615Y35111D02*
G03*
X27463Y36002I-2153J-2153D01*
G01*
X9218Y33801D02*
G03*
X11224Y28957I6851J-0D01*
G01*
X11224Y28957D02*
G03*
X9484Y24756I4201J-4201D01*
G01*
X10275Y46529D02*
G03*
X9218Y43975I2554J-2554D01*
G01*
X19432Y47488D02*
G03*
X18000Y44032I3456J-3456D01*
G01*
X16032Y39276D02*
G03*
X18000Y41244I0J1969D01*
G01*
X6571Y11571D02*
G03*
X9484Y18081I-7071J7071D01*
G01*
X29615Y35111D02*
X30669Y34057D01*
X9484Y18081D02*
Y24756D01*
Y18081D02*
Y18081D01*
X10275Y46529D02*
X11333Y47587D01*
X9218Y35535D02*
Y43975D01*
Y33801D02*
Y35535D01*
X13374D01*
X18000Y43213D02*
Y44032D01*
X15369Y47488D02*
X19432D01*
X13374Y39276D02*
X16032D01*
X18000Y41244D02*
Y43213D01*
X12784Y43606D02*
X13374Y43016D01*
X11701Y43606D02*
X12784D01*
X11432Y47167D02*
X11701Y46898D01*
Y43606D02*
Y46898D01*
X5000Y10000D02*
X6571Y11571D01*
D58*
X38905Y33845D02*
G03*
X40000Y36489I-2645J2645D01*
G01*
X37794Y32735D02*
G03*
X37795Y32735I-2991J2993D01*
G01*
X34803Y31496D02*
G03*
X37794Y32735I0J4232D01*
G01*
X52186Y46850D02*
G03*
X58830Y49408I443J8758D01*
G01*
X65000Y54000D02*
G03*
X62306Y52884I0J-3809D01*
G01*
X52186Y46850D02*
G03*
X51236Y46457I0J-1344D01*
G01*
X51370Y48031D02*
G03*
X58441Y50960I0J10000D01*
G01*
X59632Y52151D02*
G03*
X61024Y55512I-3360J3360D01*
G01*
X50863Y48031D02*
G03*
X50387Y47835I0J-675D01*
G01*
X49912Y47638D02*
G03*
X50386Y47834I0J672D01*
G01*
X18110Y33858D02*
G03*
X23813Y31496I5703J5703D01*
G01*
X56169Y54988D02*
G03*
X56693Y56252I-1264J1264D01*
G01*
X57390Y61811D02*
G03*
X56693Y61114I0J-697D01*
G01*
X35276Y54732D02*
G03*
X34645Y55363I-631J0D01*
G01*
D02*
G03*
X33351Y54827I0J-1829D01*
G01*
X36850Y55413D02*
G03*
X35900Y56363I-950J0D01*
G01*
X35217Y56646D02*
G03*
X35900Y56363I683J683D01*
G01*
X35217Y56646D02*
G03*
X33821Y57224I-1396J-1396D01*
G01*
X35984Y63032D02*
G03*
X33847Y63917I-2137J-2137D01*
G01*
X28847Y64670D02*
G03*
X30665Y63917I1818J1818D01*
G01*
X36870Y62145D02*
G03*
X36869Y62147I-338J-334D01*
G01*
X37008Y61811D02*
G03*
X36870Y62145I-475J0D01*
G01*
X40000Y58047D02*
G03*
X39493Y59270I-1730J-0D01*
G01*
X49280Y57548D02*
G03*
X50394Y60236I-2688J2688D01*
G01*
X45465Y55497D02*
G03*
X44724Y54757I0J-741D01*
G01*
X46461Y55541D02*
G03*
X48141Y56408I-520J3067D01*
G01*
X45941Y55497D02*
G03*
X46461Y55541I0J3110D01*
G01*
X51061Y57258D02*
G03*
X51968Y59449I-2190J2190D01*
G01*
X50387Y47835D02*
G03*
X50386Y47834I476J-478D01*
G01*
X50285Y46063D02*
G03*
X51236Y46457I0J1344D01*
G01*
X28346Y68504D02*
G03*
X31478Y64961I3131J-388D01*
G01*
X28094Y65424D02*
G03*
X27311Y65748I-783J-783D01*
G01*
X41575Y60787D02*
G03*
X37402Y64961I-4173J0D01*
G01*
X53360Y55328D02*
G03*
X52362Y52920I2408J-2408D01*
G01*
X51181Y50787D02*
G03*
X52362Y51968I0J1181D01*
G01*
X51029Y49213D02*
G03*
X58661Y56845I0J7633D01*
G01*
X62300Y63481D02*
G03*
X65000Y70000I-6519J6519D01*
G01*
X59449Y61811D02*
G03*
X61465Y62646I0J2851D01*
G01*
X52661Y45669D02*
G03*
X52447Y45656I0J-1724D01*
G01*
D02*
G03*
X51442Y45164I214J-1711D01*
G01*
X49810Y44488D02*
G03*
X51442Y45164I0J2309D01*
G01*
X52294Y44053D02*
G03*
X51108Y43395I556J-2400D01*
G01*
X59042Y60000D02*
G03*
X58661Y59842I0J-538D01*
G01*
X50817Y61260D02*
G03*
X50394Y60236I1026J-1024D01*
G01*
X51993Y62466D02*
G03*
X52663Y64397I-2446J1931D01*
G01*
X51750Y62193D02*
G03*
X51993Y62466I-2204J2204D01*
G01*
X52858Y61797D02*
G03*
X51968Y59649I2148J-2148D01*
G01*
X52663Y68703D02*
G03*
X52469Y68898I-195J0D01*
G01*
X56094D02*
G03*
X57095Y69898I0J1000D01*
G01*
X9843Y72441D02*
G03*
X3417Y75103I-6426J-6426D01*
G01*
X9843Y72441D02*
G03*
X16496Y69685I6653J6653D01*
G01*
X28346Y68504D02*
G03*
X27165Y69685I-1181J0D01*
G01*
X29528Y50000D02*
G03*
X25660Y53867I-3867J0D01*
G01*
X43150Y61850D02*
G03*
X41674Y65412I-5037J0D01*
G01*
X41673Y65414D02*
G03*
X38651Y66665I-3022J-3024D01*
G01*
X41674Y65412D02*
G03*
X41673Y65414I-3023J-3023D01*
G01*
X59449Y38051D02*
G03*
X62500Y35000I3051J0D01*
G01*
X59449Y42913D02*
G03*
X58246Y44116I-1203J0D01*
G01*
X49946Y42913D02*
G03*
X51108Y43395I0J1643D01*
G01*
X52850Y44116D02*
G03*
X52294Y44053I0J-2464D01*
G01*
X29528Y50000D02*
G03*
X30315Y49213I787J0D01*
G01*
X21134Y55160D02*
G03*
X22427Y53867I1293J0D01*
G01*
X21134Y55178D02*
G03*
X19974Y57979I-3962J0D01*
G01*
X28606Y48712D02*
G03*
X24553Y52765I-4053J0D01*
G01*
X20079Y54724D02*
G03*
X18854Y57685I-4190J0D01*
G01*
X20079Y54724D02*
G03*
X22038Y52765I1959J0D01*
G01*
X18561Y57927D02*
G03*
X17449Y58268I-1111J-1642D01*
G01*
X18852Y57687D02*
G03*
X18561Y57927I-1402J-1402D01*
G01*
X18854Y57685D02*
G03*
X18852Y57687I-2965J-2960D01*
G01*
X28606Y48712D02*
G03*
X29680Y47638I1074J0D01*
G01*
X27559Y48077D02*
G03*
X24061Y51575I-3498J0D01*
G01*
X26378Y48031D02*
G03*
X25901Y49510I-2529J0D01*
G01*
X27559Y47638D02*
G03*
X29134Y46063I1575J0D01*
G01*
X25378Y48031D02*
G03*
X25093Y48920I-1529J0D01*
G01*
X25378Y45882D02*
G03*
X28346Y42913I2968J0D01*
G01*
X26378Y46457D02*
G03*
X28346Y44488I1969J0D01*
G01*
X25043Y48996D02*
G03*
X25093Y48920I858J514D01*
G01*
X25036Y49007D02*
G03*
X25043Y48996I864J503D01*
G01*
X25036Y49007D02*
G03*
X24061Y49561I-975J-582D01*
G01*
X25686Y49811D02*
G03*
X24061Y50561I-1625J-1386D01*
G01*
X25901Y49510D02*
G03*
X25686Y49811I-1839J-1085D01*
G01*
X10236Y58268D02*
G03*
X8892Y57711I0J-1901D01*
G01*
X4344Y55000D02*
G03*
X7479Y56298I0J4436D01*
G01*
X18482Y59471D02*
G03*
X11411Y62400I-7071J-7071D01*
G01*
X10003Y49561D02*
G03*
X8729Y48286I0J-1274D01*
G01*
X8317Y47294D02*
G03*
X8729Y48286I-993J993D01*
G01*
X7087Y46063D02*
G03*
X5000Y41026I5037J-5037D01*
G01*
X6354Y50561D02*
G03*
X5000Y50000I0J-1915D01*
G01*
X9898Y51639D02*
G03*
X10422Y51575I524J2090D01*
G01*
X8268Y53729D02*
G03*
X9898Y51639I2154J0D01*
G01*
X40000Y36489D02*
Y38287D01*
X37795Y32735D02*
X38905Y33845D01*
X37794Y32735D02*
X37795Y32735D01*
X23813Y31496D02*
X34803D01*
X58830Y49408D02*
X62306Y52884D01*
X58441Y50960D02*
X59632Y52151D01*
X50863Y48031D02*
X51370D01*
X56693Y56252D02*
Y61114D01*
X54724Y53543D02*
X56169Y54988D01*
X57390Y61811D02*
X59449D01*
X47776Y41339D02*
X55000D01*
Y40000D02*
Y41339D01*
X53360Y55328D02*
X54724Y56693D01*
X32109Y57224D02*
X33821D01*
X31979Y57355D02*
X32109Y57224D01*
X35276Y53839D02*
Y54732D01*
X33137Y54613D02*
X33351Y54827D01*
X35984Y63032D02*
X36869Y62147D01*
X30665Y63917D02*
X33847D01*
X28094Y65424D02*
X28847Y64670D01*
X28093Y65424D02*
X28094Y65424D01*
X37008Y61756D02*
X39493Y59270D01*
X37008Y61756D02*
Y61811D01*
X48141Y56408D02*
X49280Y57548D01*
X45465Y55497D02*
X45941D01*
X47371Y53569D02*
X51061Y57258D01*
X52469Y68898D02*
X56094D01*
X44724Y53839D02*
Y54757D01*
X47776Y47638D02*
X49912D01*
X47776Y46063D02*
X50285D01*
X31478Y64961D02*
X37402D01*
X1788Y65748D02*
X27311D01*
X1752Y65712D02*
X1788Y65748D01*
X40000Y53839D02*
Y58047D01*
X52362Y51968D02*
Y52920D01*
X47776Y50787D02*
X51181D01*
X58661Y56845D02*
Y59842D01*
X47776Y49213D02*
X51029D01*
X54724Y57087D02*
Y59842D01*
X61465Y62646D02*
X62300Y63481D01*
X52661Y45669D02*
X68421D01*
X54724Y56693D02*
Y57087D01*
X59042Y60000D02*
X65000D01*
X18898Y67716D02*
X23720D01*
X18898Y71654D02*
X23720D01*
X16496Y69685D02*
X27165D01*
X52663Y64397D02*
Y68703D01*
X50817Y61260D02*
X51750Y62193D01*
X51968Y59449D02*
Y59649D01*
X52858Y61797D02*
X54724Y63664D01*
Y63779D01*
X1464Y75103D02*
X3417D01*
X36850Y53839D02*
Y55413D01*
X36673Y66665D02*
X38651D01*
X33327Y70011D02*
X33966Y70650D01*
Y73410D01*
X35000Y74444D01*
Y75000D01*
X43150Y53839D02*
Y61850D01*
X68421Y45669D02*
X68445Y45646D01*
X47776Y44488D02*
X49810D01*
X62500Y35000D02*
X68500D01*
X59449Y38051D02*
Y42913D01*
X52850Y44116D02*
X58246D01*
X47776Y42913D02*
X49946D01*
X30315Y49213D02*
X32224D01*
X22427Y53867D02*
X25660D01*
X21134Y55160D02*
Y55178D01*
X18482Y59471D02*
X19974Y57979D01*
X22038Y52765D02*
X24553D01*
X10236Y58268D02*
X17449D01*
X29680Y47638D02*
X32224D01*
X27559Y47638D02*
Y48077D01*
X28346Y42913D02*
X30330D01*
X25378Y45882D02*
Y48031D01*
X26378Y46457D02*
Y48031D01*
X10003Y49561D02*
X24061D01*
X10422Y51575D02*
X24061D01*
X29134Y46063D02*
X32224D01*
X28346Y44488D02*
X32224D01*
X6354Y50561D02*
X24061D01*
X30330Y42913D02*
X32224D01*
X30330D02*
Y42913D01*
X41575Y53839D02*
Y60787D01*
X68000Y54000D02*
Y55000D01*
X65000Y54000D02*
X68000D01*
X7479Y56298D02*
X8892Y57711D01*
X1500Y55000D02*
X4344D01*
X10500Y62400D02*
X11411D01*
X7087Y46063D02*
X8317Y47294D01*
X5000Y40000D02*
Y41026D01*
X8268Y53729D02*
Y54331D01*
D59*
X36032Y27819D02*
D03*
D60*
X25558Y26988D02*
G03*
X23589Y28957I-1969J0D01*
G01*
X25558Y23210D02*
Y26988D01*
X20201Y28957D02*
X23589D01*
X52500Y15485D02*
Y20246D01*
X17470Y3789D02*
X20500D01*
X15039D02*
X17470D01*
X17500Y15485D02*
Y20246D01*
X17470Y3789D02*
X17500Y3819D01*
X17470Y3789D02*
X17470Y3789D01*
X23382Y45299D02*
Y47488D01*
Y43016D02*
Y45299D01*
X22626Y43016D02*
X23382D01*
X15039Y3789D02*
X15039Y3789D01*
X54961D02*
X54961Y3789D01*
X49500D02*
X54961D01*
X15039Y20246D02*
X17500D01*
X52500D02*
X54961D01*
D61*
X23622Y18158D02*
D03*
X46378D02*
D03*
D62*
X45000Y31181D02*
D03*
D63*
X53847Y76000D02*
D03*
X47153D02*
D03*
X27463Y36002D02*
D03*
X31979Y57355D02*
D03*
X18504Y62992D02*
D03*
X29909Y61671D02*
D03*
X33137Y54613D02*
D03*
X29921Y54724D02*
D03*
X54724Y53543D02*
D03*
Y57087D02*
D03*
X45669Y57480D02*
D03*
X61024Y55512D02*
D03*
X18898Y67716D02*
D03*
Y71654D02*
D03*
X47371Y53569D02*
D03*
X30709Y68504D02*
D03*
X23382Y45299D02*
D03*
X26935Y40583D02*
D03*
X44000Y50063D02*
D03*
X36500D02*
D03*
X44000Y42563D02*
D03*
X36500D02*
D03*
X31300Y38263D02*
D03*
X18110Y33858D02*
D03*
X8268Y54331D02*
D03*
X10500Y62400D02*
D03*
X18000Y43213D02*
D03*
X48531Y71598D02*
D03*
X36600Y58363D02*
D03*
X42500Y16319D02*
D03*
X27500D02*
D03*
X17500Y15485D02*
D03*
X20500Y3789D02*
D03*
X49500D02*
D03*
X52500Y15485D02*
D03*
D64*
X65000Y10000D02*
D03*
Y20000D02*
D03*
Y30000D02*
D03*
Y40000D02*
D03*
Y50000D02*
D03*
Y70000D02*
D03*
Y60000D02*
D03*
X55000Y30000D02*
D03*
X5000Y10000D02*
D03*
Y20000D02*
D03*
Y30000D02*
D03*
Y40000D02*
D03*
Y50000D02*
D03*
Y70000D02*
D03*
Y60000D02*
D03*
X35000Y75000D02*
D03*
D65*
X55000Y40000D02*
D03*
D66*
X68750Y45000D02*
D03*
Y65000D02*
D03*
Y55000D02*
D03*
Y35000D02*
D03*
X1250Y45000D02*
D03*
Y55000D02*
D03*
Y75000D02*
D03*
X68750Y75000D02*
D03*
Y15000D02*
D03*
Y10000D02*
D03*
Y20000D02*
D03*
Y30000D02*
D03*
Y25000D02*
D03*
X1250Y60000D02*
D03*
Y65000D02*
D03*
Y50000D02*
D03*
Y70000D02*
D03*
Y40000D02*
D03*
X68750Y60000D02*
D03*
Y50000D02*
D03*
Y70000D02*
D03*
Y40000D02*
D03*
D67*
X35000Y77500D02*
D03*
D68*
X2500Y20000D02*
D03*
Y10000D02*
D03*
Y30000D02*
D03*
M02*
