G04*
G04 #@! TF.GenerationSoftware,Altium Limited,Altium Designer,23.8.1 (32)*
G04*
G04 Layer_Color=128*
%FSLAX25Y25*%
%MOIN*%
G70*
G04*
G04 #@! TF.SameCoordinates,792C4401-852F-49E4-8EEA-156BCAAEB04F*
G04*
G04*
G04 #@! TF.FilePolarity,Positive*
G04*
G01*
G75*
%ADD10C,0.00984*%
%ADD12C,0.00394*%
%ADD13C,0.00787*%
%ADD16C,0.01575*%
G36*
X-95415Y-279574D02*
X-97132D01*
Y-279860D01*
X-97991D01*
Y-280146D01*
X-98850D01*
Y-280433D01*
X-99709D01*
Y-280719D01*
X-100282D01*
Y-281005D01*
X-100568D01*
Y-281292D01*
X-101141D01*
Y-281578D01*
X-101427D01*
Y-281864D01*
X-102000D01*
Y-282151D01*
X-102286D01*
Y-282437D01*
X-102572D01*
Y-282723D01*
X-102859D01*
Y-283009D01*
X-103145D01*
Y-283296D01*
X-103431D01*
Y-283582D01*
X-103718D01*
Y-283868D01*
Y-284155D01*
X-104004D01*
Y-284441D01*
X-104290D01*
Y-284727D01*
Y-285014D01*
X-104577D01*
Y-285300D01*
X-104863D01*
Y-285586D01*
Y-285873D01*
X-105149D01*
Y-286159D01*
Y-286445D01*
Y-286732D01*
X-105436D01*
Y-287018D01*
Y-287304D01*
Y-287590D01*
X-105722D01*
Y-287877D01*
Y-288163D01*
Y-288449D01*
Y-288736D01*
X-106008D01*
Y-289022D01*
Y-289308D01*
Y-289595D01*
Y-289881D01*
Y-290167D01*
X-106295D01*
Y-290454D01*
Y-290740D01*
Y-291026D01*
Y-291313D01*
Y-291599D01*
Y-291885D01*
Y-292171D01*
Y-292458D01*
Y-292744D01*
Y-293030D01*
Y-293317D01*
Y-293603D01*
Y-293889D01*
Y-294176D01*
Y-294462D01*
Y-294748D01*
Y-295035D01*
Y-295321D01*
Y-295607D01*
Y-295894D01*
X-106008D01*
Y-296180D01*
Y-296466D01*
Y-296752D01*
Y-297039D01*
Y-297325D01*
Y-297611D01*
Y-297898D01*
X-105722D01*
Y-298184D01*
Y-298470D01*
Y-298757D01*
Y-299043D01*
Y-299329D01*
X-105436D01*
Y-299616D01*
Y-299902D01*
Y-300188D01*
Y-300475D01*
Y-300761D01*
X-105149D01*
Y-301047D01*
Y-301333D01*
Y-301620D01*
X-104863D01*
Y-301906D01*
Y-302192D01*
Y-302479D01*
Y-302765D01*
X-104577D01*
Y-303051D01*
Y-303338D01*
Y-303624D01*
X-104290D01*
Y-303910D01*
Y-304197D01*
X-104004D01*
Y-304483D01*
Y-304769D01*
Y-305055D01*
X-103718D01*
Y-305342D01*
Y-305628D01*
X-103431D01*
Y-305914D01*
Y-306201D01*
X-103145D01*
Y-306487D01*
Y-306773D01*
X-102859D01*
Y-307060D01*
X-102572D01*
Y-307346D01*
Y-307632D01*
X-102286D01*
Y-307919D01*
X-102000D01*
Y-308205D01*
X-101714D01*
Y-308491D01*
Y-308778D01*
X-101427D01*
Y-309064D01*
X-101141D01*
Y-309350D01*
X-100855D01*
Y-309636D01*
X-100568D01*
Y-309923D01*
X-100282D01*
Y-310209D01*
X-99709D01*
Y-310495D01*
X-99423D01*
Y-310782D01*
X-98850D01*
Y-311068D01*
X-98564D01*
Y-311354D01*
X-97991D01*
Y-311641D01*
X-97132D01*
Y-311927D01*
X-96273D01*
Y-312213D01*
X-95415D01*
Y-312500D01*
X-93697D01*
Y-312786D01*
X-88543D01*
Y-312500D01*
X-85966D01*
Y-312213D01*
X-83962D01*
Y-311927D01*
X-82530D01*
Y-311641D01*
X-81099D01*
Y-311354D01*
X-79667D01*
Y-311641D01*
Y-311927D01*
Y-312213D01*
Y-312500D01*
Y-312786D01*
Y-313072D01*
Y-313359D01*
X-79381D01*
Y-313645D01*
Y-313931D01*
Y-314217D01*
Y-314504D01*
Y-314790D01*
Y-315076D01*
X-79095D01*
Y-315363D01*
Y-315649D01*
Y-315935D01*
Y-316222D01*
Y-316508D01*
Y-316794D01*
X-78808D01*
Y-317081D01*
Y-317367D01*
Y-317653D01*
Y-317940D01*
Y-318226D01*
Y-318512D01*
Y-318798D01*
X-78522D01*
Y-319085D01*
Y-319371D01*
Y-319657D01*
Y-319944D01*
Y-320230D01*
Y-320516D01*
X-78236D01*
Y-320803D01*
Y-321089D01*
Y-321375D01*
Y-321662D01*
Y-321948D01*
Y-322234D01*
X-77950D01*
Y-322521D01*
Y-322807D01*
Y-323093D01*
Y-323379D01*
Y-323666D01*
Y-323952D01*
Y-324238D01*
X-77663D01*
Y-324525D01*
Y-324811D01*
Y-325097D01*
Y-325384D01*
Y-325670D01*
Y-325956D01*
X-77377D01*
Y-326243D01*
Y-326529D01*
Y-326815D01*
Y-327102D01*
Y-327388D01*
Y-327674D01*
X-77091D01*
Y-327960D01*
Y-328247D01*
Y-328533D01*
Y-328819D01*
Y-329106D01*
Y-329392D01*
Y-329678D01*
X-63634D01*
Y-329392D01*
X-63920D01*
Y-329106D01*
Y-328819D01*
Y-328533D01*
Y-328247D01*
Y-327960D01*
X-64206D01*
Y-327674D01*
Y-327388D01*
Y-327102D01*
Y-326815D01*
Y-326529D01*
Y-326243D01*
Y-325956D01*
X-64493D01*
Y-325670D01*
Y-325384D01*
Y-325097D01*
Y-324811D01*
Y-324525D01*
Y-324238D01*
X-64779D01*
Y-323952D01*
Y-323666D01*
Y-323379D01*
Y-323093D01*
Y-322807D01*
Y-322521D01*
X-65065D01*
Y-322234D01*
Y-321948D01*
Y-321662D01*
Y-321375D01*
Y-321089D01*
Y-320803D01*
Y-320516D01*
X-65352D01*
Y-320230D01*
Y-319944D01*
Y-319657D01*
Y-319371D01*
Y-319085D01*
Y-318798D01*
X-65638D01*
Y-318512D01*
Y-318226D01*
Y-317940D01*
Y-317653D01*
Y-317367D01*
Y-317081D01*
X-65924D01*
Y-316794D01*
Y-316508D01*
Y-316222D01*
Y-315935D01*
Y-315649D01*
Y-315363D01*
X-66211D01*
Y-315076D01*
Y-314790D01*
Y-314504D01*
Y-314217D01*
Y-313931D01*
Y-313645D01*
Y-313359D01*
X-66497D01*
Y-313072D01*
Y-312786D01*
Y-312500D01*
Y-312213D01*
Y-311927D01*
Y-311641D01*
X-66783D01*
Y-311354D01*
Y-311068D01*
Y-310782D01*
Y-310495D01*
Y-310209D01*
Y-309923D01*
X-67070D01*
Y-309636D01*
Y-309350D01*
Y-309064D01*
Y-308778D01*
Y-308491D01*
Y-308205D01*
X-67356D01*
Y-307919D01*
Y-307632D01*
Y-307346D01*
Y-307060D01*
Y-306773D01*
Y-306487D01*
Y-306201D01*
X-67642D01*
Y-305914D01*
Y-305628D01*
Y-305342D01*
Y-305055D01*
Y-304769D01*
Y-304483D01*
X-67928D01*
Y-304197D01*
Y-303910D01*
Y-303624D01*
Y-303338D01*
Y-303051D01*
Y-302765D01*
X-68215D01*
Y-302479D01*
Y-302192D01*
Y-301906D01*
Y-301620D01*
Y-301333D01*
Y-301047D01*
Y-300761D01*
X-68501D01*
Y-300475D01*
Y-300188D01*
Y-299902D01*
Y-299616D01*
Y-299329D01*
Y-299043D01*
X-68787D01*
Y-298757D01*
Y-298470D01*
Y-298184D01*
Y-297898D01*
Y-297611D01*
Y-297325D01*
X-69074D01*
Y-297039D01*
Y-296752D01*
Y-296466D01*
Y-296180D01*
Y-295894D01*
Y-295607D01*
X-69360D01*
Y-295321D01*
Y-295035D01*
Y-294748D01*
Y-294462D01*
Y-294176D01*
Y-293889D01*
Y-293603D01*
X-69646D01*
Y-293317D01*
Y-293030D01*
Y-292744D01*
Y-292458D01*
Y-292171D01*
Y-291885D01*
X-69933D01*
Y-291599D01*
Y-291313D01*
Y-291026D01*
Y-290740D01*
Y-290454D01*
Y-290167D01*
X-70219D01*
Y-289881D01*
Y-289595D01*
Y-289308D01*
Y-289022D01*
Y-288736D01*
Y-288449D01*
Y-288163D01*
X-70505D01*
Y-287877D01*
Y-287590D01*
Y-287304D01*
Y-287018D01*
Y-286732D01*
Y-286445D01*
X-70792D01*
Y-286159D01*
Y-285873D01*
Y-285586D01*
Y-285300D01*
Y-285014D01*
Y-284727D01*
X-71078D01*
Y-284441D01*
Y-284155D01*
Y-283868D01*
Y-283582D01*
Y-283296D01*
Y-283009D01*
Y-282723D01*
X-71364D01*
Y-282437D01*
Y-282151D01*
Y-281864D01*
Y-281578D01*
Y-281292D01*
Y-281005D01*
X-71651D01*
Y-280719D01*
Y-280433D01*
Y-280146D01*
Y-279860D01*
Y-279574D01*
Y-279287D01*
X-95415D01*
Y-279574D01*
D02*
G37*
G36*
X-126623Y-276138D02*
Y-276424D01*
X-126336D01*
Y-276711D01*
Y-276997D01*
Y-277283D01*
Y-277570D01*
Y-277856D01*
Y-278142D01*
X-126050D01*
Y-278428D01*
Y-278715D01*
Y-279001D01*
Y-279287D01*
Y-279574D01*
Y-279860D01*
X-125764D01*
Y-280146D01*
Y-280433D01*
Y-280719D01*
Y-281005D01*
Y-281292D01*
Y-281578D01*
Y-281864D01*
X-125477D01*
Y-282151D01*
Y-282437D01*
Y-282723D01*
Y-283009D01*
Y-283296D01*
Y-283582D01*
X-125191D01*
Y-283868D01*
Y-284155D01*
Y-284441D01*
Y-284727D01*
Y-285014D01*
Y-285300D01*
X-124905D01*
Y-285586D01*
Y-285873D01*
Y-286159D01*
Y-286445D01*
Y-286732D01*
Y-287018D01*
Y-287304D01*
X-124618D01*
Y-287590D01*
Y-287877D01*
Y-288163D01*
Y-288449D01*
Y-288736D01*
Y-289022D01*
X-124332D01*
Y-289308D01*
Y-289595D01*
Y-289881D01*
Y-290167D01*
Y-290454D01*
Y-290740D01*
X-124046D01*
Y-291026D01*
Y-291313D01*
Y-291599D01*
Y-291885D01*
Y-292171D01*
Y-292458D01*
X-123759D01*
Y-292744D01*
Y-293030D01*
Y-293317D01*
Y-293603D01*
Y-293889D01*
Y-294176D01*
Y-294462D01*
X-123473D01*
Y-294748D01*
Y-295035D01*
Y-295321D01*
Y-295607D01*
Y-295894D01*
Y-296180D01*
X-123187D01*
Y-296466D01*
Y-296752D01*
X-123759D01*
Y-296466D01*
X-124046D01*
Y-296180D01*
X-124332D01*
Y-295894D01*
X-124905D01*
Y-295607D01*
X-125191D01*
Y-295321D01*
X-125477D01*
Y-295035D01*
X-126050D01*
Y-294748D01*
X-126623D01*
Y-294462D01*
X-126909D01*
Y-294176D01*
X-127482D01*
Y-293889D01*
X-128341D01*
Y-293603D01*
X-128913D01*
Y-293317D01*
X-129772D01*
Y-293030D01*
X-131204D01*
Y-292744D01*
X-137503D01*
Y-293030D01*
X-138648D01*
Y-293317D01*
X-139507D01*
Y-293603D01*
X-140079D01*
Y-293889D01*
X-140366D01*
Y-294176D01*
X-140938D01*
Y-294462D01*
X-141225D01*
Y-294748D01*
X-141511D01*
Y-295035D01*
X-141797D01*
Y-295321D01*
X-142084D01*
Y-295607D01*
Y-295894D01*
X-142370D01*
Y-296180D01*
Y-296466D01*
X-142656D01*
Y-296752D01*
Y-297039D01*
Y-297325D01*
X-142943D01*
Y-297611D01*
Y-297898D01*
Y-298184D01*
Y-298470D01*
X-143229D01*
Y-298757D01*
Y-299043D01*
Y-299329D01*
Y-299616D01*
Y-299902D01*
Y-300188D01*
Y-300475D01*
Y-300761D01*
Y-301047D01*
Y-301333D01*
Y-301620D01*
Y-301906D01*
Y-302192D01*
Y-302479D01*
Y-302765D01*
Y-303051D01*
Y-303338D01*
Y-303624D01*
X-142943D01*
Y-303910D01*
Y-304197D01*
Y-304483D01*
Y-304769D01*
Y-305055D01*
Y-305342D01*
Y-305628D01*
X-142656D01*
Y-305914D01*
Y-306201D01*
Y-306487D01*
Y-306773D01*
Y-307060D01*
Y-307346D01*
Y-307632D01*
X-142370D01*
Y-307919D01*
Y-308205D01*
Y-308491D01*
Y-308778D01*
Y-309064D01*
Y-309350D01*
X-142084D01*
Y-309636D01*
Y-309923D01*
Y-310209D01*
Y-310495D01*
Y-310782D01*
Y-311068D01*
X-141797D01*
Y-311354D01*
Y-311641D01*
Y-311927D01*
Y-312213D01*
Y-312500D01*
Y-312786D01*
X-141511D01*
Y-313072D01*
Y-313359D01*
Y-313645D01*
Y-313931D01*
Y-314217D01*
Y-314504D01*
Y-314790D01*
X-141225D01*
Y-315076D01*
Y-315363D01*
Y-315649D01*
Y-315935D01*
Y-316222D01*
Y-316508D01*
X-140938D01*
Y-316794D01*
Y-317081D01*
Y-317367D01*
Y-317653D01*
Y-317940D01*
Y-318226D01*
X-140652D01*
Y-318512D01*
Y-318798D01*
Y-319085D01*
Y-319371D01*
Y-319657D01*
Y-319944D01*
Y-320230D01*
X-140366D01*
Y-320516D01*
Y-320803D01*
Y-321089D01*
Y-321375D01*
Y-321662D01*
Y-321948D01*
X-140079D01*
Y-322234D01*
Y-322521D01*
Y-322807D01*
Y-323093D01*
Y-323379D01*
Y-323666D01*
X-139793D01*
Y-323952D01*
Y-324238D01*
Y-324525D01*
Y-324811D01*
Y-325097D01*
Y-325384D01*
X-139507D01*
Y-325670D01*
Y-325956D01*
Y-326243D01*
Y-326529D01*
Y-326815D01*
Y-327102D01*
Y-327388D01*
X-139220D01*
Y-327674D01*
Y-327960D01*
Y-328247D01*
Y-328533D01*
Y-328819D01*
Y-329106D01*
X-138934D01*
Y-329392D01*
Y-329678D01*
X-125764D01*
Y-329392D01*
Y-329106D01*
X-126050D01*
Y-328819D01*
Y-328533D01*
Y-328247D01*
Y-327960D01*
Y-327674D01*
Y-327388D01*
X-126336D01*
Y-327102D01*
Y-326815D01*
Y-326529D01*
Y-326243D01*
Y-325956D01*
Y-325670D01*
Y-325384D01*
X-126623D01*
Y-325097D01*
Y-324811D01*
Y-324525D01*
Y-324238D01*
Y-323952D01*
Y-323666D01*
X-126909D01*
Y-323379D01*
Y-323093D01*
Y-322807D01*
Y-322521D01*
Y-322234D01*
Y-321948D01*
X-127195D01*
Y-321662D01*
Y-321375D01*
Y-321089D01*
Y-320803D01*
Y-320516D01*
Y-320230D01*
Y-319944D01*
X-127482D01*
Y-319657D01*
Y-319371D01*
Y-319085D01*
Y-318798D01*
Y-318512D01*
Y-318226D01*
X-127768D01*
Y-317940D01*
Y-317653D01*
Y-317367D01*
Y-317081D01*
Y-316794D01*
Y-316508D01*
Y-316222D01*
X-128054D01*
Y-315935D01*
Y-315649D01*
Y-315363D01*
Y-315076D01*
Y-314790D01*
Y-314504D01*
X-128341D01*
Y-314217D01*
Y-313931D01*
Y-313645D01*
Y-313359D01*
Y-313072D01*
Y-312786D01*
X-128627D01*
Y-312500D01*
Y-312213D01*
Y-311927D01*
Y-311641D01*
Y-311354D01*
Y-311068D01*
X-128913D01*
Y-310782D01*
Y-310495D01*
Y-310209D01*
Y-309923D01*
Y-309636D01*
Y-309350D01*
Y-309064D01*
X-129200D01*
Y-308778D01*
Y-308491D01*
Y-308205D01*
Y-307919D01*
Y-307632D01*
Y-307346D01*
X-129486D01*
Y-307060D01*
Y-306773D01*
Y-306487D01*
Y-306201D01*
Y-305914D01*
Y-305628D01*
Y-305342D01*
X-129772D01*
Y-305055D01*
Y-304769D01*
Y-304483D01*
Y-304197D01*
Y-303910D01*
Y-303624D01*
X-129486D01*
Y-303338D01*
Y-303051D01*
X-129200D01*
Y-302765D01*
X-128913D01*
Y-302479D01*
X-128341D01*
Y-302192D01*
X-126623D01*
Y-302479D01*
X-125191D01*
Y-302765D01*
X-124332D01*
Y-303051D01*
X-123759D01*
Y-303338D01*
X-123473D01*
Y-303624D01*
X-122901D01*
Y-303910D01*
X-122614D01*
Y-304197D01*
X-122328D01*
Y-304483D01*
Y-304769D01*
X-122042D01*
Y-305055D01*
Y-305342D01*
Y-305628D01*
X-121755D01*
Y-305914D01*
Y-306201D01*
Y-306487D01*
Y-306773D01*
Y-307060D01*
Y-307346D01*
X-121469D01*
Y-307632D01*
Y-307919D01*
Y-308205D01*
Y-308491D01*
Y-308778D01*
Y-309064D01*
Y-309350D01*
X-121183D01*
Y-309636D01*
Y-309923D01*
Y-310209D01*
Y-310495D01*
Y-310782D01*
Y-311068D01*
X-120896D01*
Y-311354D01*
Y-311641D01*
Y-311927D01*
Y-312213D01*
Y-312500D01*
Y-312786D01*
X-120610D01*
Y-313072D01*
Y-313359D01*
Y-313645D01*
Y-313931D01*
Y-314217D01*
Y-314504D01*
X-120324D01*
Y-314790D01*
Y-315076D01*
Y-315363D01*
Y-315649D01*
Y-315935D01*
Y-316222D01*
Y-316508D01*
X-120037D01*
Y-316794D01*
Y-317081D01*
Y-317367D01*
Y-317653D01*
Y-317940D01*
Y-318226D01*
X-119751D01*
Y-318512D01*
Y-318798D01*
Y-319085D01*
Y-319371D01*
Y-319657D01*
Y-319944D01*
X-119465D01*
Y-320230D01*
Y-320516D01*
Y-320803D01*
Y-321089D01*
Y-321375D01*
Y-321662D01*
Y-321948D01*
X-119178D01*
Y-322234D01*
Y-322521D01*
Y-322807D01*
Y-323093D01*
Y-323379D01*
Y-323666D01*
X-118892D01*
Y-323952D01*
Y-324238D01*
Y-324525D01*
Y-324811D01*
Y-325097D01*
Y-325384D01*
X-118606D01*
Y-325670D01*
Y-325956D01*
Y-326243D01*
Y-326529D01*
Y-326815D01*
Y-327102D01*
X-118320D01*
Y-327388D01*
Y-327674D01*
Y-327960D01*
Y-328247D01*
Y-328533D01*
Y-328819D01*
Y-329106D01*
X-118033D01*
Y-329392D01*
Y-329678D01*
X-104863D01*
Y-329392D01*
Y-329106D01*
X-105149D01*
Y-328819D01*
Y-328533D01*
Y-328247D01*
Y-327960D01*
Y-327674D01*
Y-327388D01*
Y-327102D01*
X-105436D01*
Y-326815D01*
Y-326529D01*
Y-326243D01*
Y-325956D01*
Y-325670D01*
Y-325384D01*
X-105722D01*
Y-325097D01*
Y-324811D01*
Y-324525D01*
Y-324238D01*
Y-323952D01*
Y-323666D01*
X-106008D01*
Y-323379D01*
Y-323093D01*
Y-322807D01*
Y-322521D01*
Y-322234D01*
Y-321948D01*
Y-321662D01*
X-106295D01*
Y-321375D01*
Y-321089D01*
Y-320803D01*
Y-320516D01*
Y-320230D01*
Y-319944D01*
X-106581D01*
Y-319657D01*
Y-319371D01*
Y-319085D01*
Y-318798D01*
Y-318512D01*
Y-318226D01*
X-106867D01*
Y-317940D01*
Y-317653D01*
Y-317367D01*
Y-317081D01*
Y-316794D01*
Y-316508D01*
X-107153D01*
Y-316222D01*
Y-315935D01*
Y-315649D01*
Y-315363D01*
Y-315076D01*
Y-314790D01*
Y-314504D01*
X-107440D01*
Y-314217D01*
Y-313931D01*
Y-313645D01*
Y-313359D01*
Y-313072D01*
Y-312786D01*
X-107726D01*
Y-312500D01*
Y-312213D01*
Y-311927D01*
Y-311641D01*
Y-311354D01*
Y-311068D01*
X-108012D01*
Y-310782D01*
Y-310495D01*
Y-310209D01*
Y-309923D01*
Y-309636D01*
Y-309350D01*
Y-309064D01*
X-108299D01*
Y-308778D01*
Y-308491D01*
Y-308205D01*
Y-307919D01*
Y-307632D01*
Y-307346D01*
X-108585D01*
Y-307060D01*
Y-306773D01*
Y-306487D01*
Y-306201D01*
Y-305914D01*
Y-305628D01*
X-108871D01*
Y-305342D01*
Y-305055D01*
Y-304769D01*
Y-304483D01*
Y-304197D01*
Y-303910D01*
X-109158D01*
Y-303624D01*
Y-303338D01*
Y-303051D01*
Y-302765D01*
Y-302479D01*
Y-302192D01*
Y-301906D01*
X-109444D01*
Y-301620D01*
Y-301333D01*
Y-301047D01*
Y-300761D01*
Y-300475D01*
Y-300188D01*
X-109730D01*
Y-299902D01*
Y-299616D01*
Y-299329D01*
Y-299043D01*
Y-298757D01*
Y-298470D01*
X-110017D01*
Y-298184D01*
Y-297898D01*
Y-297611D01*
Y-297325D01*
Y-297039D01*
Y-296752D01*
X-110303D01*
Y-296466D01*
Y-296180D01*
Y-295894D01*
Y-295607D01*
Y-295321D01*
Y-295035D01*
Y-294748D01*
X-110589D01*
Y-294462D01*
Y-294176D01*
Y-293889D01*
Y-293603D01*
Y-293317D01*
Y-293030D01*
X-110875D01*
Y-292744D01*
Y-292458D01*
Y-292171D01*
Y-291885D01*
Y-291599D01*
Y-291313D01*
X-111162D01*
Y-291026D01*
Y-290740D01*
Y-290454D01*
Y-290167D01*
Y-289881D01*
Y-289595D01*
Y-289308D01*
X-111448D01*
Y-289022D01*
Y-288736D01*
Y-288449D01*
Y-288163D01*
Y-287877D01*
Y-287590D01*
X-111734D01*
Y-287304D01*
Y-287018D01*
Y-286732D01*
Y-286445D01*
Y-286159D01*
Y-285873D01*
X-112021D01*
Y-285586D01*
Y-285300D01*
Y-285014D01*
Y-284727D01*
Y-284441D01*
Y-284155D01*
X-112307D01*
Y-283868D01*
Y-283582D01*
Y-283296D01*
Y-283009D01*
Y-282723D01*
Y-282437D01*
Y-282151D01*
X-112593D01*
Y-281864D01*
Y-281578D01*
Y-281292D01*
Y-281005D01*
Y-280719D01*
Y-280433D01*
X-112880D01*
Y-280146D01*
Y-279860D01*
Y-279574D01*
Y-279287D01*
Y-279001D01*
Y-278715D01*
X-113166D01*
Y-278428D01*
Y-278142D01*
Y-277856D01*
Y-277570D01*
Y-277283D01*
Y-276997D01*
Y-276711D01*
X-113452D01*
Y-276424D01*
Y-276138D01*
Y-275852D01*
X-126623D01*
Y-276138D01*
D02*
G37*
G36*
X-228550Y-293603D02*
X-228264D01*
Y-293889D01*
X-227977D01*
Y-294176D01*
Y-294462D01*
X-227691D01*
Y-294748D01*
X-227405D01*
Y-295035D01*
X-227118D01*
Y-295321D01*
Y-295607D01*
X-226832D01*
Y-295894D01*
X-226546D01*
Y-296180D01*
X-226259D01*
Y-296466D01*
X-225973D01*
Y-296752D01*
Y-297039D01*
X-225687D01*
Y-297325D01*
X-225401D01*
Y-297611D01*
X-225114D01*
Y-297898D01*
Y-298184D01*
X-224828D01*
Y-298470D01*
X-224542D01*
Y-298757D01*
X-224255D01*
Y-299043D01*
X-223969D01*
Y-299329D01*
Y-299616D01*
X-223683D01*
Y-299902D01*
X-223396D01*
Y-300188D01*
X-223110D01*
Y-300475D01*
Y-300761D01*
X-222824D01*
Y-301047D01*
X-222537D01*
Y-301333D01*
X-222251D01*
Y-301620D01*
Y-301906D01*
X-221965D01*
Y-302192D01*
X-221678D01*
Y-302479D01*
X-221392D01*
Y-302765D01*
X-221106D01*
Y-303051D01*
Y-303338D01*
X-220820D01*
Y-303624D01*
X-220533D01*
Y-303910D01*
X-220247D01*
Y-304197D01*
Y-304483D01*
X-219961D01*
Y-304769D01*
X-219674D01*
Y-305055D01*
X-219388D01*
Y-305342D01*
Y-305628D01*
X-219102D01*
Y-305914D01*
X-218815D01*
Y-306201D01*
X-218529D01*
Y-306487D01*
X-218243D01*
Y-306773D01*
Y-307060D01*
X-217956D01*
Y-307346D01*
X-217670D01*
Y-307632D01*
X-217384D01*
Y-307919D01*
Y-308205D01*
X-217097D01*
Y-308491D01*
X-216811D01*
Y-308778D01*
X-216525D01*
Y-309064D01*
Y-309350D01*
X-216239D01*
Y-309636D01*
X-215952D01*
Y-309923D01*
X-215666D01*
Y-310209D01*
X-215380D01*
Y-310495D01*
Y-310782D01*
X-215093D01*
Y-311068D01*
X-214807D01*
Y-311354D01*
X-214521D01*
Y-311641D01*
Y-311927D01*
X-214234D01*
Y-312213D01*
X-213948D01*
Y-312500D01*
X-213662D01*
Y-312786D01*
X-213375D01*
Y-313072D01*
Y-313359D01*
X-213662D01*
Y-313645D01*
Y-313931D01*
X-213948D01*
Y-314217D01*
Y-314504D01*
X-214234D01*
Y-314790D01*
X-214521D01*
Y-315076D01*
Y-315363D01*
X-214807D01*
Y-315649D01*
Y-315935D01*
X-215093D01*
Y-316222D01*
Y-316508D01*
X-215380D01*
Y-316794D01*
Y-317081D01*
X-215666D01*
Y-317367D01*
Y-317653D01*
X-215952D01*
Y-317940D01*
Y-318226D01*
X-216239D01*
Y-318512D01*
Y-318798D01*
X-216525D01*
Y-319085D01*
Y-319371D01*
X-216811D01*
Y-319657D01*
X-217097D01*
Y-319944D01*
Y-320230D01*
X-217384D01*
Y-320516D01*
Y-320803D01*
X-217670D01*
Y-321089D01*
Y-321375D01*
X-217956D01*
Y-321662D01*
Y-321948D01*
X-218243D01*
Y-322234D01*
Y-322521D01*
X-218529D01*
Y-322807D01*
Y-323093D01*
X-218815D01*
Y-323379D01*
Y-323666D01*
X-219102D01*
Y-323952D01*
X-219388D01*
Y-324238D01*
Y-324525D01*
X-219674D01*
Y-324811D01*
Y-325097D01*
X-219961D01*
Y-325384D01*
Y-325670D01*
X-220247D01*
Y-325956D01*
Y-326243D01*
X-220533D01*
Y-326529D01*
Y-326815D01*
X-220820D01*
Y-327102D01*
Y-327388D01*
X-221106D01*
Y-327674D01*
Y-327960D01*
X-221392D01*
Y-328247D01*
X-221678D01*
Y-328533D01*
Y-328819D01*
X-221965D01*
Y-329106D01*
Y-329392D01*
X-222251D01*
Y-329678D01*
X-207077D01*
Y-329392D01*
X-206790D01*
Y-329106D01*
Y-328819D01*
Y-328533D01*
X-206504D01*
Y-328247D01*
Y-327960D01*
Y-327674D01*
X-206218D01*
Y-327388D01*
Y-327102D01*
X-205931D01*
Y-326815D01*
Y-326529D01*
Y-326243D01*
X-205645D01*
Y-325956D01*
Y-325670D01*
Y-325384D01*
X-205359D01*
Y-325097D01*
Y-324811D01*
X-205072D01*
Y-324525D01*
Y-324238D01*
Y-323952D01*
X-204786D01*
Y-323666D01*
Y-323379D01*
Y-323093D01*
X-204500D01*
Y-322807D01*
Y-322521D01*
Y-322234D01*
X-204214D01*
Y-321948D01*
X-203641D01*
Y-322234D01*
Y-322521D01*
X-203355D01*
Y-322807D01*
X-203068D01*
Y-323093D01*
Y-323379D01*
X-202782D01*
Y-323666D01*
X-202496D01*
Y-323952D01*
Y-324238D01*
X-202209D01*
Y-324525D01*
X-201923D01*
Y-324811D01*
Y-325097D01*
X-201637D01*
Y-325384D01*
X-201350D01*
Y-325670D01*
X-201064D01*
Y-325956D01*
Y-326243D01*
X-200778D01*
Y-326529D01*
X-200491D01*
Y-326815D01*
Y-327102D01*
X-200205D01*
Y-327388D01*
X-199919D01*
Y-327674D01*
Y-327960D01*
X-199632D01*
Y-328247D01*
X-199346D01*
Y-328533D01*
Y-328819D01*
X-199060D01*
Y-329106D01*
X-198774D01*
Y-329392D01*
Y-329678D01*
X-182740D01*
Y-329392D01*
X-183026D01*
Y-329106D01*
X-183313D01*
Y-328819D01*
X-183599D01*
Y-328533D01*
X-183885D01*
Y-328247D01*
Y-327960D01*
X-184172D01*
Y-327674D01*
X-184458D01*
Y-327388D01*
X-184744D01*
Y-327102D01*
X-185030D01*
Y-326815D01*
Y-326529D01*
X-185317D01*
Y-326243D01*
X-185603D01*
Y-325956D01*
X-185889D01*
Y-325670D01*
Y-325384D01*
X-186176D01*
Y-325097D01*
X-186462D01*
Y-324811D01*
X-186748D01*
Y-324525D01*
X-187035D01*
Y-324238D01*
Y-323952D01*
X-187321D01*
Y-323666D01*
X-187607D01*
Y-323379D01*
X-187894D01*
Y-323093D01*
X-188180D01*
Y-322807D01*
Y-322521D01*
X-188466D01*
Y-322234D01*
X-188753D01*
Y-321948D01*
X-189039D01*
Y-321662D01*
Y-321375D01*
X-189325D01*
Y-321089D01*
X-189611D01*
Y-320803D01*
X-189898D01*
Y-320516D01*
X-190184D01*
Y-320230D01*
Y-319944D01*
X-190470D01*
Y-319657D01*
X-190757D01*
Y-319371D01*
X-191043D01*
Y-319085D01*
Y-318798D01*
X-191329D01*
Y-318512D01*
X-191616D01*
Y-318226D01*
X-191902D01*
Y-317940D01*
X-192188D01*
Y-317653D01*
Y-317367D01*
X-192475D01*
Y-317081D01*
X-192761D01*
Y-316794D01*
X-193047D01*
Y-316508D01*
Y-316222D01*
X-193334D01*
Y-315935D01*
X-193620D01*
Y-315649D01*
X-193906D01*
Y-315363D01*
X-194193D01*
Y-315076D01*
Y-314790D01*
X-194479D01*
Y-314504D01*
X-194765D01*
Y-314217D01*
X-195051D01*
Y-313931D01*
X-195338D01*
Y-313645D01*
Y-313359D01*
X-195624D01*
Y-313072D01*
X-195910D01*
Y-312786D01*
X-196197D01*
Y-312500D01*
Y-312213D01*
X-196483D01*
Y-311927D01*
X-196769D01*
Y-311641D01*
X-197056D01*
Y-311354D01*
X-197342D01*
Y-311068D01*
Y-310782D01*
X-197628D01*
Y-310495D01*
Y-310209D01*
Y-309923D01*
X-197342D01*
Y-309636D01*
X-197056D01*
Y-309350D01*
Y-309064D01*
X-196769D01*
Y-308778D01*
Y-308491D01*
X-196483D01*
Y-308205D01*
Y-307919D01*
X-196197D01*
Y-307632D01*
Y-307346D01*
X-195910D01*
Y-307060D01*
Y-306773D01*
X-195624D01*
Y-306487D01*
Y-306201D01*
X-195338D01*
Y-305914D01*
X-195051D01*
Y-305628D01*
Y-305342D01*
X-194765D01*
Y-305055D01*
Y-304769D01*
X-194479D01*
Y-304483D01*
Y-304197D01*
X-194193D01*
Y-303910D01*
Y-303624D01*
X-193906D01*
Y-303338D01*
Y-303051D01*
X-193620D01*
Y-302765D01*
Y-302479D01*
X-193334D01*
Y-302192D01*
X-193047D01*
Y-301906D01*
Y-301620D01*
X-192761D01*
Y-301333D01*
Y-301047D01*
X-192475D01*
Y-300761D01*
Y-300475D01*
X-192188D01*
Y-300188D01*
Y-299902D01*
X-191902D01*
Y-299616D01*
Y-299329D01*
X-191616D01*
Y-299043D01*
Y-298757D01*
X-191329D01*
Y-298470D01*
Y-298184D01*
X-191043D01*
Y-297898D01*
X-190757D01*
Y-297611D01*
Y-297325D01*
X-190470D01*
Y-297039D01*
Y-296752D01*
X-190184D01*
Y-296466D01*
Y-296180D01*
X-189898D01*
Y-295894D01*
Y-295607D01*
X-189611D01*
Y-295321D01*
Y-295035D01*
X-189325D01*
Y-294748D01*
Y-294462D01*
X-189039D01*
Y-294176D01*
X-188753D01*
Y-293889D01*
Y-293603D01*
X-188466D01*
Y-293317D01*
X-204214D01*
Y-293603D01*
X-204500D01*
Y-293889D01*
Y-294176D01*
Y-294462D01*
X-204786D01*
Y-294748D01*
Y-295035D01*
Y-295321D01*
X-205072D01*
Y-295607D01*
Y-295894D01*
Y-296180D01*
X-205359D01*
Y-296466D01*
Y-296752D01*
Y-297039D01*
X-205645D01*
Y-297325D01*
Y-297611D01*
Y-297898D01*
X-205931D01*
Y-298184D01*
Y-298470D01*
Y-298757D01*
X-206218D01*
Y-299043D01*
Y-299329D01*
Y-299616D01*
X-206504D01*
Y-299902D01*
Y-300188D01*
Y-300475D01*
X-206790D01*
Y-300761D01*
Y-301047D01*
Y-301333D01*
Y-301620D01*
X-207363D01*
Y-301333D01*
X-207649D01*
Y-301047D01*
X-207936D01*
Y-300761D01*
Y-300475D01*
X-208222D01*
Y-300188D01*
X-208508D01*
Y-299902D01*
Y-299616D01*
X-208794D01*
Y-299329D01*
X-209081D01*
Y-299043D01*
Y-298757D01*
X-209367D01*
Y-298470D01*
X-209653D01*
Y-298184D01*
Y-297898D01*
X-209940D01*
Y-297611D01*
X-210226D01*
Y-297325D01*
Y-297039D01*
X-210512D01*
Y-296752D01*
X-210799D01*
Y-296466D01*
Y-296180D01*
X-211085D01*
Y-295894D01*
X-211371D01*
Y-295607D01*
Y-295321D01*
X-211658D01*
Y-295035D01*
X-211944D01*
Y-294748D01*
Y-294462D01*
X-212230D01*
Y-294176D01*
X-212516D01*
Y-293889D01*
Y-293603D01*
X-212803D01*
Y-293317D01*
X-228550D01*
Y-293603D01*
D02*
G37*
G36*
X-184458D02*
Y-293889D01*
Y-294176D01*
Y-294462D01*
Y-294748D01*
Y-295035D01*
Y-295321D01*
Y-295607D01*
Y-295894D01*
Y-296180D01*
Y-296466D01*
Y-296752D01*
Y-297039D01*
Y-297325D01*
Y-297611D01*
Y-297898D01*
Y-298184D01*
Y-298470D01*
Y-298757D01*
Y-299043D01*
Y-299329D01*
X-184172D01*
Y-299616D01*
Y-299902D01*
Y-300188D01*
Y-300475D01*
Y-300761D01*
X-183885D01*
Y-301047D01*
Y-301333D01*
Y-301620D01*
Y-301906D01*
X-183599D01*
Y-302192D01*
Y-302479D01*
Y-302765D01*
Y-303051D01*
X-183313D01*
Y-303338D01*
Y-303624D01*
Y-303910D01*
X-183026D01*
Y-304197D01*
Y-304483D01*
Y-304769D01*
X-182740D01*
Y-305055D01*
Y-305342D01*
Y-305628D01*
X-182454D01*
Y-305914D01*
Y-306201D01*
Y-306487D01*
X-182167D01*
Y-306773D01*
Y-307060D01*
X-181881D01*
Y-307346D01*
Y-307632D01*
X-181595D01*
Y-307919D01*
Y-308205D01*
Y-308491D01*
X-181308D01*
Y-308778D01*
Y-309064D01*
X-181022D01*
Y-309350D01*
Y-309636D01*
Y-309923D01*
X-180736D01*
Y-310209D01*
Y-310495D01*
X-180449D01*
Y-310782D01*
Y-311068D01*
Y-311354D01*
X-180163D01*
Y-311641D01*
Y-311927D01*
X-179877D01*
Y-312213D01*
Y-312500D01*
Y-312786D01*
X-179591D01*
Y-313072D01*
Y-313359D01*
X-179304D01*
Y-313645D01*
Y-313931D01*
Y-314217D01*
X-179018D01*
Y-314504D01*
Y-314790D01*
X-178732D01*
Y-315076D01*
Y-315363D01*
Y-315649D01*
X-178445D01*
Y-315935D01*
Y-316222D01*
X-178159D01*
Y-316508D01*
Y-316794D01*
Y-317081D01*
X-177873D01*
Y-317367D01*
Y-317653D01*
X-177586D01*
Y-317940D01*
Y-318226D01*
Y-318512D01*
X-177300D01*
Y-318798D01*
Y-319085D01*
X-177014D01*
Y-319371D01*
Y-319657D01*
Y-319944D01*
X-176727D01*
Y-320230D01*
Y-320516D01*
X-176441D01*
Y-320803D01*
Y-321089D01*
Y-321375D01*
X-176155D01*
Y-321662D01*
Y-321948D01*
X-175868D01*
Y-322234D01*
Y-322521D01*
Y-322807D01*
X-175582D01*
Y-323093D01*
Y-323379D01*
X-175296D01*
Y-323666D01*
Y-323952D01*
Y-324238D01*
X-175010D01*
Y-324525D01*
Y-324811D01*
X-174723D01*
Y-325097D01*
Y-325384D01*
Y-325670D01*
X-174437D01*
Y-325956D01*
Y-326243D01*
X-174151D01*
Y-326529D01*
Y-326815D01*
Y-327102D01*
X-173864D01*
Y-327388D01*
Y-327674D01*
X-173578D01*
Y-327960D01*
Y-328247D01*
Y-328533D01*
X-173292D01*
Y-328819D01*
Y-329106D01*
X-173005D01*
Y-329392D01*
Y-329678D01*
Y-329965D01*
X-172719D01*
Y-330251D01*
Y-330537D01*
X-172433D01*
Y-330824D01*
Y-331110D01*
X-172146D01*
Y-331396D01*
Y-331683D01*
X-171860D01*
Y-331969D01*
Y-332255D01*
Y-332542D01*
X-171574D01*
Y-332828D01*
X-171288D01*
Y-333114D01*
Y-333401D01*
Y-333687D01*
X-171001D01*
Y-333973D01*
X-170715D01*
Y-334259D01*
Y-334546D01*
X-170429D01*
Y-334832D01*
Y-335118D01*
X-170142D01*
Y-335405D01*
Y-335691D01*
X-169856D01*
Y-335977D01*
Y-336264D01*
X-169570D01*
Y-336550D01*
X-169283D01*
Y-336836D01*
Y-337123D01*
X-168997D01*
Y-337409D01*
Y-337695D01*
X-168711D01*
Y-337982D01*
X-168424D01*
Y-338268D01*
X-168138D01*
Y-338554D01*
Y-338840D01*
X-167852D01*
Y-339127D01*
X-167565D01*
Y-339413D01*
Y-339699D01*
X-167279D01*
Y-339986D01*
X-166993D01*
Y-340272D01*
X-166707D01*
Y-340558D01*
Y-340845D01*
X-166420D01*
Y-341131D01*
X-166134D01*
Y-341417D01*
X-165848D01*
Y-341704D01*
X-165561D01*
Y-341990D01*
X-165275D01*
Y-342276D01*
Y-342563D01*
X-164989D01*
Y-342849D01*
X-164702D01*
Y-343135D01*
X-164416D01*
Y-343421D01*
X-164130D01*
Y-343708D01*
X-163843D01*
Y-343994D01*
X-163557D01*
Y-344280D01*
X-163271D01*
Y-344567D01*
X-162698D01*
Y-344853D01*
X-162412D01*
Y-345139D01*
X-162126D01*
Y-345426D01*
X-161839D01*
Y-345712D01*
X-161553D01*
Y-345998D01*
X-160980D01*
Y-346285D01*
X-160694D01*
Y-346571D01*
X-160121D01*
Y-346857D01*
X-159835D01*
Y-347144D01*
X-159262D01*
Y-347430D01*
X-158976D01*
Y-347716D01*
X-158403D01*
Y-348002D01*
X-157831D01*
Y-348289D01*
X-157258D01*
Y-348575D01*
X-156685D01*
Y-348861D01*
X-156113D01*
Y-349148D01*
X-155254D01*
Y-349434D01*
X-154681D01*
Y-349720D01*
X-153822D01*
Y-350007D01*
X-152677D01*
Y-350293D01*
X-151532D01*
Y-350579D01*
X-149814D01*
Y-350866D01*
X-147810D01*
Y-351152D01*
X-147523D01*
Y-350866D01*
Y-350579D01*
Y-350293D01*
Y-350007D01*
Y-349720D01*
Y-349434D01*
Y-349148D01*
Y-348861D01*
Y-348575D01*
Y-348289D01*
Y-348002D01*
Y-347716D01*
Y-347430D01*
Y-347144D01*
Y-346857D01*
Y-346571D01*
Y-346285D01*
Y-345998D01*
Y-345712D01*
Y-345426D01*
Y-345139D01*
Y-344853D01*
Y-344567D01*
Y-344280D01*
Y-343994D01*
Y-343708D01*
Y-343421D01*
Y-343135D01*
Y-342849D01*
Y-342563D01*
Y-342276D01*
Y-341990D01*
Y-341704D01*
X-148096D01*
Y-341417D01*
X-148669D01*
Y-341131D01*
X-149241D01*
Y-340845D01*
X-149814D01*
Y-340558D01*
X-150387D01*
Y-340272D01*
X-150959D01*
Y-339986D01*
X-151246D01*
Y-339699D01*
X-151818D01*
Y-339413D01*
X-152104D01*
Y-339127D01*
X-152677D01*
Y-338840D01*
X-152963D01*
Y-338554D01*
X-153250D01*
Y-338268D01*
X-153822D01*
Y-337982D01*
X-154109D01*
Y-337695D01*
X-154395D01*
Y-337409D01*
X-154681D01*
Y-337123D01*
X-154968D01*
Y-336836D01*
X-155254D01*
Y-336550D01*
X-155540D01*
Y-336264D01*
X-155827D01*
Y-335977D01*
X-156113D01*
Y-335691D01*
X-156399D01*
Y-335405D01*
X-156685D01*
Y-335118D01*
X-156972D01*
Y-334832D01*
Y-334546D01*
X-157258D01*
Y-334259D01*
X-157545D01*
Y-333973D01*
X-157831D01*
Y-333687D01*
Y-333401D01*
X-158117D01*
Y-333114D01*
X-158403D01*
Y-332828D01*
Y-332542D01*
X-158690D01*
Y-332255D01*
Y-331969D01*
X-158976D01*
Y-331683D01*
X-159262D01*
Y-331396D01*
Y-331110D01*
X-159549D01*
Y-330824D01*
Y-330537D01*
X-159835D01*
Y-330251D01*
Y-329965D01*
X-158117D01*
Y-329678D01*
X-156113D01*
Y-329392D01*
X-154968D01*
Y-329106D01*
X-154395D01*
Y-328819D01*
X-153536D01*
Y-328533D01*
X-152963D01*
Y-328247D01*
X-152677D01*
Y-327960D01*
X-152104D01*
Y-327674D01*
X-151818D01*
Y-327388D01*
X-151532D01*
Y-327102D01*
X-151246D01*
Y-326815D01*
X-150959D01*
Y-326529D01*
X-150673D01*
Y-326243D01*
Y-325956D01*
X-150387D01*
Y-325670D01*
X-150100D01*
Y-325384D01*
Y-325097D01*
X-149814D01*
Y-324811D01*
Y-324525D01*
X-149528D01*
Y-324238D01*
Y-323952D01*
X-149241D01*
Y-323666D01*
Y-323379D01*
Y-323093D01*
X-148955D01*
Y-322807D01*
Y-322521D01*
Y-322234D01*
Y-321948D01*
X-148669D01*
Y-321662D01*
Y-321375D01*
Y-321089D01*
Y-320803D01*
Y-320516D01*
Y-320230D01*
Y-319944D01*
X-148382D01*
Y-319657D01*
Y-319371D01*
Y-319085D01*
Y-318798D01*
Y-318512D01*
Y-318226D01*
Y-317940D01*
Y-317653D01*
Y-317367D01*
Y-317081D01*
Y-316794D01*
Y-316508D01*
Y-316222D01*
Y-315935D01*
Y-315649D01*
X-148096D01*
Y-315363D01*
Y-315076D01*
Y-314790D01*
Y-314504D01*
Y-314217D01*
Y-313931D01*
Y-313645D01*
Y-313359D01*
Y-313072D01*
Y-312786D01*
Y-312500D01*
Y-312213D01*
Y-311927D01*
Y-311641D01*
Y-311354D01*
X-147810D01*
Y-311068D01*
Y-310782D01*
Y-310495D01*
Y-310209D01*
Y-309923D01*
Y-309636D01*
Y-309350D01*
Y-309064D01*
Y-308778D01*
Y-308491D01*
Y-308205D01*
Y-307919D01*
Y-307632D01*
Y-307346D01*
Y-307060D01*
Y-306773D01*
X-147523D01*
Y-306487D01*
Y-306201D01*
Y-305914D01*
Y-305628D01*
Y-305342D01*
Y-305055D01*
Y-304769D01*
Y-304483D01*
Y-304197D01*
Y-303910D01*
Y-303624D01*
Y-303338D01*
Y-303051D01*
Y-302765D01*
Y-302479D01*
Y-302192D01*
X-147237D01*
Y-301906D01*
Y-301620D01*
Y-301333D01*
Y-301047D01*
Y-300761D01*
Y-300475D01*
Y-300188D01*
Y-299902D01*
Y-299616D01*
Y-299329D01*
Y-299043D01*
Y-298757D01*
Y-298470D01*
Y-298184D01*
X-146951D01*
Y-297898D01*
Y-297611D01*
Y-297325D01*
Y-297039D01*
Y-296752D01*
Y-296466D01*
Y-296180D01*
Y-295894D01*
Y-295607D01*
Y-295321D01*
Y-295035D01*
Y-294748D01*
Y-294462D01*
Y-294176D01*
Y-293889D01*
Y-293603D01*
X-146665D01*
Y-293317D01*
X-160408D01*
Y-293603D01*
Y-293889D01*
Y-294176D01*
Y-294462D01*
Y-294748D01*
Y-295035D01*
Y-295321D01*
Y-295607D01*
Y-295894D01*
Y-296180D01*
Y-296466D01*
Y-296752D01*
Y-297039D01*
Y-297325D01*
X-160694D01*
Y-297611D01*
Y-297898D01*
Y-298184D01*
Y-298470D01*
Y-298757D01*
Y-299043D01*
Y-299329D01*
Y-299616D01*
Y-299902D01*
Y-300188D01*
Y-300475D01*
Y-300761D01*
Y-301047D01*
Y-301333D01*
Y-301620D01*
Y-301906D01*
Y-302192D01*
Y-302479D01*
Y-302765D01*
Y-303051D01*
Y-303338D01*
Y-303624D01*
Y-303910D01*
Y-304197D01*
Y-304483D01*
Y-304769D01*
Y-305055D01*
Y-305342D01*
Y-305628D01*
Y-305914D01*
Y-306201D01*
Y-306487D01*
Y-306773D01*
Y-307060D01*
Y-307346D01*
Y-307632D01*
Y-307919D01*
Y-308205D01*
Y-308491D01*
Y-308778D01*
Y-309064D01*
X-160980D01*
Y-309350D01*
X-160694D01*
Y-309636D01*
Y-309923D01*
X-160980D01*
Y-310209D01*
Y-310495D01*
Y-310782D01*
Y-311068D01*
Y-311354D01*
Y-311641D01*
Y-311927D01*
Y-312213D01*
Y-312500D01*
Y-312786D01*
Y-313072D01*
Y-313359D01*
Y-313645D01*
Y-313931D01*
Y-314217D01*
Y-314504D01*
Y-314790D01*
Y-315076D01*
Y-315363D01*
Y-315649D01*
Y-315935D01*
Y-316222D01*
Y-316508D01*
Y-316794D01*
Y-317081D01*
Y-317367D01*
X-161267D01*
Y-317653D01*
Y-317940D01*
Y-318226D01*
X-161553D01*
Y-318512D01*
X-161839D01*
Y-318798D01*
X-162126D01*
Y-319085D01*
X-162984D01*
Y-319371D01*
X-163843D01*
Y-319085D01*
X-164130D01*
Y-318798D01*
Y-318512D01*
Y-318226D01*
X-164416D01*
Y-317940D01*
Y-317653D01*
X-164702D01*
Y-317367D01*
Y-317081D01*
Y-316794D01*
X-164989D01*
Y-316508D01*
Y-316222D01*
Y-315935D01*
X-165275D01*
Y-315649D01*
Y-315363D01*
Y-315076D01*
X-165561D01*
Y-314790D01*
Y-314504D01*
Y-314217D01*
X-165848D01*
Y-313931D01*
Y-313645D01*
X-166134D01*
Y-313359D01*
Y-313072D01*
Y-312786D01*
X-166420D01*
Y-312500D01*
Y-312213D01*
Y-311927D01*
X-166707D01*
Y-311641D01*
Y-311354D01*
Y-311068D01*
X-166993D01*
Y-310782D01*
Y-310495D01*
X-167279D01*
Y-310209D01*
Y-309923D01*
Y-309636D01*
X-167565D01*
Y-309350D01*
Y-309064D01*
Y-308778D01*
X-167852D01*
Y-308491D01*
Y-308205D01*
Y-307919D01*
X-168138D01*
Y-307632D01*
Y-307346D01*
X-168424D01*
Y-307060D01*
Y-306773D01*
Y-306487D01*
X-168711D01*
Y-306201D01*
Y-305914D01*
Y-305628D01*
X-168997D01*
Y-305342D01*
Y-305055D01*
Y-304769D01*
X-169283D01*
Y-304483D01*
Y-304197D01*
X-169570D01*
Y-303910D01*
Y-303624D01*
Y-303338D01*
X-169856D01*
Y-303051D01*
Y-302765D01*
Y-302479D01*
X-170142D01*
Y-302192D01*
Y-301906D01*
Y-301620D01*
X-170429D01*
Y-301333D01*
Y-301047D01*
Y-300761D01*
Y-300475D01*
X-170715D01*
Y-300188D01*
Y-299902D01*
Y-299616D01*
Y-299329D01*
X-171001D01*
Y-299043D01*
Y-298757D01*
Y-298470D01*
Y-298184D01*
Y-297898D01*
X-171288D01*
Y-297611D01*
Y-297325D01*
Y-297039D01*
Y-296752D01*
Y-296466D01*
Y-296180D01*
X-171574D01*
Y-295894D01*
Y-295607D01*
Y-295321D01*
Y-295035D01*
Y-294748D01*
Y-294462D01*
Y-294176D01*
Y-293889D01*
Y-293603D01*
Y-293317D01*
X-184458D01*
Y-293603D01*
D02*
G37*
%LPC*%
G36*
X-91120Y-290454D02*
X-83103D01*
Y-290740D01*
Y-291026D01*
Y-291313D01*
Y-291599D01*
Y-291885D01*
X-82817D01*
Y-292171D01*
Y-292458D01*
Y-292744D01*
Y-293030D01*
Y-293317D01*
Y-293603D01*
X-82530D01*
Y-293889D01*
Y-294176D01*
Y-294462D01*
Y-294748D01*
Y-295035D01*
Y-295321D01*
X-82244D01*
Y-295607D01*
Y-295894D01*
Y-296180D01*
Y-296466D01*
Y-296752D01*
Y-297039D01*
X-81958D01*
Y-297325D01*
Y-297611D01*
Y-297898D01*
Y-298184D01*
Y-298470D01*
Y-298757D01*
Y-299043D01*
X-81672D01*
Y-299329D01*
Y-299616D01*
Y-299902D01*
Y-300188D01*
Y-300475D01*
Y-300761D01*
X-81385D01*
Y-301047D01*
Y-301333D01*
Y-301620D01*
X-88543D01*
Y-301333D01*
X-89688D01*
Y-301047D01*
X-90261D01*
Y-300761D01*
X-90547D01*
Y-300475D01*
X-90834D01*
Y-300188D01*
X-91120D01*
Y-299902D01*
X-91406D01*
Y-299616D01*
Y-299329D01*
X-91693D01*
Y-299043D01*
Y-298757D01*
X-91979D01*
Y-298470D01*
Y-298184D01*
X-92265D01*
Y-297898D01*
Y-297611D01*
Y-297325D01*
Y-297039D01*
X-92551D01*
Y-296752D01*
Y-296466D01*
Y-296180D01*
Y-295894D01*
Y-295607D01*
X-92838D01*
Y-295321D01*
Y-295035D01*
Y-294748D01*
Y-294462D01*
Y-294176D01*
Y-293889D01*
Y-293603D01*
Y-293317D01*
Y-293030D01*
Y-292744D01*
Y-292458D01*
X-92551D01*
Y-292171D01*
Y-291885D01*
X-92265D01*
Y-291599D01*
Y-291313D01*
X-91979D01*
Y-291026D01*
X-91693D01*
Y-290740D01*
X-91120D01*
Y-290454D01*
D02*
G37*
%LPD*%
D10*
X-405898Y-339807D02*
Y-331936D01*
X-409834D01*
X-411146Y-333248D01*
Y-335872D01*
X-409834Y-337183D01*
X-405898D01*
X-408522D02*
X-411146Y-339807D01*
X-417705D02*
X-415081D01*
X-413769Y-338495D01*
Y-335872D01*
X-415081Y-334560D01*
X-417705D01*
X-419017Y-335872D01*
Y-337183D01*
X-413769D01*
X-421641Y-334560D02*
X-424265Y-339807D01*
X-426889Y-334560D01*
X-51567Y-371306D02*
Y-379177D01*
X-55503D01*
X-56815Y-377865D01*
Y-372618D01*
X-55503Y-371306D01*
X-51567D01*
X-63375Y-379177D02*
X-60751D01*
X-59439Y-377865D01*
Y-375242D01*
X-60751Y-373930D01*
X-63375D01*
X-64686Y-375242D01*
Y-376554D01*
X-59439D01*
X-67310Y-379177D02*
X-71246D01*
X-72558Y-377865D01*
X-71246Y-376554D01*
X-68622D01*
X-67310Y-375242D01*
X-68622Y-373930D01*
X-72558D01*
X-77806Y-381801D02*
X-79117D01*
X-80429Y-380489D01*
Y-373930D01*
X-76494D01*
X-75182Y-375242D01*
Y-377865D01*
X-76494Y-379177D01*
X-80429D01*
X-83053D02*
X-85677D01*
X-84365D01*
Y-373930D01*
X-83053D01*
X-89613Y-379177D02*
Y-373930D01*
X-93549D01*
X-94860Y-375242D01*
Y-379177D01*
X-101420D02*
X-98796D01*
X-97484Y-377865D01*
Y-375242D01*
X-98796Y-373930D01*
X-101420D01*
X-102732Y-375242D01*
Y-376554D01*
X-97484D01*
X-105356Y-373930D02*
Y-379177D01*
Y-376554D01*
X-106668Y-375242D01*
X-107980Y-373930D01*
X-109291D01*
X-248418Y-253196D02*
Y-261067D01*
X-252353D01*
X-253665Y-259755D01*
Y-254507D01*
X-252353Y-253196D01*
X-248418D01*
X-257601Y-261067D02*
X-260225D01*
X-261537Y-259755D01*
Y-257131D01*
X-260225Y-255820D01*
X-257601D01*
X-256289Y-257131D01*
Y-259755D01*
X-257601Y-261067D01*
X-269408Y-255820D02*
X-265473D01*
X-264161Y-257131D01*
Y-259755D01*
X-265473Y-261067D01*
X-269408D01*
X-272032Y-255820D02*
Y-259755D01*
X-273344Y-261067D01*
X-277280D01*
Y-255820D01*
X-279904Y-261067D02*
Y-255820D01*
X-281216D01*
X-282527Y-257131D01*
Y-261067D01*
Y-257131D01*
X-283839Y-255820D01*
X-285151Y-257131D01*
Y-261067D01*
X-291711D02*
X-289087D01*
X-287775Y-259755D01*
Y-257131D01*
X-289087Y-255820D01*
X-291711D01*
X-293023Y-257131D01*
Y-258443D01*
X-287775D01*
X-295647Y-261067D02*
Y-255820D01*
X-299582D01*
X-300894Y-257131D01*
Y-261067D01*
X-304830Y-254507D02*
Y-255820D01*
X-303518D01*
X-306142D01*
X-304830D01*
Y-259755D01*
X-306142Y-261067D01*
X-248418Y-292566D02*
Y-300437D01*
X-253665D01*
X-257601Y-295189D02*
X-260225D01*
X-261537Y-296501D01*
Y-300437D01*
X-257601D01*
X-256289Y-299125D01*
X-257601Y-297813D01*
X-261537D01*
X-264161Y-295189D02*
Y-299125D01*
X-265473Y-300437D01*
X-269408D01*
Y-301749D01*
X-268096Y-303061D01*
X-266784D01*
X-269408Y-300437D02*
Y-295189D01*
X-275968Y-300437D02*
X-273344D01*
X-272032Y-299125D01*
Y-296501D01*
X-273344Y-295189D01*
X-275968D01*
X-277280Y-296501D01*
Y-297813D01*
X-272032D01*
X-279904Y-295189D02*
Y-300437D01*
Y-297813D01*
X-281216Y-296501D01*
X-282527Y-295189D01*
X-283839D01*
X-295647Y-300437D02*
Y-292566D01*
X-300894Y-300437D01*
Y-292566D01*
X-304830Y-295189D02*
X-307454D01*
X-308766Y-296501D01*
Y-300437D01*
X-304830D01*
X-303518Y-299125D01*
X-304830Y-297813D01*
X-308766D01*
X-311389Y-300437D02*
Y-295189D01*
X-312701D01*
X-314013Y-296501D01*
Y-300437D01*
Y-296501D01*
X-315325Y-295189D01*
X-316637Y-296501D01*
Y-300437D01*
X-323197D02*
X-320573D01*
X-319261Y-299125D01*
Y-296501D01*
X-320573Y-295189D01*
X-323197D01*
X-324509Y-296501D01*
Y-297813D01*
X-319261D01*
X-248418Y-331936D02*
Y-339807D01*
X-252353D01*
X-253665Y-338495D01*
Y-333248D01*
X-252353Y-331936D01*
X-248418D01*
X-257601Y-334560D02*
X-260225D01*
X-261537Y-335872D01*
Y-339807D01*
X-257601D01*
X-256289Y-338495D01*
X-257601Y-337183D01*
X-261537D01*
X-265473Y-333248D02*
Y-334560D01*
X-264161D01*
X-266784D01*
X-265473D01*
Y-338495D01*
X-266784Y-339807D01*
X-274656D02*
X-272032D01*
X-270720Y-338495D01*
Y-335872D01*
X-272032Y-334560D01*
X-274656D01*
X-275968Y-335872D01*
Y-337183D01*
X-270720D01*
X-248418Y-371306D02*
Y-379177D01*
X-252353D01*
X-253665Y-377865D01*
Y-372618D01*
X-252353Y-371306D01*
X-248418D01*
X-257601Y-379177D02*
X-260225D01*
X-261537Y-377865D01*
Y-375242D01*
X-260225Y-373930D01*
X-257601D01*
X-256289Y-375242D01*
Y-377865D01*
X-257601Y-379177D01*
X-269408Y-373930D02*
X-265473D01*
X-264161Y-375242D01*
Y-377865D01*
X-265473Y-379177D01*
X-269408D01*
X-272032Y-373930D02*
Y-377865D01*
X-273344Y-379177D01*
X-277280D01*
Y-373930D01*
X-279904Y-379177D02*
Y-373930D01*
X-281216D01*
X-282527Y-375242D01*
Y-379177D01*
Y-375242D01*
X-283839Y-373930D01*
X-285151Y-375242D01*
Y-379177D01*
X-291711D02*
X-289087D01*
X-287775Y-377865D01*
Y-375242D01*
X-289087Y-373930D01*
X-291711D01*
X-293023Y-375242D01*
Y-376554D01*
X-287775D01*
X-295647Y-379177D02*
Y-373930D01*
X-299582D01*
X-300894Y-375242D01*
Y-379177D01*
X-304830Y-372618D02*
Y-373930D01*
X-303518D01*
X-306142D01*
X-304830D01*
Y-377865D01*
X-306142Y-379177D01*
D12*
X543401Y5000D02*
G03*
X548401Y-0I5000J-0D01*
G01*
Y80000D02*
G03*
X543401Y75000I-0J-5000D01*
G01*
X613401D02*
G03*
X608401Y80000I-5000J0D01*
G01*
Y0D02*
G03*
X613401Y5000I0J5000D01*
G01*
X613401D02*
Y75000D01*
X608401Y80000D02*
X548401D01*
X543401Y5000D02*
Y75000D01*
X608401Y0D02*
X548401D01*
D13*
X-401961Y-367366D02*
Y-327996D01*
X-244481Y-288626D02*
X-520071D01*
X-244481Y-327996D02*
X-520071D01*
X-47630Y-367366D02*
X-520071D01*
X-47630Y-249256D02*
X-520071D01*
X-47630Y-406736D02*
Y-249256D01*
X-244481Y-406736D02*
Y-249256D01*
X1133472Y762555D02*
X-520071D01*
Y-406736D02*
Y762555D01*
X1133472Y-406736D02*
Y762555D01*
Y-406736D02*
X-520071D01*
X-254323Y-392959D02*
Y-398862D01*
X-258259D01*
X-260227D02*
Y-394927D01*
X-262195Y-392959D01*
X-264162Y-394927D01*
Y-398862D01*
Y-395911D01*
X-260227D01*
X-266130Y-398862D02*
Y-392959D01*
X-270066Y-398862D01*
Y-392959D01*
X-272034Y-398862D02*
Y-394927D01*
X-274002Y-392959D01*
X-275970Y-394927D01*
Y-398862D01*
Y-395911D01*
X-272034D01*
X-277938Y-399846D02*
X-281873D01*
X-283841Y-392959D02*
X-287777D01*
X-285809D01*
Y-398862D01*
X-289745D02*
Y-392959D01*
X-293681Y-398862D01*
Y-392959D01*
X-295648D02*
Y-393943D01*
X-297616Y-395911D01*
X-299584Y-393943D01*
Y-392959D01*
X-297616Y-395911D02*
Y-398862D01*
X-301552Y-399846D02*
X-305488D01*
X-307455Y-393943D02*
X-308439Y-392959D01*
X-310407D01*
X-311391Y-393943D01*
Y-397878D01*
X-310407Y-398862D01*
X-308439D01*
X-307455Y-397878D01*
Y-393943D01*
X-313359D02*
X-314343Y-392959D01*
X-316311D01*
X-317295Y-393943D01*
Y-397878D01*
X-316311Y-398862D01*
X-314343D01*
X-313359Y-397878D01*
Y-393943D01*
X-319263Y-398862D02*
Y-397878D01*
X-320247D01*
Y-398862D01*
X-319263D01*
X-324182D02*
Y-392959D01*
X-327134D01*
X-328118Y-393943D01*
Y-395911D01*
X-327134Y-396895D01*
X-324182D01*
X-334022Y-394927D02*
X-331070D01*
X-330086Y-395911D01*
Y-397878D01*
X-331070Y-398862D01*
X-334022D01*
X-335990Y-392959D02*
Y-398862D01*
X-338941D01*
X-339925Y-397878D01*
Y-396895D01*
Y-395911D01*
X-338941Y-394927D01*
X-335990D01*
X-341893Y-392959D02*
Y-398862D01*
X-344845D01*
X-345829Y-397878D01*
Y-393943D01*
X-344845Y-392959D01*
X-341893D01*
X-348781Y-398862D02*
X-350749D01*
X-351732Y-397878D01*
Y-395911D01*
X-350749Y-394927D01*
X-348781D01*
X-347797Y-395911D01*
Y-397878D01*
X-348781Y-398862D01*
X-357636Y-394927D02*
X-354684D01*
X-353700Y-395911D01*
Y-397878D01*
X-354684Y-398862D01*
X-357636D01*
D16*
X-260227Y-322091D02*
X-254323Y-316187D01*
X-260227Y-310283D01*
X-266130Y-322091D02*
Y-310283D01*
X-272034D01*
X-274002Y-312251D01*
Y-316187D01*
X-272034Y-318155D01*
X-266130D01*
X-277938Y-322091D02*
Y-314219D01*
X-281873Y-310283D01*
X-285809Y-314219D01*
Y-322091D01*
Y-316187D01*
X-277938D01*
X-289745Y-322091D02*
Y-310283D01*
X-297616Y-322091D01*
Y-310283D01*
X-309423D02*
X-301552D01*
Y-322091D01*
X-309423D01*
X-301552Y-316187D02*
X-305488D01*
X-313359Y-310283D02*
Y-322091D01*
X-321231D01*
X-325166D02*
X-331070Y-316187D01*
X-325166Y-310283D01*
X-69284Y-385088D02*
Y-400831D01*
X-74531Y-395583D01*
X-79779Y-400831D01*
Y-385088D01*
X-85027Y-400831D02*
X-90274D01*
X-87651D01*
Y-390336D01*
X-85027D01*
X-98146Y-400831D02*
Y-390336D01*
X-100770D01*
X-103393Y-392959D01*
Y-400831D01*
Y-392959D01*
X-106017Y-390336D01*
X-108641Y-392959D01*
Y-400831D01*
X-113889Y-385088D02*
Y-395583D01*
X-119136Y-400831D01*
X-124384Y-395583D01*
Y-385088D01*
X-140127Y-387712D02*
X-137503Y-385088D01*
X-132255D01*
X-129632Y-387712D01*
Y-398207D01*
X-132255Y-400831D01*
X-137503D01*
X-140127Y-398207D01*
Y-392959D01*
X-134879D01*
X-423615Y-348342D02*
X-426238Y-345718D01*
X-431486D01*
X-434110Y-348342D01*
Y-358837D01*
X-431486Y-361461D01*
X-426238D01*
X-423615Y-358837D01*
Y-348342D01*
X-439357D02*
X-441981Y-345718D01*
X-447229D01*
X-449853Y-348342D01*
Y-358837D01*
X-447229Y-361461D01*
X-441981D01*
X-439357Y-358837D01*
Y-348342D01*
X-260229Y-349982D02*
X-262525Y-347686D01*
X-267116D01*
X-269412Y-349982D01*
Y-352277D01*
X-267116Y-354573D01*
X-264820D01*
X-267116D01*
X-269412Y-356869D01*
Y-359165D01*
X-267116Y-361461D01*
X-262525D01*
X-260229Y-359165D01*
X-274004Y-361461D02*
X-278595D01*
X-276300D01*
Y-347686D01*
X-274004Y-349982D01*
X-285483Y-361461D02*
X-294666Y-352277D01*
X-299258Y-349982D02*
X-301554Y-347686D01*
X-306146D01*
X-308441Y-349982D01*
Y-359165D01*
X-306146Y-361461D01*
X-301554D01*
X-299258Y-359165D01*
Y-349982D01*
X-313033D02*
X-315329Y-347686D01*
X-319921D01*
X-322217Y-349982D01*
Y-352277D01*
X-319921Y-354573D01*
X-322217Y-356869D01*
Y-359165D01*
X-319921Y-361461D01*
X-315329D01*
X-313033Y-359165D01*
Y-356869D01*
X-315329Y-354573D01*
X-313033Y-352277D01*
Y-349982D01*
X-315329Y-354573D02*
X-319921D01*
X-326808Y-361461D02*
X-335992Y-352277D01*
X-349767Y-361461D02*
X-340583D01*
X-349767Y-352277D01*
Y-349982D01*
X-347471Y-347686D01*
X-342879D01*
X-340583Y-349982D01*
X-354358D02*
X-356654Y-347686D01*
X-361246D01*
X-363542Y-349982D01*
Y-359165D01*
X-361246Y-361461D01*
X-356654D01*
X-354358Y-359165D01*
Y-349982D01*
X-377317Y-361461D02*
X-368133D01*
X-377317Y-352277D01*
Y-349982D01*
X-375021Y-347686D01*
X-370429D01*
X-368133Y-349982D01*
X-381908D02*
X-384204Y-347686D01*
X-388796D01*
X-391092Y-349982D01*
Y-352277D01*
X-388796Y-354573D01*
X-386500D01*
X-388796D01*
X-391092Y-356869D01*
Y-359165D01*
X-388796Y-361461D01*
X-384204D01*
X-381908Y-359165D01*
X-254323Y-270913D02*
Y-282721D01*
X-262195D01*
X-268098Y-274849D02*
X-272034D01*
X-274002Y-276817D01*
Y-282721D01*
X-268098D01*
X-266130Y-280753D01*
X-268098Y-278785D01*
X-274002D01*
X-277938Y-282721D02*
Y-274849D01*
X-283841D01*
X-285809Y-276817D01*
Y-282721D01*
X-291713Y-274849D02*
X-295648D01*
X-297616Y-276817D01*
Y-282721D01*
X-291713D01*
X-289745Y-280753D01*
X-291713Y-278785D01*
X-297616D01*
X-313359Y-270913D02*
X-321231D01*
X-317295D01*
Y-282721D01*
X-325166D02*
Y-274849D01*
X-331070D01*
X-333038Y-276817D01*
Y-282721D01*
X-336974Y-274849D02*
Y-280753D01*
X-338941Y-282721D01*
X-344845D01*
Y-284688D01*
X-342877Y-286656D01*
X-340909D01*
X-344845Y-282721D02*
Y-274849D01*
M02*
