G04*
G04 #@! TF.GenerationSoftware,Altium Limited,Altium Designer,23.8.1 (32)*
G04*
G04 Layer_Color=65535*
%FSLAX25Y25*%
%MOIN*%
G70*
G04*
G04 #@! TF.SameCoordinates,792C4401-852F-49E4-8EEA-156BCAAEB04F*
G04*
G04*
G04 #@! TF.FilePolarity,Positive*
G04*
G01*
G75*
%ADD10C,0.00984*%
%ADD11C,0.00591*%
%ADD12C,0.00394*%
%ADD13C,0.00787*%
%ADD14C,0.00472*%
%ADD15R,0.00787X0.00591*%
%ADD16C,0.01575*%
G36*
X42386Y34220D02*
Y34195D01*
X42361D01*
Y34169D01*
Y34144D01*
Y34118D01*
Y34093D01*
X42361Y34067D01*
X42361Y34042D01*
X42335Y34042D01*
Y34016D01*
Y33991D01*
X42335Y33965D01*
X42335Y33940D01*
X42335Y33914D01*
X42335Y33889D01*
X42310D01*
Y33863D01*
X42310Y33838D01*
X42310Y33812D01*
Y33787D01*
X42310Y33761D01*
Y33736D01*
X42310Y33710D01*
X42284D01*
Y33685D01*
X42284Y33659D01*
X42284Y33634D01*
X42284Y33608D01*
X42284Y33583D01*
X42284Y33557D01*
X42259Y33557D01*
X42259Y33532D01*
X42259Y33506D01*
X42259Y33481D01*
X42259Y33455D01*
Y33430D01*
Y33404D01*
X42233Y33404D01*
Y33379D01*
Y33353D01*
Y33328D01*
Y33302D01*
Y33277D01*
Y33251D01*
X42233Y33226D01*
X42208Y33226D01*
Y33200D01*
Y33175D01*
Y33149D01*
Y33124D01*
Y33098D01*
Y33073D01*
X42182Y33073D01*
Y33047D01*
Y33022D01*
Y32996D01*
X42182Y32971D01*
Y32945D01*
X42182Y32920D01*
X42157Y32920D01*
X42157Y32894D01*
Y32869D01*
Y32843D01*
X42157Y32818D01*
X42157Y32792D01*
X42157Y32767D01*
X42131D01*
Y32741D01*
Y32716D01*
X42131Y32690D01*
X42131Y32665D01*
Y32639D01*
Y32614D01*
Y32588D01*
X42106Y32588D01*
Y32563D01*
X42106Y32537D01*
X42106Y32512D01*
X42106Y32486D01*
Y32461D01*
X42106Y32435D01*
X42080D01*
Y32410D01*
X42080Y32384D01*
X42131D01*
X42131Y32410D01*
X42157D01*
X42157Y32435D01*
X42182D01*
Y32461D01*
X42233Y32461D01*
X42233Y32486D01*
X42259Y32486D01*
Y32512D01*
X42284D01*
Y32537D01*
X42335D01*
Y32563D01*
X42386Y32563D01*
Y32588D01*
X42412Y32588D01*
Y32614D01*
X42463Y32614D01*
X42463Y32639D01*
X42539Y32639D01*
X42539Y32665D01*
X42590D01*
X42590Y32690D01*
X42667Y32690D01*
Y32716D01*
X42794D01*
Y32741D01*
X43355Y32741D01*
X43355Y32716D01*
X43457D01*
X43457Y32690D01*
X43534D01*
Y32665D01*
X43585D01*
Y32639D01*
X43610D01*
X43610Y32614D01*
X43661Y32614D01*
Y32588D01*
X43687Y32588D01*
Y32563D01*
X43712Y32563D01*
X43712Y32537D01*
X43738Y32537D01*
X43738Y32512D01*
X43763D01*
Y32486D01*
X43763Y32461D01*
X43789D01*
Y32435D01*
Y32410D01*
X43814Y32410D01*
Y32384D01*
Y32359D01*
Y32333D01*
X43840D01*
X43840Y32308D01*
X43840Y32282D01*
X43840Y32257D01*
Y32231D01*
X43865Y32231D01*
Y32206D01*
Y32180D01*
X43865Y32155D01*
X43865Y32129D01*
X43865Y32104D01*
X43865Y32078D01*
X43865Y32053D01*
Y32027D01*
X43865Y32002D01*
X43865Y31976D01*
Y31951D01*
Y31925D01*
X43865Y31900D01*
X43865Y31874D01*
Y31849D01*
X43865Y31823D01*
Y31798D01*
X43865Y31772D01*
X43840D01*
X43840Y31747D01*
Y31721D01*
Y31696D01*
Y31670D01*
X43840Y31645D01*
X43840Y31619D01*
X43840Y31594D01*
X43814D01*
X43814Y31568D01*
X43814Y31543D01*
Y31517D01*
X43814Y31492D01*
X43814Y31466D01*
Y31441D01*
X43814Y31415D01*
X43789Y31415D01*
X43789Y31390D01*
X43789Y31364D01*
Y31339D01*
X43789Y31313D01*
X43789Y31288D01*
X43789Y31262D01*
X43763Y31262D01*
Y31237D01*
Y31211D01*
X43763Y31186D01*
X43763Y31160D01*
Y31135D01*
Y31109D01*
X43738D01*
X43738Y31084D01*
X43738Y31058D01*
X43738Y31033D01*
X43738Y31007D01*
X43738Y30982D01*
Y30956D01*
X43712D01*
X43712Y30931D01*
Y30905D01*
Y30880D01*
X43712Y30854D01*
X43712Y30829D01*
X43712Y30803D01*
X43712Y30778D01*
X43687Y30778D01*
Y30752D01*
Y30727D01*
Y30701D01*
Y30676D01*
Y30650D01*
Y30625D01*
X43661Y30625D01*
Y30599D01*
Y30574D01*
Y30548D01*
X43661Y30523D01*
X43661Y30497D01*
Y30472D01*
X43636D01*
Y30446D01*
Y30421D01*
X43636Y30395D01*
X43636Y30370D01*
X43636Y30344D01*
X43636Y30319D01*
X43636Y30293D01*
X43610Y30293D01*
X43610Y30268D01*
X43610Y30242D01*
X43610Y30217D01*
X43610Y30191D01*
X43610Y30166D01*
Y30140D01*
X43585Y30140D01*
X43585Y30115D01*
X43585Y30089D01*
X43585Y30064D01*
Y30038D01*
X43585Y30013D01*
X43585Y29987D01*
X43559Y29987D01*
Y29962D01*
X43559Y29936D01*
X43559Y29911D01*
X43559Y29885D01*
Y29860D01*
Y29834D01*
X43534Y29834D01*
X43534Y29809D01*
X43534Y29783D01*
Y29758D01*
X43534Y29732D01*
Y29707D01*
Y29681D01*
X43534Y29656D01*
X43508D01*
Y29630D01*
X43508Y29605D01*
Y29579D01*
X43508Y29554D01*
X43508Y29528D01*
X43508Y29503D01*
X43483D01*
X43483Y29477D01*
Y29452D01*
X42310Y29452D01*
X42310Y29477D01*
X42310Y29503D01*
X42335Y29503D01*
Y29528D01*
X42335Y29554D01*
X42335Y29579D01*
X42335Y29605D01*
Y29630D01*
X42335Y29656D01*
X42361D01*
Y29681D01*
X42361Y29707D01*
X42361Y29732D01*
X42361Y29758D01*
X42361Y29783D01*
Y29809D01*
X42361Y29834D01*
X42386Y29834D01*
Y29860D01*
Y29885D01*
Y29911D01*
X42386Y29936D01*
X42386Y29962D01*
Y29987D01*
X42412D01*
X42412Y30013D01*
Y30038D01*
X42412Y30064D01*
X42412Y30089D01*
Y30115D01*
X42412Y30140D01*
X42437D01*
X42437Y30166D01*
X42437Y30191D01*
Y30217D01*
Y30242D01*
X42437Y30268D01*
X42437Y30293D01*
X42437Y30319D01*
X42463D01*
X42463Y30344D01*
Y30370D01*
X42463Y30395D01*
X42463Y30421D01*
Y30446D01*
X42463Y30472D01*
X42488Y30472D01*
Y30497D01*
Y30523D01*
X42488Y30548D01*
X42488Y30574D01*
Y30599D01*
Y30625D01*
Y30650D01*
X42514Y30650D01*
X42514Y30676D01*
X42514Y30701D01*
X42514Y30727D01*
X42514Y30752D01*
X42514Y30778D01*
X42514Y30803D01*
X42539Y30803D01*
Y30829D01*
X42539Y30854D01*
X42539Y30880D01*
Y30905D01*
Y30931D01*
Y30956D01*
X42565D01*
Y30982D01*
Y31007D01*
X42565Y31033D01*
X42565Y31058D01*
Y31084D01*
Y31109D01*
X42590Y31109D01*
Y31135D01*
Y31160D01*
Y31186D01*
Y31211D01*
X42590Y31237D01*
X42590Y31262D01*
Y31288D01*
X42616D01*
X42616Y31313D01*
X42616Y31339D01*
Y31364D01*
Y31390D01*
Y31415D01*
X42616Y31441D01*
X42641D01*
X42641Y31466D01*
X42641Y31492D01*
X42641Y31517D01*
X42641Y31543D01*
Y31568D01*
X42641Y31594D01*
X42641Y31619D01*
X42667D01*
Y31645D01*
X42667Y31670D01*
X42667Y31696D01*
Y31721D01*
X42667Y31747D01*
X42667Y31772D01*
X42641D01*
X42641Y31798D01*
Y31823D01*
X42616Y31823D01*
Y31849D01*
X42590Y31849D01*
X42590Y31874D01*
X42539D01*
X42539Y31900D01*
X42386Y31900D01*
Y31874D01*
X42259Y31874D01*
Y31849D01*
X42182Y31849D01*
X42182Y31823D01*
X42131D01*
X42131Y31798D01*
X42106D01*
X42105Y31772D01*
X42055D01*
Y31747D01*
X42029Y31747D01*
Y31721D01*
X42004Y31721D01*
Y31696D01*
X42004Y31670D01*
X41978D01*
X41978Y31645D01*
Y31619D01*
X41978Y31594D01*
X41953Y31594D01*
X41953Y31568D01*
Y31543D01*
Y31517D01*
X41953Y31492D01*
Y31466D01*
X41953Y31441D01*
X41927Y31441D01*
X41927Y31415D01*
X41927Y31390D01*
Y31364D01*
Y31339D01*
Y31313D01*
Y31288D01*
X41927Y31262D01*
X41902Y31262D01*
X41902Y31237D01*
X41902Y31211D01*
X41902Y31186D01*
X41902Y31160D01*
Y31135D01*
X41902Y31109D01*
X41876Y31109D01*
Y31084D01*
X41876Y31058D01*
Y31033D01*
X41876Y31007D01*
X41876Y30982D01*
Y30956D01*
X41851Y30956D01*
X41851Y30931D01*
Y30905D01*
Y30880D01*
Y30854D01*
Y30829D01*
X41851Y30803D01*
X41825Y30803D01*
Y30778D01*
X41825Y30752D01*
Y30727D01*
Y30701D01*
Y30676D01*
X41825Y30650D01*
X41825Y30625D01*
X41800Y30625D01*
Y30599D01*
X41800Y30574D01*
Y30548D01*
Y30523D01*
X41800Y30497D01*
Y30472D01*
X41774Y30472D01*
X41774Y30446D01*
Y30421D01*
Y30395D01*
Y30370D01*
X41774Y30344D01*
X41774Y30319D01*
X41749D01*
X41748Y30293D01*
X41749Y30268D01*
X41748Y30242D01*
Y30217D01*
X41749Y30191D01*
Y30166D01*
X41749Y30140D01*
X41723Y30140D01*
Y30115D01*
Y30089D01*
X41723Y30064D01*
X41723Y30038D01*
X41723Y30013D01*
X41723Y29987D01*
X41697D01*
X41698Y29962D01*
X41697Y29936D01*
X41698Y29911D01*
X41698Y29885D01*
X41697Y29860D01*
Y29834D01*
X41672D01*
X41672Y29809D01*
X41672Y29783D01*
X41672Y29758D01*
X41672Y29732D01*
X41672Y29707D01*
X41672Y29681D01*
X41647D01*
Y29656D01*
Y29630D01*
Y29605D01*
Y29579D01*
Y29554D01*
Y29528D01*
Y29503D01*
X41621Y29503D01*
Y29477D01*
X41621Y29452D01*
X40448Y29452D01*
X40448Y29477D01*
Y29503D01*
X40473Y29503D01*
X40473Y29528D01*
Y29554D01*
X40473Y29579D01*
X40473Y29605D01*
X40473Y29630D01*
X40473Y29656D01*
X40473Y29681D01*
X40499Y29681D01*
Y29707D01*
X40499Y29732D01*
X40499Y29758D01*
Y29783D01*
Y29809D01*
X40499Y29834D01*
X40525Y29834D01*
X40525Y29860D01*
X40525Y29885D01*
X40525Y29911D01*
X40525Y29936D01*
X40525Y29962D01*
X40525Y29987D01*
X40550D01*
Y30013D01*
X40550Y30038D01*
X40550Y30064D01*
Y30089D01*
X40550Y30115D01*
Y30140D01*
X40550Y30166D01*
X40576D01*
Y30191D01*
Y30217D01*
X40576Y30242D01*
Y30268D01*
X40576Y30293D01*
X40576Y30319D01*
X40601Y30319D01*
X40601Y30344D01*
X40601Y30370D01*
Y30395D01*
Y30421D01*
X40601Y30446D01*
X40601Y30472D01*
X40626D01*
X40626Y30497D01*
X40626Y30523D01*
X40626Y30548D01*
Y30574D01*
Y30599D01*
Y30625D01*
X40652D01*
Y30650D01*
Y30676D01*
Y30701D01*
Y30727D01*
Y30752D01*
Y30778D01*
Y30803D01*
X40677Y30803D01*
X40677Y30829D01*
X40677Y30854D01*
Y30880D01*
X40677Y30905D01*
Y30931D01*
X40677Y30956D01*
X40703D01*
Y30982D01*
Y31007D01*
Y31033D01*
X40703Y31058D01*
Y31084D01*
X40703Y31109D01*
X40729Y31109D01*
Y31135D01*
Y31160D01*
Y31186D01*
Y31211D01*
Y31237D01*
Y31262D01*
Y31288D01*
X40754D01*
Y31313D01*
Y31339D01*
Y31364D01*
Y31390D01*
Y31415D01*
Y31441D01*
X40780Y31441D01*
Y31466D01*
Y31492D01*
X40780Y31517D01*
X40780Y31543D01*
Y31568D01*
Y31594D01*
X40805D01*
X40805Y31619D01*
Y31645D01*
X40805Y31670D01*
X40805Y31696D01*
Y31721D01*
X40805Y31747D01*
X40830D01*
Y31772D01*
X40830Y31798D01*
X40830Y31823D01*
Y31849D01*
X40830Y31874D01*
X40830Y31900D01*
X40830Y31925D01*
X40856Y31925D01*
X40856Y31951D01*
Y31976D01*
X40856Y32002D01*
X40856Y32027D01*
Y32053D01*
Y32078D01*
X40881Y32078D01*
Y32104D01*
X40881Y32129D01*
X40881Y32155D01*
Y32180D01*
Y32206D01*
Y32231D01*
X40907Y32231D01*
Y32257D01*
Y32282D01*
Y32308D01*
Y32333D01*
Y32359D01*
Y32384D01*
X40933D01*
X40933Y32410D01*
Y32435D01*
Y32461D01*
Y32486D01*
Y32512D01*
X40933Y32537D01*
X40933Y32563D01*
X40958Y32563D01*
X40958Y32588D01*
X40958Y32614D01*
X40958Y32639D01*
X40958Y32665D01*
Y32690D01*
Y32716D01*
X40984Y32716D01*
X40984Y32741D01*
Y32767D01*
Y32792D01*
X40984Y32818D01*
X40984Y32843D01*
X40984Y32869D01*
X41009Y32869D01*
X41009Y32894D01*
X41009Y32920D01*
Y32945D01*
Y32971D01*
Y32996D01*
Y33022D01*
Y33047D01*
X41034Y33047D01*
Y33073D01*
Y33098D01*
Y33124D01*
X41034Y33149D01*
X41034Y33175D01*
X41034Y33200D01*
X41060D01*
Y33226D01*
Y33251D01*
X41060Y33277D01*
X41060Y33302D01*
Y33328D01*
Y33353D01*
X41085Y33353D01*
Y33379D01*
X41085Y33404D01*
X41085Y33430D01*
Y33455D01*
X41085Y33481D01*
X41085Y33506D01*
X41111Y33506D01*
Y33532D01*
X41111Y33557D01*
Y33583D01*
X41111Y33608D01*
Y33634D01*
X41111Y33659D01*
X41111Y33685D01*
X41137D01*
Y33710D01*
Y33736D01*
Y33761D01*
X41137Y33787D01*
X41137Y33812D01*
X41137Y33838D01*
X41162D01*
X41162Y33863D01*
X41162Y33889D01*
X41162Y33914D01*
X41162Y33940D01*
X41162Y33965D01*
Y33991D01*
X41188Y33991D01*
Y34016D01*
X41188Y34042D01*
X41188Y34067D01*
X41188Y34093D01*
Y34118D01*
Y34144D01*
Y34169D01*
X41213Y34169D01*
X41213Y34195D01*
Y34220D01*
Y34246D01*
X42386D01*
X42386Y34220D01*
D02*
G37*
G36*
X49297Y32665D02*
X49323D01*
Y32639D01*
Y32614D01*
Y32588D01*
X49348Y32588D01*
X49348Y32563D01*
X49348Y32537D01*
X49348Y32512D01*
X49374Y32512D01*
X49374Y32486D01*
X49374Y32461D01*
X49374Y32435D01*
X49399D01*
Y32410D01*
Y32384D01*
Y32359D01*
X49425Y32359D01*
X49425Y32333D01*
X49425Y32308D01*
Y32282D01*
X49450D01*
X49450Y32257D01*
X49450Y32231D01*
X49450Y32206D01*
X49476D01*
X49476Y32180D01*
X49476Y32155D01*
Y32129D01*
X49501D01*
X49501Y32104D01*
X49501Y32078D01*
Y32053D01*
X49527D01*
X49527Y32027D01*
Y32002D01*
Y31976D01*
X49527Y31951D01*
X49578Y31951D01*
X49578Y31976D01*
X49603D01*
Y32002D01*
X49629Y32002D01*
Y32027D01*
Y32053D01*
X49654Y32053D01*
Y32078D01*
X49680Y32078D01*
Y32104D01*
Y32129D01*
X49705Y32129D01*
X49705Y32155D01*
X49731Y32155D01*
X49731Y32180D01*
Y32206D01*
X49756D01*
X49756Y32231D01*
X49782Y32231D01*
X49782Y32257D01*
Y32282D01*
X49807Y32282D01*
X49807Y32308D01*
X49833Y32308D01*
Y32333D01*
Y32359D01*
X49858Y32359D01*
X49858Y32384D01*
X49884Y32384D01*
Y32410D01*
Y32435D01*
X49909D01*
Y32461D01*
X49935D01*
X49935Y32486D01*
X49935Y32512D01*
X49960Y32512D01*
X49960Y32537D01*
X49986D01*
Y32563D01*
Y32588D01*
X50011Y32588D01*
Y32614D01*
X50037Y32614D01*
Y32639D01*
Y32665D01*
X50062D01*
X50062Y32690D01*
X51465D01*
X51465Y32665D01*
X51439Y32665D01*
Y32639D01*
X51414Y32639D01*
X51414Y32614D01*
X51414Y32588D01*
X51388D01*
X51388Y32563D01*
X51363Y32563D01*
Y32537D01*
X51337Y32537D01*
X51337Y32512D01*
Y32486D01*
X51312Y32486D01*
Y32461D01*
X51286D01*
Y32435D01*
X51261D01*
X51261Y32410D01*
X51235D01*
Y32384D01*
Y32359D01*
X51210D01*
Y32333D01*
X51184D01*
X51184Y32308D01*
X51159D01*
Y32282D01*
X51159Y32257D01*
X51133Y32257D01*
X51133Y32231D01*
X51108D01*
Y32206D01*
X51082Y32206D01*
X51082Y32180D01*
X51057Y32180D01*
Y32155D01*
Y32129D01*
X51031D01*
Y32104D01*
X51006Y32104D01*
Y32078D01*
X50980D01*
X50980Y32053D01*
X50980Y32027D01*
X50955D01*
X50955Y32002D01*
X50929Y32002D01*
X50929Y31976D01*
X50904D01*
Y31951D01*
Y31925D01*
X50878Y31925D01*
X50878Y31900D01*
X50853Y31900D01*
Y31874D01*
X50827Y31874D01*
Y31849D01*
X50802Y31849D01*
Y31823D01*
X50802Y31798D01*
X50776D01*
Y31772D01*
X50751D01*
Y31747D01*
X50725D01*
Y31721D01*
Y31696D01*
X50700Y31696D01*
X50700Y31670D01*
X50674Y31670D01*
X50674Y31645D01*
X50649D01*
X50649Y31619D01*
X50649Y31594D01*
X50623Y31594D01*
X50623Y31568D01*
X50598Y31568D01*
X50598Y31543D01*
X50572D01*
Y31517D01*
X50547Y31517D01*
X50547Y31492D01*
Y31466D01*
X50521D01*
Y31441D01*
X50496Y31441D01*
Y31415D01*
X50470D01*
Y31390D01*
Y31364D01*
X50445Y31364D01*
Y31339D01*
X50419D01*
X50419Y31313D01*
X50394Y31313D01*
Y31288D01*
Y31262D01*
X50368D01*
X50368Y31237D01*
X50343D01*
Y31211D01*
X50317Y31211D01*
Y31186D01*
X50292D01*
Y31160D01*
X50292Y31135D01*
X50266Y31135D01*
X50266Y31109D01*
X50241Y31109D01*
X50241Y31084D01*
X50215Y31084D01*
X50215Y31058D01*
Y31033D01*
X50190Y31033D01*
Y31007D01*
X50164Y31007D01*
Y30982D01*
X50139D01*
X50139Y30956D01*
X50113D01*
X50113Y30931D01*
Y30905D01*
X50139Y30905D01*
Y30880D01*
Y30854D01*
X50164Y30854D01*
X50164Y30829D01*
Y30803D01*
X50190D01*
Y30778D01*
X50215D01*
Y30752D01*
Y30727D01*
X50241Y30727D01*
X50241Y30701D01*
X50241Y30676D01*
X50266D01*
X50266Y30650D01*
X50266Y30625D01*
X50292D01*
X50292Y30599D01*
X50292Y30574D01*
X50317D01*
Y30548D01*
X50317Y30523D01*
X50343Y30523D01*
X50343Y30497D01*
X50343Y30472D01*
X50368Y30472D01*
Y30446D01*
Y30421D01*
X50394Y30421D01*
Y30395D01*
X50394Y30370D01*
X50419Y30370D01*
X50419Y30344D01*
X50445D01*
Y30319D01*
X50445Y30293D01*
X50470Y30293D01*
Y30268D01*
Y30242D01*
X50496Y30242D01*
Y30217D01*
X50496Y30191D01*
X50521Y30191D01*
X50521Y30166D01*
X50521Y30140D01*
X50547Y30140D01*
Y30115D01*
Y30089D01*
X50572D01*
X50572Y30064D01*
X50572Y30038D01*
X50598Y30038D01*
X50598Y30013D01*
Y29987D01*
X50623D01*
Y29962D01*
X50649D01*
Y29936D01*
Y29911D01*
X50674D01*
X50674Y29885D01*
X50674Y29860D01*
X50700Y29860D01*
X50700Y29834D01*
Y29809D01*
X50725Y29809D01*
Y29783D01*
Y29758D01*
X50751D01*
X50751Y29732D01*
X50751Y29707D01*
X50776D01*
Y29681D01*
X50776Y29656D01*
X50802D01*
Y29630D01*
Y29605D01*
X50827Y29605D01*
X50827Y29579D01*
X50853D01*
Y29554D01*
Y29528D01*
X50878Y29528D01*
X50878Y29503D01*
Y29477D01*
X50904Y29477D01*
Y29452D01*
X49552Y29452D01*
X49552Y29477D01*
X49527D01*
X49527Y29503D01*
X49527Y29528D01*
X49527Y29554D01*
X49501D01*
Y29579D01*
X49501Y29605D01*
Y29630D01*
X49476Y29630D01*
Y29656D01*
X49476Y29681D01*
X49450D01*
X49450Y29707D01*
X49450Y29732D01*
Y29758D01*
X49425D01*
X49425Y29783D01*
X49425Y29809D01*
X49425Y29834D01*
X49399Y29834D01*
Y29860D01*
Y29885D01*
X49374D01*
X49374Y29911D01*
X49374Y29936D01*
X49374Y29962D01*
X49348Y29962D01*
Y29987D01*
X49348Y30013D01*
X49348Y30038D01*
X49323Y30038D01*
Y30064D01*
Y30089D01*
Y30115D01*
X49297D01*
Y30140D01*
X49246D01*
X49246Y30115D01*
Y30089D01*
X49221Y30089D01*
X49221Y30064D01*
X49195D01*
X49195Y30038D01*
Y30013D01*
X49170Y30013D01*
Y29987D01*
X49144D01*
X49144Y29962D01*
Y29936D01*
X49119Y29936D01*
Y29911D01*
X49093Y29911D01*
X49093Y29885D01*
X49093Y29860D01*
X49068Y29860D01*
X49068Y29834D01*
X49042Y29834D01*
X49042Y29809D01*
X49017D01*
X49017Y29783D01*
Y29758D01*
X48991D01*
X48991Y29732D01*
X48966D01*
Y29707D01*
X48966Y29681D01*
X48940D01*
Y29656D01*
X48915Y29656D01*
Y29630D01*
Y29605D01*
X48889D01*
Y29579D01*
X48864Y29579D01*
X48864Y29554D01*
X48864Y29528D01*
X48838Y29528D01*
X48838Y29503D01*
X48812Y29503D01*
X48812Y29477D01*
Y29452D01*
X47384Y29452D01*
X47384Y29477D01*
X47410Y29477D01*
X47410Y29503D01*
X47436D01*
X47435Y29528D01*
X47461D01*
Y29554D01*
X47486D01*
Y29579D01*
Y29605D01*
X47512Y29605D01*
Y29630D01*
X47537D01*
Y29656D01*
X47563Y29656D01*
X47563Y29681D01*
X47589D01*
Y29707D01*
Y29732D01*
X47614D01*
X47614Y29758D01*
X47640D01*
Y29783D01*
X47665Y29783D01*
Y29809D01*
X47665Y29834D01*
X47690D01*
Y29860D01*
X47716Y29860D01*
Y29885D01*
X47741D01*
X47741Y29911D01*
X47767D01*
X47767Y29936D01*
Y29962D01*
X47793Y29962D01*
Y29987D01*
X47818D01*
Y30013D01*
X47844Y30013D01*
X47844Y30038D01*
X47869Y30038D01*
X47869Y30064D01*
X47869Y30089D01*
X47894D01*
X47894Y30115D01*
X47920Y30115D01*
Y30140D01*
X47945D01*
X47945Y30166D01*
Y30191D01*
X47971D01*
X47971Y30217D01*
X47997Y30217D01*
Y30242D01*
X48022D01*
X48022Y30268D01*
X48048Y30268D01*
X48048Y30293D01*
X48048Y30319D01*
X48073D01*
Y30344D01*
X48098Y30344D01*
Y30370D01*
X48124Y30370D01*
X48124Y30395D01*
X48124Y30421D01*
X48149Y30421D01*
Y30446D01*
X48175Y30446D01*
X48175Y30472D01*
X48201Y30472D01*
X48201Y30497D01*
X48226Y30497D01*
Y30523D01*
X48226Y30548D01*
X48252D01*
Y30574D01*
X48277D01*
Y30599D01*
X48303D01*
Y30625D01*
X48303Y30650D01*
X48328D01*
X48328Y30676D01*
X48353Y30676D01*
X48353Y30701D01*
X48379Y30701D01*
X48379Y30727D01*
X48404Y30727D01*
Y30752D01*
Y30778D01*
X48430Y30778D01*
X48430Y30803D01*
X48456D01*
X48456Y30829D01*
X48481D01*
X48481Y30854D01*
X48507Y30854D01*
Y30880D01*
X48507Y30905D01*
X48532Y30905D01*
X48532Y30931D01*
X48557D01*
Y30956D01*
X48583D01*
X48583Y30982D01*
X48583Y31007D01*
X48608D01*
X48608Y31033D01*
X48634Y31033D01*
Y31058D01*
X48660D01*
Y31084D01*
X48685D01*
Y31109D01*
Y31135D01*
X48711D01*
Y31160D01*
Y31186D01*
Y31211D01*
X48685D01*
X48685Y31237D01*
X48660Y31237D01*
X48660Y31262D01*
X48660Y31288D01*
X48634Y31288D01*
X48634Y31313D01*
X48634Y31339D01*
X48608D01*
Y31364D01*
Y31390D01*
X48583Y31390D01*
Y31415D01*
Y31441D01*
X48557Y31441D01*
Y31466D01*
Y31492D01*
X48532D01*
X48532Y31517D01*
X48532Y31543D01*
X48507D01*
X48507Y31568D01*
X48481D01*
X48481Y31594D01*
Y31619D01*
X48456Y31619D01*
X48456Y31645D01*
X48456Y31670D01*
X48430D01*
Y31696D01*
X48430Y31721D01*
X48404Y31721D01*
X48404Y31747D01*
Y31772D01*
X48379D01*
X48379Y31798D01*
X48379Y31823D01*
X48353D01*
Y31849D01*
X48353Y31874D01*
X48328Y31874D01*
X48328Y31900D01*
X48303D01*
X48303Y31925D01*
X48303Y31951D01*
X48277D01*
Y31976D01*
Y32002D01*
X48252D01*
Y32027D01*
X48252Y32053D01*
X48226D01*
Y32078D01*
X48226Y32104D01*
X48201Y32104D01*
X48201Y32129D01*
Y32155D01*
X48175Y32155D01*
X48175Y32180D01*
Y32206D01*
X48149D01*
X48149Y32231D01*
X48149Y32257D01*
X48124Y32257D01*
X48124Y32282D01*
X48098D01*
Y32308D01*
Y32333D01*
X48073Y32333D01*
Y32359D01*
Y32384D01*
X48048D01*
X48048Y32410D01*
X48048Y32435D01*
X48022D01*
Y32461D01*
X48022Y32486D01*
X47997Y32486D01*
Y32512D01*
Y32537D01*
X47971Y32537D01*
X47971Y32563D01*
Y32588D01*
X47945Y32588D01*
X47945Y32614D01*
X47920D01*
X47920Y32639D01*
X47920Y32665D01*
X47894D01*
Y32690D01*
X49297Y32690D01*
Y32665D01*
D02*
G37*
G36*
X39606Y33914D02*
X39759D01*
X39759Y33889D01*
X39836D01*
X39836Y33863D01*
X39912D01*
Y33838D01*
X39989Y33838D01*
X39989Y33812D01*
X40040Y33812D01*
Y33787D01*
X40065Y33787D01*
Y33761D01*
X40116D01*
Y33736D01*
X40142Y33736D01*
X40142Y33710D01*
X40193Y33710D01*
X40193Y33685D01*
X40218Y33685D01*
X40218Y33659D01*
X40244Y33659D01*
Y33634D01*
X40270D01*
X40269Y33608D01*
X40295Y33608D01*
X40295Y33583D01*
X40320Y33583D01*
X40321Y33557D01*
X40346Y33557D01*
Y33532D01*
Y33506D01*
X40372Y33506D01*
X40371Y33481D01*
X40397Y33481D01*
X40397Y33455D01*
Y33430D01*
X40422Y33430D01*
Y33404D01*
X40448D01*
Y33379D01*
X40448Y33353D01*
X40473Y33353D01*
X40473Y33328D01*
X40473Y33302D01*
Y33277D01*
X40499D01*
Y33251D01*
Y33226D01*
Y33200D01*
X40525D01*
Y33175D01*
Y33149D01*
Y33124D01*
Y33098D01*
X40550D01*
X40550Y33073D01*
X40550Y33047D01*
X40550Y33022D01*
X40550Y32996D01*
X40550Y32971D01*
X40576D01*
Y32945D01*
X40576Y32920D01*
X40576Y32894D01*
Y32869D01*
Y32843D01*
X40576Y32818D01*
X40576Y32792D01*
Y32767D01*
X40576Y32741D01*
Y32716D01*
X40576Y32690D01*
X40576Y32665D01*
X40576Y32639D01*
Y32614D01*
X40576Y32588D01*
Y32563D01*
X40576Y32537D01*
Y32512D01*
X40576Y32486D01*
Y32461D01*
X40550D01*
X40550Y32435D01*
X40550Y32410D01*
Y32384D01*
X40550Y32359D01*
X40550Y32333D01*
X40550Y32308D01*
X40550Y32282D01*
X40525D01*
Y32257D01*
X40525Y32231D01*
Y32206D01*
X40525Y32180D01*
X40525Y32155D01*
X40499Y32155D01*
X40499Y32129D01*
Y32104D01*
X40499Y32078D01*
Y32053D01*
X40499Y32027D01*
X40473Y32027D01*
Y32002D01*
X40473Y31976D01*
X40473Y31951D01*
X40448Y31951D01*
Y31925D01*
X40448Y31900D01*
X40448Y31874D01*
Y31849D01*
X40422Y31849D01*
Y31823D01*
Y31798D01*
Y31772D01*
X40397D01*
Y31747D01*
X40397Y31721D01*
X40371Y31721D01*
Y31696D01*
Y31670D01*
Y31645D01*
X40346D01*
Y31619D01*
X40346Y31594D01*
X40320D01*
Y31568D01*
Y31543D01*
X40295Y31543D01*
X40295Y31517D01*
Y31492D01*
X40269D01*
X40270Y31466D01*
X40244D01*
Y31441D01*
X40244Y31415D01*
X40218Y31415D01*
X40218Y31390D01*
X40193D01*
X40193Y31364D01*
X40167D01*
X40167Y31339D01*
X40167Y31313D01*
X40142Y31313D01*
Y31288D01*
X40116Y31288D01*
Y31262D01*
X40091Y31262D01*
Y31237D01*
X40065Y31237D01*
X40065Y31211D01*
X40040D01*
X40040Y31186D01*
X39989Y31186D01*
X39989Y31160D01*
X39963Y31160D01*
Y31135D01*
X39912Y31135D01*
X39912Y31109D01*
X39887D01*
Y31084D01*
X39836Y31084D01*
X39836Y31058D01*
X39759Y31058D01*
X39759Y31033D01*
X39683Y31033D01*
X39683Y31007D01*
X39606D01*
X39606Y30982D01*
X39453D01*
Y30956D01*
X38994Y30956D01*
X38994Y30982D01*
X38765D01*
X38765Y31007D01*
X38586D01*
X38586Y31033D01*
X38459Y31033D01*
X38459Y31058D01*
X38331Y31058D01*
X38331Y31084D01*
X38204Y31084D01*
Y31058D01*
Y31033D01*
X38204Y31007D01*
Y30982D01*
Y30956D01*
Y30931D01*
X38204Y30905D01*
X38178Y30905D01*
Y30880D01*
Y30854D01*
Y30829D01*
Y30803D01*
Y30778D01*
X38178Y30752D01*
X38153Y30752D01*
X38153Y30727D01*
Y30701D01*
X38153Y30676D01*
Y30650D01*
X38153Y30625D01*
Y30599D01*
X38127Y30599D01*
X38127Y30574D01*
Y30548D01*
X38127Y30523D01*
Y30497D01*
X38127Y30472D01*
X38127Y30446D01*
X38127Y30421D01*
X38102D01*
Y30395D01*
Y30370D01*
Y30344D01*
Y30319D01*
Y30293D01*
Y30268D01*
X38076Y30268D01*
Y30242D01*
Y30217D01*
Y30191D01*
Y30166D01*
Y30140D01*
Y30115D01*
X38051D01*
X38051Y30089D01*
Y30064D01*
Y30038D01*
Y30013D01*
Y29987D01*
Y29962D01*
Y29936D01*
X38025D01*
Y29911D01*
Y29885D01*
X38025Y29860D01*
X38025Y29834D01*
Y29809D01*
Y29783D01*
X38000D01*
X38000Y29758D01*
Y29732D01*
Y29707D01*
Y29681D01*
Y29656D01*
X38000Y29630D01*
X37974D01*
Y29605D01*
Y29579D01*
Y29554D01*
Y29528D01*
Y29503D01*
Y29477D01*
Y29452D01*
X36776D01*
Y29477D01*
X36801D01*
X36801Y29503D01*
X36801Y29528D01*
X36801Y29554D01*
X36801Y29579D01*
Y29605D01*
X36827D01*
Y29630D01*
Y29656D01*
X36827Y29681D01*
X36827Y29707D01*
Y29732D01*
Y29758D01*
X36827Y29783D01*
X36852D01*
Y29809D01*
Y29834D01*
X36852Y29860D01*
X36852Y29885D01*
X36852Y29911D01*
X36852Y29936D01*
X36878Y29936D01*
X36878Y29962D01*
X36878Y29987D01*
X36878Y30013D01*
X36878Y30038D01*
X36878Y30064D01*
Y30089D01*
X36903Y30089D01*
Y30115D01*
X36903Y30140D01*
X36903Y30166D01*
Y30191D01*
Y30217D01*
X36903Y30242D01*
X36903Y30268D01*
X36929Y30268D01*
Y30293D01*
X36929Y30319D01*
X36929Y30344D01*
Y30370D01*
X36929Y30395D01*
X36929Y30421D01*
X36954Y30421D01*
Y30446D01*
Y30472D01*
X36954Y30497D01*
X36954Y30523D01*
Y30548D01*
X36954Y30574D01*
X36980Y30574D01*
X36980Y30599D01*
Y30625D01*
Y30650D01*
Y30676D01*
Y30701D01*
Y30727D01*
X37005D01*
X37005Y30752D01*
Y30778D01*
Y30803D01*
Y30829D01*
X37005Y30854D01*
X37005Y30880D01*
X37005Y30905D01*
X37031Y30905D01*
Y30931D01*
Y30956D01*
X37031Y30982D01*
X37031Y31007D01*
Y31033D01*
Y31058D01*
X37056Y31058D01*
X37056Y31084D01*
Y31109D01*
Y31135D01*
X37056Y31160D01*
Y31186D01*
X37056Y31211D01*
X37082D01*
Y31237D01*
X37082Y31262D01*
X37082Y31288D01*
X37082Y31313D01*
Y31339D01*
X37082Y31364D01*
X37107D01*
Y31390D01*
X37107Y31415D01*
X37107Y31441D01*
X37107Y31466D01*
Y31492D01*
Y31517D01*
X37107Y31543D01*
X37133D01*
X37133Y31568D01*
X37133Y31594D01*
Y31619D01*
X37133Y31645D01*
X37133Y31670D01*
Y31696D01*
X37158Y31696D01*
X37158Y31721D01*
X37158Y31747D01*
X37158Y31772D01*
Y31798D01*
X37158Y31823D01*
X37158Y31849D01*
X37184Y31849D01*
Y31874D01*
Y31900D01*
Y31925D01*
Y31951D01*
Y31976D01*
Y32002D01*
Y32027D01*
X37209D01*
X37209Y32053D01*
Y32078D01*
Y32104D01*
Y32129D01*
Y32155D01*
Y32180D01*
X37235Y32180D01*
Y32206D01*
Y32231D01*
Y32257D01*
Y32282D01*
Y32308D01*
Y32333D01*
X37260Y32333D01*
X37260Y32359D01*
X37260Y32384D01*
X37260Y32410D01*
X37260Y32435D01*
Y32461D01*
X37260Y32486D01*
X37286Y32486D01*
X37286Y32512D01*
Y32537D01*
Y32563D01*
Y32588D01*
Y32614D01*
Y32639D01*
Y32665D01*
X37311D01*
Y32690D01*
Y32716D01*
Y32741D01*
Y32767D01*
X37311Y32792D01*
X37311Y32818D01*
X37337D01*
Y32843D01*
X37337Y32869D01*
Y32894D01*
Y32920D01*
Y32945D01*
Y32971D01*
X37362Y32971D01*
Y32996D01*
Y33022D01*
Y33047D01*
X37362Y33073D01*
X37362Y33098D01*
X37362Y33124D01*
Y33149D01*
X37388D01*
X37388Y33175D01*
Y33200D01*
X37388Y33226D01*
X37388Y33251D01*
Y33277D01*
Y33302D01*
X37413Y33302D01*
Y33328D01*
Y33353D01*
Y33379D01*
Y33404D01*
X37413Y33430D01*
X37413Y33455D01*
X37439D01*
X37439Y33481D01*
Y33506D01*
X37439Y33532D01*
Y33557D01*
Y33583D01*
X37439Y33608D01*
Y33634D01*
X37464D01*
X37464Y33659D01*
X37464Y33685D01*
Y33710D01*
X37464Y33736D01*
Y33761D01*
Y33787D01*
X37490D01*
Y33812D01*
Y33838D01*
Y33863D01*
Y33889D01*
Y33914D01*
Y33940D01*
X39606D01*
Y33914D01*
D02*
G37*
G36*
X47537Y32665D02*
X47537Y32639D01*
X47537Y32614D01*
X47537Y32588D01*
X47537Y32563D01*
Y32537D01*
Y32512D01*
Y32486D01*
Y32461D01*
Y32435D01*
X47537Y32410D01*
Y32384D01*
Y32359D01*
X47537Y32333D01*
Y32308D01*
Y32282D01*
Y32257D01*
Y32231D01*
Y32206D01*
Y32180D01*
Y32155D01*
X47512D01*
Y32129D01*
Y32104D01*
Y32078D01*
Y32053D01*
X47512Y32027D01*
X47486Y32027D01*
Y32002D01*
Y31976D01*
Y31951D01*
Y31925D01*
X47461Y31925D01*
X47461Y31900D01*
X47461Y31874D01*
X47461Y31849D01*
X47461Y31823D01*
X47436D01*
Y31798D01*
X47436Y31772D01*
X47436Y31747D01*
X47410Y31747D01*
Y31721D01*
X47410Y31696D01*
X47410Y31670D01*
X47384Y31670D01*
Y31645D01*
X47384Y31619D01*
X47384Y31594D01*
X47359Y31594D01*
Y31568D01*
X47359Y31543D01*
Y31517D01*
X47333D01*
X47333Y31492D01*
Y31466D01*
X47308D01*
X47308Y31441D01*
X47308Y31415D01*
X47282Y31415D01*
Y31390D01*
X47282Y31364D01*
X47282Y31339D01*
X47257Y31339D01*
X47257Y31313D01*
Y31288D01*
X47232Y31288D01*
X47232Y31262D01*
Y31237D01*
X47232Y31211D01*
X47206D01*
X47206Y31186D01*
Y31160D01*
X47180Y31160D01*
X47181Y31135D01*
X47180Y31109D01*
Y31084D01*
X47155Y31084D01*
Y31058D01*
Y31033D01*
X47129Y31033D01*
Y31007D01*
Y30982D01*
Y30956D01*
X47104Y30956D01*
X47104Y30931D01*
Y30905D01*
X47078Y30905D01*
Y30880D01*
Y30854D01*
Y30829D01*
X47053D01*
X47053Y30803D01*
X47053Y30778D01*
X47027D01*
X47027Y30752D01*
X47027Y30727D01*
X47027Y30701D01*
X47002D01*
X47002Y30676D01*
Y30650D01*
X46976Y30650D01*
Y30625D01*
Y30599D01*
Y30574D01*
X46951D01*
X46951Y30548D01*
X46951Y30523D01*
X46925Y30523D01*
Y30497D01*
Y30472D01*
X46925Y30446D01*
X46900Y30446D01*
X46900Y30421D01*
X46900Y30395D01*
X46874Y30395D01*
Y30370D01*
Y30344D01*
Y30319D01*
X46849D01*
Y30293D01*
X46849Y30268D01*
X46823D01*
Y30242D01*
Y30217D01*
X46823Y30191D01*
X46798D01*
Y30166D01*
Y30140D01*
X46772D01*
X46772Y30115D01*
X46772Y30089D01*
X46772Y30064D01*
X46747Y30064D01*
Y30038D01*
Y30013D01*
X46721D01*
X46721Y29987D01*
Y29962D01*
Y29936D01*
X46696Y29936D01*
X46696Y29911D01*
Y29885D01*
X46670Y29885D01*
Y29860D01*
X46670Y29834D01*
X46670Y29809D01*
X46645Y29809D01*
X46645Y29783D01*
X46645Y29758D01*
X46619D01*
Y29732D01*
Y29707D01*
Y29681D01*
X46594Y29681D01*
X46594Y29656D01*
X46594Y29630D01*
X46568D01*
X46568Y29605D01*
Y29579D01*
X46568Y29554D01*
X46543D01*
X46543Y29528D01*
X46543Y29503D01*
X46517D01*
X46517Y29477D01*
X46517Y29452D01*
Y29426D01*
X46492D01*
Y29401D01*
X46492Y29375D01*
X46466Y29375D01*
Y29350D01*
X46466Y29324D01*
X46441Y29324D01*
X46441Y29299D01*
X46441Y29273D01*
X46415Y29273D01*
Y29248D01*
Y29222D01*
Y29197D01*
X46390Y29197D01*
X46390Y29171D01*
X46364D01*
Y29146D01*
X46364Y29120D01*
Y29094D01*
X46339D01*
X46339Y29069D01*
X46313Y29069D01*
Y29044D01*
Y29018D01*
X46288D01*
X46288Y28993D01*
X46288Y28967D01*
X46262Y28967D01*
X46262Y28942D01*
Y28916D01*
X46237D01*
Y28891D01*
Y28865D01*
X46211D01*
X46211Y28839D01*
X46186Y28840D01*
X46186Y28814D01*
X46186Y28789D01*
X46160D01*
Y28763D01*
Y28738D01*
X46135D01*
X46135Y28712D01*
X46109D01*
X46109Y28686D01*
X46084Y28687D01*
X46084Y28661D01*
Y28635D01*
X46058D01*
X46058Y28610D01*
X46033Y28610D01*
Y28585D01*
X46033Y28559D01*
X46007D01*
Y28534D01*
X45982D01*
Y28508D01*
X45956Y28508D01*
Y28482D01*
X45956Y28457D01*
X45931Y28457D01*
X45931Y28431D01*
X45905Y28431D01*
Y28406D01*
X45880D01*
X45880Y28381D01*
X45854D01*
Y28355D01*
X45829Y28355D01*
Y28330D01*
Y28304D01*
X45803D01*
X45803Y28278D01*
X45778Y28278D01*
X45778Y28253D01*
X45752Y28253D01*
Y28227D01*
X45727Y28227D01*
X45727Y28202D01*
X45701Y28202D01*
X45701Y28177D01*
X45676Y28177D01*
Y28151D01*
X45650Y28151D01*
Y28126D01*
X45599Y28126D01*
X45599Y28100D01*
X45574Y28100D01*
Y28074D01*
X45548Y28074D01*
X45548Y28049D01*
X45523D01*
X45523Y28023D01*
X45497D01*
X45497Y27998D01*
X45446Y27998D01*
Y27972D01*
X45421Y27972D01*
Y27947D01*
X45370D01*
X45370Y27922D01*
X45344Y27922D01*
Y27896D01*
X45293D01*
Y27871D01*
X45268Y27871D01*
Y27845D01*
X45217D01*
X45217Y27819D01*
X45166Y27819D01*
Y27794D01*
X45115D01*
Y27768D01*
X45064Y27768D01*
X45064Y27743D01*
X45013D01*
Y27718D01*
X44936D01*
X44936Y27692D01*
X44885D01*
X44885Y27667D01*
X44809D01*
Y27641D01*
X44707D01*
Y27615D01*
X44605Y27615D01*
Y27590D01*
X44452D01*
Y27564D01*
X44273D01*
X44273Y27539D01*
X44248Y27539D01*
Y27564D01*
Y27590D01*
X44248Y27615D01*
X44248Y27641D01*
Y27667D01*
Y27692D01*
Y27718D01*
X44248Y27743D01*
Y27768D01*
X44248Y27794D01*
X44248Y27819D01*
X44248Y27845D01*
Y27871D01*
X44248Y27896D01*
X44248Y27922D01*
Y27947D01*
Y27972D01*
Y27998D01*
Y28023D01*
Y28049D01*
Y28074D01*
Y28100D01*
Y28126D01*
Y28151D01*
Y28177D01*
Y28202D01*
Y28227D01*
Y28253D01*
Y28278D01*
Y28304D01*
Y28330D01*
Y28355D01*
Y28381D01*
X44299Y28381D01*
Y28406D01*
X44350Y28406D01*
X44350Y28431D01*
X44401D01*
Y28457D01*
X44452D01*
Y28482D01*
X44503Y28482D01*
Y28508D01*
X44554D01*
Y28534D01*
X44579D01*
X44579Y28559D01*
X44630D01*
Y28585D01*
X44656Y28585D01*
X44656Y28610D01*
X44707D01*
X44707Y28636D01*
X44732Y28635D01*
X44732Y28661D01*
X44758Y28661D01*
X44758Y28686D01*
X44809D01*
Y28712D01*
X44834D01*
X44834Y28738D01*
X44860Y28738D01*
Y28763D01*
X44885D01*
X44885Y28789D01*
X44911Y28789D01*
X44911Y28814D01*
X44936Y28814D01*
X44936Y28840D01*
X44962D01*
Y28865D01*
X44987D01*
Y28891D01*
X45013D01*
Y28916D01*
X45038Y28916D01*
Y28942D01*
X45064Y28942D01*
X45064Y28967D01*
X45089Y28967D01*
Y28993D01*
Y29018D01*
X45115D01*
Y29044D01*
X45140Y29043D01*
Y29069D01*
X45166Y29069D01*
X45166Y29095D01*
X45166Y29120D01*
X45191D01*
X45191Y29146D01*
X45217D01*
Y29171D01*
X45217Y29197D01*
X45242Y29197D01*
Y29222D01*
X45242Y29248D01*
X45268D01*
X45268Y29273D01*
X45293D01*
X45293Y29299D01*
X45293Y29324D01*
X45319Y29324D01*
Y29350D01*
Y29375D01*
X45344Y29375D01*
X45344Y29401D01*
X45344Y29426D01*
X45191D01*
X45191Y29452D01*
X45013Y29452D01*
X45013Y29477D01*
X44911D01*
X44911Y29503D01*
X44860Y29503D01*
Y29528D01*
X44783Y29528D01*
X44783Y29554D01*
X44732D01*
Y29579D01*
X44707Y29579D01*
X44707Y29605D01*
X44656Y29605D01*
X44656Y29630D01*
X44630Y29630D01*
Y29656D01*
X44605D01*
X44605Y29681D01*
X44579D01*
Y29707D01*
X44554D01*
X44554Y29732D01*
X44528D01*
X44528Y29758D01*
Y29783D01*
X44503Y29783D01*
Y29809D01*
X44477Y29809D01*
X44477Y29834D01*
Y29860D01*
X44452Y29860D01*
Y29885D01*
Y29911D01*
X44426D01*
Y29936D01*
Y29962D01*
X44401D01*
Y29987D01*
X44401Y30013D01*
X44401Y30038D01*
X44375Y30038D01*
X44375Y30064D01*
Y30089D01*
Y30115D01*
Y30140D01*
X44350Y30140D01*
X44350Y30166D01*
X44350Y30191D01*
Y30217D01*
X44350Y30242D01*
Y30268D01*
X44350Y30293D01*
Y30319D01*
X44324D01*
Y30344D01*
Y30370D01*
Y30395D01*
Y30421D01*
X44324Y30446D01*
X44324Y30472D01*
Y30497D01*
X44324Y30523D01*
X44324Y30548D01*
Y30574D01*
Y30599D01*
Y30625D01*
Y30650D01*
Y30676D01*
Y30701D01*
X44299Y30701D01*
Y30727D01*
X44299Y30752D01*
X44299Y30778D01*
Y30803D01*
X44299Y30829D01*
X44299Y30854D01*
Y30880D01*
Y30905D01*
Y30931D01*
X44299Y30956D01*
Y30982D01*
Y31007D01*
X44299Y31033D01*
Y31058D01*
Y31084D01*
X44273D01*
X44273Y31109D01*
X44273Y31135D01*
X44273Y31160D01*
X44273Y31186D01*
Y31211D01*
X44273Y31237D01*
X44273Y31262D01*
X44273Y31288D01*
Y31313D01*
Y31339D01*
Y31364D01*
Y31390D01*
X44273Y31415D01*
Y31441D01*
X44273Y31466D01*
Y31492D01*
X44248Y31492D01*
Y31517D01*
Y31543D01*
Y31568D01*
Y31594D01*
Y31619D01*
Y31645D01*
Y31670D01*
Y31696D01*
X44248Y31721D01*
X44248Y31747D01*
X44248Y31772D01*
X44248Y31798D01*
Y31823D01*
Y31849D01*
Y31874D01*
Y31900D01*
X44222D01*
Y31925D01*
Y31951D01*
Y31976D01*
Y32002D01*
Y32027D01*
Y32053D01*
X44222Y32078D01*
X44222Y32104D01*
X44222Y32129D01*
X44222Y32155D01*
X44222Y32180D01*
X44222Y32206D01*
Y32231D01*
Y32257D01*
X44197Y32257D01*
Y32282D01*
Y32308D01*
Y32333D01*
Y32359D01*
Y32384D01*
Y32410D01*
X44197Y32435D01*
X44197Y32461D01*
Y32486D01*
Y32512D01*
X44197Y32537D01*
X44197Y32563D01*
Y32588D01*
Y32614D01*
Y32639D01*
Y32665D01*
X44171D01*
X44171Y32690D01*
X45395D01*
X45395Y32665D01*
Y32639D01*
X45395Y32614D01*
Y32588D01*
Y32563D01*
Y32537D01*
Y32512D01*
Y32486D01*
Y32461D01*
X45395Y32435D01*
X45395Y32410D01*
X45395Y32384D01*
X45395Y32359D01*
X45395Y32333D01*
X45421D01*
X45421Y32308D01*
X45421Y32282D01*
Y32257D01*
Y32231D01*
Y32206D01*
Y32180D01*
Y32155D01*
Y32129D01*
Y32104D01*
Y32078D01*
Y32053D01*
Y32027D01*
Y32002D01*
Y31976D01*
Y31951D01*
Y31925D01*
Y31900D01*
Y31874D01*
Y31849D01*
Y31823D01*
Y31798D01*
Y31772D01*
Y31747D01*
Y31721D01*
Y31696D01*
Y31670D01*
Y31645D01*
Y31619D01*
Y31594D01*
Y31568D01*
Y31543D01*
Y31517D01*
Y31492D01*
Y31466D01*
Y31441D01*
Y31415D01*
Y31390D01*
Y31364D01*
Y31339D01*
Y31313D01*
Y31288D01*
X45446D01*
X45446Y31262D01*
X45421Y31262D01*
Y31237D01*
Y31211D01*
X45446D01*
X45446Y31186D01*
X45446Y31160D01*
Y31135D01*
X45446Y31109D01*
X45446Y31084D01*
X45446Y31058D01*
Y31033D01*
X45446Y31007D01*
X45446Y30982D01*
X45446Y30956D01*
Y30931D01*
Y30905D01*
X45446Y30880D01*
X45446Y30854D01*
X45446Y30829D01*
X45446Y30803D01*
Y30778D01*
X45446Y30752D01*
X45446Y30727D01*
X45446Y30701D01*
X45446Y30676D01*
X45446Y30650D01*
Y30625D01*
Y30599D01*
Y30574D01*
X45446Y30548D01*
X45472D01*
X45472Y30523D01*
X45472Y30497D01*
X45472Y30472D01*
X45497D01*
X45497Y30446D01*
X45523D01*
X45523Y30421D01*
X45548D01*
X45548Y30395D01*
X45625Y30395D01*
X45625Y30370D01*
X45701D01*
Y30395D01*
X45727Y30395D01*
Y30421D01*
X45727Y30446D01*
Y30472D01*
X45752D01*
X45752Y30497D01*
X45752Y30523D01*
X45778Y30523D01*
Y30548D01*
X45778Y30574D01*
X45778Y30599D01*
X45803D01*
Y30625D01*
X45803Y30650D01*
X45803Y30676D01*
X45829Y30676D01*
X45829Y30701D01*
X45829Y30727D01*
X45829Y30752D01*
X45854D01*
X45854Y30778D01*
Y30803D01*
X45854Y30829D01*
X45880D01*
Y30854D01*
Y30880D01*
X45905D01*
X45905Y30905D01*
X45905Y30931D01*
X45905Y30956D01*
X45931D01*
Y30982D01*
X45931Y31007D01*
X45931Y31033D01*
X45956Y31033D01*
Y31058D01*
X45956Y31084D01*
X45956Y31109D01*
X45982Y31109D01*
X45982Y31135D01*
X45982Y31160D01*
X46007Y31160D01*
Y31186D01*
Y31211D01*
Y31237D01*
X46033D01*
Y31262D01*
X46033Y31288D01*
Y31313D01*
X46058D01*
X46058Y31339D01*
X46058Y31364D01*
X46058Y31390D01*
X46084Y31390D01*
Y31415D01*
Y31441D01*
X46109D01*
X46109Y31466D01*
X46109Y31492D01*
Y31517D01*
X46135Y31517D01*
X46135Y31543D01*
X46135Y31568D01*
X46135Y31594D01*
X46160Y31594D01*
X46160Y31619D01*
X46160Y31645D01*
X46160Y31670D01*
X46186Y31670D01*
Y31696D01*
Y31721D01*
X46211D01*
Y31747D01*
Y31772D01*
X46211Y31798D01*
X46237D01*
X46237Y31823D01*
Y31849D01*
X46237Y31874D01*
X46262Y31874D01*
Y31900D01*
Y31925D01*
X46262Y31951D01*
X46288Y31951D01*
Y31976D01*
X46288Y32002D01*
X46288Y32027D01*
X46288Y32053D01*
X46313D01*
Y32078D01*
Y32104D01*
Y32129D01*
Y32155D01*
X46339Y32155D01*
Y32180D01*
Y32206D01*
X46339Y32231D01*
X46339Y32257D01*
Y32282D01*
X46364Y32282D01*
Y32308D01*
X46364Y32333D01*
X46364Y32359D01*
X46364Y32384D01*
X46364Y32410D01*
X46364Y32435D01*
X46390D01*
X46390Y32461D01*
X46390Y32486D01*
X46390Y32512D01*
Y32537D01*
Y32563D01*
X46390Y32588D01*
Y32614D01*
X46390Y32639D01*
X46390Y32665D01*
X46390Y32690D01*
X47537D01*
Y32665D01*
D02*
G37*
G36*
X42218Y15233D02*
X42895D01*
Y14561D01*
Y13873D01*
Y13180D01*
Y12492D01*
Y11804D01*
Y11116D01*
Y10428D01*
Y9756D01*
Y9074D01*
X40154D01*
Y9756D01*
X39461D01*
Y9074D01*
X33979D01*
Y9756D01*
X33968D01*
Y9074D01*
X31227D01*
Y9756D01*
X30534D01*
Y9074D01*
X27793D01*
Y9756D01*
X27105D01*
Y10428D01*
Y11116D01*
Y11804D01*
Y12492D01*
Y13180D01*
Y13873D01*
Y14561D01*
Y15233D01*
Y15926D01*
X29846D01*
Y15233D01*
X30534D01*
Y15926D01*
X38773D01*
Y15233D01*
X39461D01*
Y15926D01*
X42218D01*
Y15233D01*
D02*
G37*
G36*
X46346Y7233D02*
X47034D01*
Y6561D01*
X47711D01*
Y5873D01*
Y5180D01*
Y4492D01*
Y3804D01*
Y3116D01*
Y2428D01*
Y1756D01*
X47034D01*
Y1074D01*
X42224D01*
Y1756D01*
X41536D01*
Y2428D01*
X41525D01*
Y1756D01*
Y1074D01*
X38784D01*
Y1756D01*
X38090D01*
Y1074D01*
X35349D01*
Y1756D01*
X35339D01*
Y1074D01*
X32598D01*
Y1756D01*
X31904D01*
Y1074D01*
X29163D01*
Y1756D01*
X29152D01*
Y1074D01*
X26411D01*
Y1756D01*
X25718D01*
Y1074D01*
X22977D01*
Y1756D01*
X22289D01*
Y2428D01*
Y3116D01*
Y3804D01*
Y4492D01*
Y5180D01*
Y5873D01*
Y6561D01*
Y7233D01*
Y7926D01*
X25030D01*
Y7233D01*
X25718D01*
Y7926D01*
X28475D01*
Y7233D01*
X29163D01*
Y7926D01*
X33974D01*
Y7233D01*
X34661D01*
Y7926D01*
X37402D01*
Y7233D01*
X38090D01*
Y7926D01*
X40848D01*
Y7233D01*
X41536D01*
Y7926D01*
X46346D01*
Y7233D01*
D02*
G37*
G36*
X841951Y-293603D02*
X841665D01*
Y-293889D01*
X841378D01*
Y-294176D01*
Y-294462D01*
X841092D01*
Y-294748D01*
X840806D01*
Y-295035D01*
X840519D01*
Y-295321D01*
Y-295607D01*
X840233D01*
Y-295894D01*
X839947D01*
Y-296180D01*
X839660D01*
Y-296466D01*
X839374D01*
Y-296752D01*
Y-297039D01*
X839088D01*
Y-297325D01*
X838801D01*
Y-297611D01*
X838515D01*
Y-297898D01*
Y-298184D01*
X838229D01*
Y-298470D01*
X837943D01*
Y-298757D01*
X837656D01*
Y-299043D01*
X837370D01*
Y-299329D01*
Y-299616D01*
X837084D01*
Y-299902D01*
X836797D01*
Y-300188D01*
X836511D01*
Y-300475D01*
Y-300761D01*
X836225D01*
Y-301047D01*
X835938D01*
Y-301333D01*
X835652D01*
Y-301620D01*
Y-301906D01*
X835366D01*
Y-302192D01*
X835079D01*
Y-302479D01*
X834793D01*
Y-302765D01*
X834507D01*
Y-303051D01*
Y-303338D01*
X834221D01*
Y-303624D01*
X833934D01*
Y-303910D01*
X833648D01*
Y-304197D01*
Y-304483D01*
X833362D01*
Y-304769D01*
X833075D01*
Y-305055D01*
X832789D01*
Y-305342D01*
Y-305628D01*
X832503D01*
Y-305914D01*
X832216D01*
Y-306201D01*
X831930D01*
Y-306487D01*
X831644D01*
Y-306773D01*
Y-307060D01*
X831357D01*
Y-307346D01*
X831071D01*
Y-307632D01*
X830785D01*
Y-307919D01*
Y-308205D01*
X830499D01*
Y-308491D01*
X830212D01*
Y-308778D01*
X829926D01*
Y-309064D01*
Y-309350D01*
X829640D01*
Y-309636D01*
X829353D01*
Y-309923D01*
X829067D01*
Y-310209D01*
X828781D01*
Y-310495D01*
Y-310782D01*
X828494D01*
Y-311068D01*
X828208D01*
Y-311354D01*
X827922D01*
Y-311641D01*
Y-311927D01*
X827635D01*
Y-312213D01*
X827349D01*
Y-312500D01*
X827063D01*
Y-312786D01*
X826776D01*
Y-313072D01*
Y-313359D01*
X827063D01*
Y-313645D01*
Y-313931D01*
X827349D01*
Y-314217D01*
Y-314504D01*
X827635D01*
Y-314790D01*
X827922D01*
Y-315076D01*
Y-315363D01*
X828208D01*
Y-315649D01*
Y-315935D01*
X828494D01*
Y-316222D01*
Y-316508D01*
X828781D01*
Y-316794D01*
Y-317081D01*
X829067D01*
Y-317367D01*
Y-317653D01*
X829353D01*
Y-317940D01*
Y-318226D01*
X829640D01*
Y-318512D01*
Y-318798D01*
X829926D01*
Y-319085D01*
Y-319371D01*
X830212D01*
Y-319657D01*
X830499D01*
Y-319944D01*
Y-320230D01*
X830785D01*
Y-320516D01*
Y-320803D01*
X831071D01*
Y-321089D01*
Y-321375D01*
X831357D01*
Y-321662D01*
Y-321948D01*
X831644D01*
Y-322234D01*
Y-322521D01*
X831930D01*
Y-322807D01*
Y-323093D01*
X832216D01*
Y-323379D01*
Y-323666D01*
X832503D01*
Y-323952D01*
X832789D01*
Y-324238D01*
Y-324525D01*
X833075D01*
Y-324811D01*
Y-325097D01*
X833362D01*
Y-325384D01*
Y-325670D01*
X833648D01*
Y-325956D01*
Y-326243D01*
X833934D01*
Y-326529D01*
Y-326815D01*
X834221D01*
Y-327102D01*
Y-327388D01*
X834507D01*
Y-327674D01*
Y-327960D01*
X834793D01*
Y-328247D01*
X835079D01*
Y-328533D01*
Y-328819D01*
X835366D01*
Y-329106D01*
Y-329392D01*
X835652D01*
Y-329678D01*
X820477D01*
Y-329392D01*
X820191D01*
Y-329106D01*
Y-328819D01*
Y-328533D01*
X819905D01*
Y-328247D01*
Y-327960D01*
Y-327674D01*
X819619D01*
Y-327388D01*
Y-327102D01*
X819332D01*
Y-326815D01*
Y-326529D01*
Y-326243D01*
X819046D01*
Y-325956D01*
Y-325670D01*
Y-325384D01*
X818760D01*
Y-325097D01*
Y-324811D01*
X818473D01*
Y-324525D01*
Y-324238D01*
Y-323952D01*
X818187D01*
Y-323666D01*
Y-323379D01*
Y-323093D01*
X817901D01*
Y-322807D01*
Y-322521D01*
Y-322234D01*
X817614D01*
Y-321948D01*
X817042D01*
Y-322234D01*
Y-322521D01*
X816755D01*
Y-322807D01*
X816469D01*
Y-323093D01*
Y-323379D01*
X816183D01*
Y-323666D01*
X815897D01*
Y-323952D01*
Y-324238D01*
X815610D01*
Y-324525D01*
X815324D01*
Y-324811D01*
Y-325097D01*
X815038D01*
Y-325384D01*
X814751D01*
Y-325670D01*
X814465D01*
Y-325956D01*
Y-326243D01*
X814179D01*
Y-326529D01*
X813892D01*
Y-326815D01*
Y-327102D01*
X813606D01*
Y-327388D01*
X813320D01*
Y-327674D01*
Y-327960D01*
X813033D01*
Y-328247D01*
X812747D01*
Y-328533D01*
Y-328819D01*
X812461D01*
Y-329106D01*
X812174D01*
Y-329392D01*
Y-329678D01*
X796141D01*
Y-329392D01*
X796427D01*
Y-329106D01*
X796714D01*
Y-328819D01*
X797000D01*
Y-328533D01*
X797286D01*
Y-328247D01*
Y-327960D01*
X797573D01*
Y-327674D01*
X797859D01*
Y-327388D01*
X798145D01*
Y-327102D01*
X798431D01*
Y-326815D01*
Y-326529D01*
X798718D01*
Y-326243D01*
X799004D01*
Y-325956D01*
X799290D01*
Y-325670D01*
Y-325384D01*
X799577D01*
Y-325097D01*
X799863D01*
Y-324811D01*
X800149D01*
Y-324525D01*
X800436D01*
Y-324238D01*
Y-323952D01*
X800722D01*
Y-323666D01*
X801008D01*
Y-323379D01*
X801295D01*
Y-323093D01*
X801581D01*
Y-322807D01*
Y-322521D01*
X801867D01*
Y-322234D01*
X802153D01*
Y-321948D01*
X802440D01*
Y-321662D01*
Y-321375D01*
X802726D01*
Y-321089D01*
X803012D01*
Y-320803D01*
X803299D01*
Y-320516D01*
X803585D01*
Y-320230D01*
Y-319944D01*
X803871D01*
Y-319657D01*
X804158D01*
Y-319371D01*
X804444D01*
Y-319085D01*
Y-318798D01*
X804730D01*
Y-318512D01*
X805017D01*
Y-318226D01*
X805303D01*
Y-317940D01*
X805589D01*
Y-317653D01*
Y-317367D01*
X805876D01*
Y-317081D01*
X806162D01*
Y-316794D01*
X806448D01*
Y-316508D01*
Y-316222D01*
X806734D01*
Y-315935D01*
X807021D01*
Y-315649D01*
X807307D01*
Y-315363D01*
X807594D01*
Y-315076D01*
Y-314790D01*
X807880D01*
Y-314504D01*
X808166D01*
Y-314217D01*
X808452D01*
Y-313931D01*
X808739D01*
Y-313645D01*
Y-313359D01*
X809025D01*
Y-313072D01*
X809311D01*
Y-312786D01*
X809598D01*
Y-312500D01*
Y-312213D01*
X809884D01*
Y-311927D01*
X810170D01*
Y-311641D01*
X810457D01*
Y-311354D01*
X810743D01*
Y-311068D01*
Y-310782D01*
X811029D01*
Y-310495D01*
Y-310209D01*
Y-309923D01*
X810743D01*
Y-309636D01*
X810457D01*
Y-309350D01*
Y-309064D01*
X810170D01*
Y-308778D01*
Y-308491D01*
X809884D01*
Y-308205D01*
Y-307919D01*
X809598D01*
Y-307632D01*
Y-307346D01*
X809311D01*
Y-307060D01*
Y-306773D01*
X809025D01*
Y-306487D01*
Y-306201D01*
X808739D01*
Y-305914D01*
X808452D01*
Y-305628D01*
Y-305342D01*
X808166D01*
Y-305055D01*
Y-304769D01*
X807880D01*
Y-304483D01*
Y-304197D01*
X807594D01*
Y-303910D01*
Y-303624D01*
X807307D01*
Y-303338D01*
Y-303051D01*
X807021D01*
Y-302765D01*
Y-302479D01*
X806734D01*
Y-302192D01*
X806448D01*
Y-301906D01*
Y-301620D01*
X806162D01*
Y-301333D01*
Y-301047D01*
X805876D01*
Y-300761D01*
Y-300475D01*
X805589D01*
Y-300188D01*
Y-299902D01*
X805303D01*
Y-299616D01*
Y-299329D01*
X805017D01*
Y-299043D01*
Y-298757D01*
X804730D01*
Y-298470D01*
Y-298184D01*
X804444D01*
Y-297898D01*
X804158D01*
Y-297611D01*
Y-297325D01*
X803871D01*
Y-297039D01*
Y-296752D01*
X803585D01*
Y-296466D01*
Y-296180D01*
X803299D01*
Y-295894D01*
Y-295607D01*
X803012D01*
Y-295321D01*
Y-295035D01*
X802726D01*
Y-294748D01*
Y-294462D01*
X802440D01*
Y-294176D01*
X802153D01*
Y-293889D01*
Y-293603D01*
X801867D01*
Y-293317D01*
X817614D01*
Y-293603D01*
X817901D01*
Y-293889D01*
Y-294176D01*
Y-294462D01*
X818187D01*
Y-294748D01*
Y-295035D01*
Y-295321D01*
X818473D01*
Y-295607D01*
Y-295894D01*
Y-296180D01*
X818760D01*
Y-296466D01*
Y-296752D01*
Y-297039D01*
X819046D01*
Y-297325D01*
Y-297611D01*
Y-297898D01*
X819332D01*
Y-298184D01*
Y-298470D01*
Y-298757D01*
X819619D01*
Y-299043D01*
Y-299329D01*
Y-299616D01*
X819905D01*
Y-299902D01*
Y-300188D01*
Y-300475D01*
X820191D01*
Y-300761D01*
Y-301047D01*
Y-301333D01*
Y-301620D01*
X820764D01*
Y-301333D01*
X821050D01*
Y-301047D01*
X821336D01*
Y-300761D01*
Y-300475D01*
X821623D01*
Y-300188D01*
X821909D01*
Y-299902D01*
Y-299616D01*
X822195D01*
Y-299329D01*
X822482D01*
Y-299043D01*
Y-298757D01*
X822768D01*
Y-298470D01*
X823054D01*
Y-298184D01*
Y-297898D01*
X823341D01*
Y-297611D01*
X823627D01*
Y-297325D01*
Y-297039D01*
X823913D01*
Y-296752D01*
X824200D01*
Y-296466D01*
Y-296180D01*
X824486D01*
Y-295894D01*
X824772D01*
Y-295607D01*
Y-295321D01*
X825058D01*
Y-295035D01*
X825345D01*
Y-294748D01*
Y-294462D01*
X825631D01*
Y-294176D01*
X825918D01*
Y-293889D01*
Y-293603D01*
X826204D01*
Y-293317D01*
X841951D01*
Y-293603D01*
D02*
G37*
G36*
X708815Y-279574D02*
X710533D01*
Y-279860D01*
X711392D01*
Y-280146D01*
X712251D01*
Y-280433D01*
X713110D01*
Y-280719D01*
X713683D01*
Y-281005D01*
X713969D01*
Y-281292D01*
X714542D01*
Y-281578D01*
X714828D01*
Y-281864D01*
X715401D01*
Y-282151D01*
X715687D01*
Y-282437D01*
X715973D01*
Y-282723D01*
X716260D01*
Y-283009D01*
X716546D01*
Y-283296D01*
X716832D01*
Y-283582D01*
X717119D01*
Y-283868D01*
Y-284155D01*
X717405D01*
Y-284441D01*
X717691D01*
Y-284727D01*
Y-285014D01*
X717978D01*
Y-285300D01*
X718264D01*
Y-285586D01*
Y-285873D01*
X718550D01*
Y-286159D01*
Y-286445D01*
Y-286732D01*
X718836D01*
Y-287018D01*
Y-287304D01*
Y-287590D01*
X719123D01*
Y-287877D01*
Y-288163D01*
Y-288449D01*
Y-288736D01*
X719409D01*
Y-289022D01*
Y-289308D01*
Y-289595D01*
Y-289881D01*
Y-290167D01*
X719695D01*
Y-290454D01*
Y-290740D01*
Y-291026D01*
Y-291313D01*
Y-291599D01*
Y-291885D01*
Y-292171D01*
Y-292458D01*
Y-292744D01*
Y-293030D01*
Y-293317D01*
Y-293603D01*
Y-293889D01*
Y-294176D01*
Y-294462D01*
Y-294748D01*
Y-295035D01*
Y-295321D01*
Y-295607D01*
Y-295894D01*
X719409D01*
Y-296180D01*
Y-296466D01*
Y-296752D01*
Y-297039D01*
Y-297325D01*
Y-297611D01*
Y-297898D01*
X719123D01*
Y-298184D01*
Y-298470D01*
Y-298757D01*
Y-299043D01*
Y-299329D01*
X718836D01*
Y-299616D01*
Y-299902D01*
Y-300188D01*
Y-300475D01*
Y-300761D01*
X718550D01*
Y-301047D01*
Y-301333D01*
Y-301620D01*
X718264D01*
Y-301906D01*
Y-302192D01*
Y-302479D01*
Y-302765D01*
X717978D01*
Y-303051D01*
Y-303338D01*
Y-303624D01*
X717691D01*
Y-303910D01*
Y-304197D01*
X717405D01*
Y-304483D01*
Y-304769D01*
Y-305055D01*
X717119D01*
Y-305342D01*
Y-305628D01*
X716832D01*
Y-305914D01*
Y-306201D01*
X716546D01*
Y-306487D01*
Y-306773D01*
X716260D01*
Y-307060D01*
X715973D01*
Y-307346D01*
Y-307632D01*
X715687D01*
Y-307919D01*
X715401D01*
Y-308205D01*
X715114D01*
Y-308491D01*
Y-308778D01*
X714828D01*
Y-309064D01*
X714542D01*
Y-309350D01*
X714256D01*
Y-309636D01*
X713969D01*
Y-309923D01*
X713683D01*
Y-310209D01*
X713110D01*
Y-310495D01*
X712824D01*
Y-310782D01*
X712251D01*
Y-311068D01*
X711965D01*
Y-311354D01*
X711392D01*
Y-311641D01*
X710533D01*
Y-311927D01*
X709674D01*
Y-312213D01*
X708815D01*
Y-312500D01*
X707098D01*
Y-312786D01*
X701944D01*
Y-312500D01*
X699367D01*
Y-312213D01*
X697363D01*
Y-311927D01*
X695931D01*
Y-311641D01*
X694500D01*
Y-311354D01*
X693068D01*
Y-311641D01*
Y-311927D01*
Y-312213D01*
Y-312500D01*
Y-312786D01*
Y-313072D01*
Y-313359D01*
X692782D01*
Y-313645D01*
Y-313931D01*
Y-314217D01*
Y-314504D01*
Y-314790D01*
Y-315076D01*
X692496D01*
Y-315363D01*
Y-315649D01*
Y-315935D01*
Y-316222D01*
Y-316508D01*
Y-316794D01*
X692209D01*
Y-317081D01*
Y-317367D01*
Y-317653D01*
Y-317940D01*
Y-318226D01*
Y-318512D01*
Y-318798D01*
X691923D01*
Y-319085D01*
Y-319371D01*
Y-319657D01*
Y-319944D01*
Y-320230D01*
Y-320516D01*
X691637D01*
Y-320803D01*
Y-321089D01*
Y-321375D01*
Y-321662D01*
Y-321948D01*
Y-322234D01*
X691350D01*
Y-322521D01*
Y-322807D01*
Y-323093D01*
Y-323379D01*
Y-323666D01*
Y-323952D01*
Y-324238D01*
X691064D01*
Y-324525D01*
Y-324811D01*
Y-325097D01*
Y-325384D01*
Y-325670D01*
Y-325956D01*
X690778D01*
Y-326243D01*
Y-326529D01*
Y-326815D01*
Y-327102D01*
Y-327388D01*
Y-327674D01*
X690491D01*
Y-327960D01*
Y-328247D01*
Y-328533D01*
Y-328819D01*
Y-329106D01*
Y-329392D01*
Y-329678D01*
X677035D01*
Y-329392D01*
X677321D01*
Y-329106D01*
Y-328819D01*
Y-328533D01*
Y-328247D01*
Y-327960D01*
X677607D01*
Y-327674D01*
Y-327388D01*
Y-327102D01*
Y-326815D01*
Y-326529D01*
Y-326243D01*
Y-325956D01*
X677894D01*
Y-325670D01*
Y-325384D01*
Y-325097D01*
Y-324811D01*
Y-324525D01*
Y-324238D01*
X678180D01*
Y-323952D01*
Y-323666D01*
Y-323379D01*
Y-323093D01*
Y-322807D01*
Y-322521D01*
X678466D01*
Y-322234D01*
Y-321948D01*
Y-321662D01*
Y-321375D01*
Y-321089D01*
Y-320803D01*
Y-320516D01*
X678753D01*
Y-320230D01*
Y-319944D01*
Y-319657D01*
Y-319371D01*
Y-319085D01*
Y-318798D01*
X679039D01*
Y-318512D01*
Y-318226D01*
Y-317940D01*
Y-317653D01*
Y-317367D01*
Y-317081D01*
X679325D01*
Y-316794D01*
Y-316508D01*
Y-316222D01*
Y-315935D01*
Y-315649D01*
Y-315363D01*
X679612D01*
Y-315076D01*
Y-314790D01*
Y-314504D01*
Y-314217D01*
Y-313931D01*
Y-313645D01*
Y-313359D01*
X679898D01*
Y-313072D01*
Y-312786D01*
Y-312500D01*
Y-312213D01*
Y-311927D01*
Y-311641D01*
X680184D01*
Y-311354D01*
Y-311068D01*
Y-310782D01*
Y-310495D01*
Y-310209D01*
Y-309923D01*
X680471D01*
Y-309636D01*
Y-309350D01*
Y-309064D01*
Y-308778D01*
Y-308491D01*
Y-308205D01*
X680757D01*
Y-307919D01*
Y-307632D01*
Y-307346D01*
Y-307060D01*
Y-306773D01*
Y-306487D01*
Y-306201D01*
X681043D01*
Y-305914D01*
Y-305628D01*
Y-305342D01*
Y-305055D01*
Y-304769D01*
Y-304483D01*
X681329D01*
Y-304197D01*
Y-303910D01*
Y-303624D01*
Y-303338D01*
Y-303051D01*
Y-302765D01*
X681616D01*
Y-302479D01*
Y-302192D01*
Y-301906D01*
Y-301620D01*
Y-301333D01*
Y-301047D01*
Y-300761D01*
X681902D01*
Y-300475D01*
Y-300188D01*
Y-299902D01*
Y-299616D01*
Y-299329D01*
Y-299043D01*
X682188D01*
Y-298757D01*
Y-298470D01*
Y-298184D01*
Y-297898D01*
Y-297611D01*
Y-297325D01*
X682475D01*
Y-297039D01*
Y-296752D01*
Y-296466D01*
Y-296180D01*
Y-295894D01*
Y-295607D01*
X682761D01*
Y-295321D01*
Y-295035D01*
Y-294748D01*
Y-294462D01*
Y-294176D01*
Y-293889D01*
Y-293603D01*
X683047D01*
Y-293317D01*
Y-293030D01*
Y-292744D01*
Y-292458D01*
Y-292171D01*
Y-291885D01*
X683334D01*
Y-291599D01*
Y-291313D01*
Y-291026D01*
Y-290740D01*
Y-290454D01*
Y-290167D01*
X683620D01*
Y-289881D01*
Y-289595D01*
Y-289308D01*
Y-289022D01*
Y-288736D01*
Y-288449D01*
Y-288163D01*
X683906D01*
Y-287877D01*
Y-287590D01*
Y-287304D01*
Y-287018D01*
Y-286732D01*
Y-286445D01*
X684193D01*
Y-286159D01*
Y-285873D01*
Y-285586D01*
Y-285300D01*
Y-285014D01*
Y-284727D01*
X684479D01*
Y-284441D01*
Y-284155D01*
Y-283868D01*
Y-283582D01*
Y-283296D01*
Y-283009D01*
Y-282723D01*
X684765D01*
Y-282437D01*
Y-282151D01*
Y-281864D01*
Y-281578D01*
Y-281292D01*
Y-281005D01*
X685052D01*
Y-280719D01*
Y-280433D01*
Y-280146D01*
Y-279860D01*
Y-279574D01*
Y-279287D01*
X708815D01*
Y-279574D01*
D02*
G37*
G36*
X797859Y-293603D02*
Y-293889D01*
Y-294176D01*
Y-294462D01*
Y-294748D01*
Y-295035D01*
Y-295321D01*
Y-295607D01*
Y-295894D01*
Y-296180D01*
Y-296466D01*
Y-296752D01*
Y-297039D01*
Y-297325D01*
Y-297611D01*
Y-297898D01*
Y-298184D01*
Y-298470D01*
Y-298757D01*
Y-299043D01*
Y-299329D01*
X797573D01*
Y-299616D01*
Y-299902D01*
Y-300188D01*
Y-300475D01*
Y-300761D01*
X797286D01*
Y-301047D01*
Y-301333D01*
Y-301620D01*
Y-301906D01*
X797000D01*
Y-302192D01*
Y-302479D01*
Y-302765D01*
Y-303051D01*
X796714D01*
Y-303338D01*
Y-303624D01*
Y-303910D01*
X796427D01*
Y-304197D01*
Y-304483D01*
Y-304769D01*
X796141D01*
Y-305055D01*
Y-305342D01*
Y-305628D01*
X795855D01*
Y-305914D01*
Y-306201D01*
Y-306487D01*
X795568D01*
Y-306773D01*
Y-307060D01*
X795282D01*
Y-307346D01*
Y-307632D01*
X794996D01*
Y-307919D01*
Y-308205D01*
Y-308491D01*
X794709D01*
Y-308778D01*
Y-309064D01*
X794423D01*
Y-309350D01*
Y-309636D01*
Y-309923D01*
X794137D01*
Y-310209D01*
Y-310495D01*
X793850D01*
Y-310782D01*
Y-311068D01*
Y-311354D01*
X793564D01*
Y-311641D01*
Y-311927D01*
X793278D01*
Y-312213D01*
Y-312500D01*
Y-312786D01*
X792991D01*
Y-313072D01*
Y-313359D01*
X792705D01*
Y-313645D01*
Y-313931D01*
Y-314217D01*
X792419D01*
Y-314504D01*
Y-314790D01*
X792133D01*
Y-315076D01*
Y-315363D01*
Y-315649D01*
X791846D01*
Y-315935D01*
Y-316222D01*
X791560D01*
Y-316508D01*
Y-316794D01*
Y-317081D01*
X791274D01*
Y-317367D01*
Y-317653D01*
X790987D01*
Y-317940D01*
Y-318226D01*
Y-318512D01*
X790701D01*
Y-318798D01*
Y-319085D01*
X790415D01*
Y-319371D01*
Y-319657D01*
Y-319944D01*
X790128D01*
Y-320230D01*
Y-320516D01*
X789842D01*
Y-320803D01*
Y-321089D01*
Y-321375D01*
X789556D01*
Y-321662D01*
Y-321948D01*
X789269D01*
Y-322234D01*
Y-322521D01*
Y-322807D01*
X788983D01*
Y-323093D01*
Y-323379D01*
X788697D01*
Y-323666D01*
Y-323952D01*
Y-324238D01*
X788411D01*
Y-324525D01*
Y-324811D01*
X788124D01*
Y-325097D01*
Y-325384D01*
Y-325670D01*
X787838D01*
Y-325956D01*
Y-326243D01*
X787552D01*
Y-326529D01*
Y-326815D01*
Y-327102D01*
X787265D01*
Y-327388D01*
Y-327674D01*
X786979D01*
Y-327960D01*
Y-328247D01*
Y-328533D01*
X786693D01*
Y-328819D01*
Y-329106D01*
X786406D01*
Y-329392D01*
Y-329678D01*
Y-329965D01*
X786120D01*
Y-330251D01*
Y-330537D01*
X785834D01*
Y-330824D01*
Y-331110D01*
X785547D01*
Y-331396D01*
Y-331683D01*
X785261D01*
Y-331969D01*
Y-332255D01*
Y-332542D01*
X784975D01*
Y-332828D01*
X784688D01*
Y-333114D01*
Y-333401D01*
Y-333687D01*
X784402D01*
Y-333973D01*
X784116D01*
Y-334259D01*
Y-334546D01*
X783829D01*
Y-334832D01*
Y-335118D01*
X783543D01*
Y-335405D01*
Y-335691D01*
X783257D01*
Y-335977D01*
Y-336264D01*
X782971D01*
Y-336550D01*
X782684D01*
Y-336836D01*
Y-337123D01*
X782398D01*
Y-337409D01*
Y-337695D01*
X782112D01*
Y-337982D01*
X781825D01*
Y-338268D01*
X781539D01*
Y-338554D01*
Y-338840D01*
X781253D01*
Y-339127D01*
X780966D01*
Y-339413D01*
Y-339699D01*
X780680D01*
Y-339986D01*
X780394D01*
Y-340272D01*
X780107D01*
Y-340558D01*
Y-340845D01*
X779821D01*
Y-341131D01*
X779535D01*
Y-341417D01*
X779249D01*
Y-341704D01*
X778962D01*
Y-341990D01*
X778676D01*
Y-342276D01*
Y-342563D01*
X778390D01*
Y-342849D01*
X778103D01*
Y-343135D01*
X777817D01*
Y-343421D01*
X777531D01*
Y-343708D01*
X777244D01*
Y-343994D01*
X776958D01*
Y-344280D01*
X776672D01*
Y-344567D01*
X776099D01*
Y-344853D01*
X775813D01*
Y-345139D01*
X775526D01*
Y-345426D01*
X775240D01*
Y-345712D01*
X774954D01*
Y-345998D01*
X774381D01*
Y-346285D01*
X774095D01*
Y-346571D01*
X773522D01*
Y-346857D01*
X773236D01*
Y-347144D01*
X772663D01*
Y-347430D01*
X772377D01*
Y-347716D01*
X771804D01*
Y-348002D01*
X771232D01*
Y-348289D01*
X770659D01*
Y-348575D01*
X770086D01*
Y-348861D01*
X769514D01*
Y-349148D01*
X768655D01*
Y-349434D01*
X768082D01*
Y-349720D01*
X767223D01*
Y-350007D01*
X766078D01*
Y-350293D01*
X764933D01*
Y-350579D01*
X763215D01*
Y-350866D01*
X761211D01*
Y-351152D01*
X760924D01*
Y-350866D01*
Y-350579D01*
Y-350293D01*
Y-350007D01*
Y-349720D01*
Y-349434D01*
Y-349148D01*
Y-348861D01*
Y-348575D01*
Y-348289D01*
Y-348002D01*
Y-347716D01*
Y-347430D01*
Y-347144D01*
Y-346857D01*
Y-346571D01*
Y-346285D01*
Y-345998D01*
Y-345712D01*
Y-345426D01*
Y-345139D01*
Y-344853D01*
Y-344567D01*
Y-344280D01*
Y-343994D01*
Y-343708D01*
Y-343421D01*
Y-343135D01*
Y-342849D01*
Y-342563D01*
Y-342276D01*
Y-341990D01*
Y-341704D01*
X761497D01*
Y-341417D01*
X762070D01*
Y-341131D01*
X762642D01*
Y-340845D01*
X763215D01*
Y-340558D01*
X763788D01*
Y-340272D01*
X764360D01*
Y-339986D01*
X764646D01*
Y-339699D01*
X765219D01*
Y-339413D01*
X765506D01*
Y-339127D01*
X766078D01*
Y-338840D01*
X766364D01*
Y-338554D01*
X766651D01*
Y-338268D01*
X767223D01*
Y-337982D01*
X767510D01*
Y-337695D01*
X767796D01*
Y-337409D01*
X768082D01*
Y-337123D01*
X768369D01*
Y-336836D01*
X768655D01*
Y-336550D01*
X768941D01*
Y-336264D01*
X769228D01*
Y-335977D01*
X769514D01*
Y-335691D01*
X769800D01*
Y-335405D01*
X770086D01*
Y-335118D01*
X770373D01*
Y-334832D01*
Y-334546D01*
X770659D01*
Y-334259D01*
X770945D01*
Y-333973D01*
X771232D01*
Y-333687D01*
Y-333401D01*
X771518D01*
Y-333114D01*
X771804D01*
Y-332828D01*
Y-332542D01*
X772091D01*
Y-332255D01*
Y-331969D01*
X772377D01*
Y-331683D01*
X772663D01*
Y-331396D01*
Y-331110D01*
X772950D01*
Y-330824D01*
Y-330537D01*
X773236D01*
Y-330251D01*
Y-329965D01*
X771518D01*
Y-329678D01*
X769514D01*
Y-329392D01*
X768369D01*
Y-329106D01*
X767796D01*
Y-328819D01*
X766937D01*
Y-328533D01*
X766364D01*
Y-328247D01*
X766078D01*
Y-327960D01*
X765506D01*
Y-327674D01*
X765219D01*
Y-327388D01*
X764933D01*
Y-327102D01*
X764646D01*
Y-326815D01*
X764360D01*
Y-326529D01*
X764074D01*
Y-326243D01*
Y-325956D01*
X763788D01*
Y-325670D01*
X763501D01*
Y-325384D01*
Y-325097D01*
X763215D01*
Y-324811D01*
Y-324525D01*
X762929D01*
Y-324238D01*
Y-323952D01*
X762642D01*
Y-323666D01*
Y-323379D01*
Y-323093D01*
X762356D01*
Y-322807D01*
Y-322521D01*
Y-322234D01*
Y-321948D01*
X762070D01*
Y-321662D01*
Y-321375D01*
Y-321089D01*
Y-320803D01*
Y-320516D01*
Y-320230D01*
Y-319944D01*
X761783D01*
Y-319657D01*
Y-319371D01*
Y-319085D01*
Y-318798D01*
Y-318512D01*
Y-318226D01*
Y-317940D01*
Y-317653D01*
Y-317367D01*
Y-317081D01*
Y-316794D01*
Y-316508D01*
Y-316222D01*
Y-315935D01*
Y-315649D01*
X761497D01*
Y-315363D01*
Y-315076D01*
Y-314790D01*
Y-314504D01*
Y-314217D01*
Y-313931D01*
Y-313645D01*
Y-313359D01*
Y-313072D01*
Y-312786D01*
Y-312500D01*
Y-312213D01*
Y-311927D01*
Y-311641D01*
Y-311354D01*
X761211D01*
Y-311068D01*
Y-310782D01*
Y-310495D01*
Y-310209D01*
Y-309923D01*
Y-309636D01*
Y-309350D01*
Y-309064D01*
Y-308778D01*
Y-308491D01*
Y-308205D01*
Y-307919D01*
Y-307632D01*
Y-307346D01*
Y-307060D01*
Y-306773D01*
X760924D01*
Y-306487D01*
Y-306201D01*
Y-305914D01*
Y-305628D01*
Y-305342D01*
Y-305055D01*
Y-304769D01*
Y-304483D01*
Y-304197D01*
Y-303910D01*
Y-303624D01*
Y-303338D01*
Y-303051D01*
Y-302765D01*
Y-302479D01*
Y-302192D01*
X760638D01*
Y-301906D01*
Y-301620D01*
Y-301333D01*
Y-301047D01*
Y-300761D01*
Y-300475D01*
Y-300188D01*
Y-299902D01*
Y-299616D01*
Y-299329D01*
Y-299043D01*
Y-298757D01*
Y-298470D01*
Y-298184D01*
X760352D01*
Y-297898D01*
Y-297611D01*
Y-297325D01*
Y-297039D01*
Y-296752D01*
Y-296466D01*
Y-296180D01*
Y-295894D01*
Y-295607D01*
Y-295321D01*
Y-295035D01*
Y-294748D01*
Y-294462D01*
Y-294176D01*
Y-293889D01*
Y-293603D01*
X760066D01*
Y-293317D01*
X773808D01*
Y-293603D01*
Y-293889D01*
Y-294176D01*
Y-294462D01*
Y-294748D01*
Y-295035D01*
Y-295321D01*
Y-295607D01*
Y-295894D01*
Y-296180D01*
Y-296466D01*
Y-296752D01*
Y-297039D01*
Y-297325D01*
X774095D01*
Y-297611D01*
Y-297898D01*
Y-298184D01*
Y-298470D01*
Y-298757D01*
Y-299043D01*
Y-299329D01*
Y-299616D01*
Y-299902D01*
Y-300188D01*
Y-300475D01*
Y-300761D01*
Y-301047D01*
Y-301333D01*
Y-301620D01*
Y-301906D01*
Y-302192D01*
Y-302479D01*
Y-302765D01*
Y-303051D01*
Y-303338D01*
Y-303624D01*
Y-303910D01*
Y-304197D01*
Y-304483D01*
Y-304769D01*
Y-305055D01*
Y-305342D01*
Y-305628D01*
Y-305914D01*
Y-306201D01*
Y-306487D01*
Y-306773D01*
Y-307060D01*
Y-307346D01*
Y-307632D01*
Y-307919D01*
Y-308205D01*
Y-308491D01*
Y-308778D01*
Y-309064D01*
X774381D01*
Y-309350D01*
X774095D01*
Y-309636D01*
Y-309923D01*
X774381D01*
Y-310209D01*
Y-310495D01*
Y-310782D01*
Y-311068D01*
Y-311354D01*
Y-311641D01*
Y-311927D01*
Y-312213D01*
Y-312500D01*
Y-312786D01*
Y-313072D01*
Y-313359D01*
Y-313645D01*
Y-313931D01*
Y-314217D01*
Y-314504D01*
Y-314790D01*
Y-315076D01*
Y-315363D01*
Y-315649D01*
Y-315935D01*
Y-316222D01*
Y-316508D01*
Y-316794D01*
Y-317081D01*
Y-317367D01*
X774668D01*
Y-317653D01*
Y-317940D01*
Y-318226D01*
X774954D01*
Y-318512D01*
X775240D01*
Y-318798D01*
X775526D01*
Y-319085D01*
X776385D01*
Y-319371D01*
X777244D01*
Y-319085D01*
X777531D01*
Y-318798D01*
Y-318512D01*
Y-318226D01*
X777817D01*
Y-317940D01*
Y-317653D01*
X778103D01*
Y-317367D01*
Y-317081D01*
Y-316794D01*
X778390D01*
Y-316508D01*
Y-316222D01*
Y-315935D01*
X778676D01*
Y-315649D01*
Y-315363D01*
Y-315076D01*
X778962D01*
Y-314790D01*
Y-314504D01*
Y-314217D01*
X779249D01*
Y-313931D01*
Y-313645D01*
X779535D01*
Y-313359D01*
Y-313072D01*
Y-312786D01*
X779821D01*
Y-312500D01*
Y-312213D01*
Y-311927D01*
X780107D01*
Y-311641D01*
Y-311354D01*
Y-311068D01*
X780394D01*
Y-310782D01*
Y-310495D01*
X780680D01*
Y-310209D01*
Y-309923D01*
Y-309636D01*
X780966D01*
Y-309350D01*
Y-309064D01*
Y-308778D01*
X781253D01*
Y-308491D01*
Y-308205D01*
Y-307919D01*
X781539D01*
Y-307632D01*
Y-307346D01*
X781825D01*
Y-307060D01*
Y-306773D01*
Y-306487D01*
X782112D01*
Y-306201D01*
Y-305914D01*
Y-305628D01*
X782398D01*
Y-305342D01*
Y-305055D01*
Y-304769D01*
X782684D01*
Y-304483D01*
Y-304197D01*
X782971D01*
Y-303910D01*
Y-303624D01*
Y-303338D01*
X783257D01*
Y-303051D01*
Y-302765D01*
Y-302479D01*
X783543D01*
Y-302192D01*
Y-301906D01*
Y-301620D01*
X783829D01*
Y-301333D01*
Y-301047D01*
Y-300761D01*
Y-300475D01*
X784116D01*
Y-300188D01*
Y-299902D01*
Y-299616D01*
Y-299329D01*
X784402D01*
Y-299043D01*
Y-298757D01*
Y-298470D01*
Y-298184D01*
Y-297898D01*
X784688D01*
Y-297611D01*
Y-297325D01*
Y-297039D01*
Y-296752D01*
Y-296466D01*
Y-296180D01*
X784975D01*
Y-295894D01*
Y-295607D01*
Y-295321D01*
Y-295035D01*
Y-294748D01*
Y-294462D01*
Y-294176D01*
Y-293889D01*
Y-293603D01*
Y-293317D01*
X797859D01*
Y-293603D01*
D02*
G37*
G36*
X740024Y-276138D02*
Y-276424D01*
X739737D01*
Y-276711D01*
Y-276997D01*
Y-277283D01*
Y-277570D01*
Y-277856D01*
Y-278142D01*
X739451D01*
Y-278428D01*
Y-278715D01*
Y-279001D01*
Y-279287D01*
Y-279574D01*
Y-279860D01*
X739165D01*
Y-280146D01*
Y-280433D01*
Y-280719D01*
Y-281005D01*
Y-281292D01*
Y-281578D01*
Y-281864D01*
X738878D01*
Y-282151D01*
Y-282437D01*
Y-282723D01*
Y-283009D01*
Y-283296D01*
Y-283582D01*
X738592D01*
Y-283868D01*
Y-284155D01*
Y-284441D01*
Y-284727D01*
Y-285014D01*
Y-285300D01*
X738306D01*
Y-285586D01*
Y-285873D01*
Y-286159D01*
Y-286445D01*
Y-286732D01*
Y-287018D01*
Y-287304D01*
X738019D01*
Y-287590D01*
Y-287877D01*
Y-288163D01*
Y-288449D01*
Y-288736D01*
Y-289022D01*
X737733D01*
Y-289308D01*
Y-289595D01*
Y-289881D01*
Y-290167D01*
Y-290454D01*
Y-290740D01*
X737447D01*
Y-291026D01*
Y-291313D01*
Y-291599D01*
Y-291885D01*
Y-292171D01*
Y-292458D01*
X737160D01*
Y-292744D01*
Y-293030D01*
Y-293317D01*
Y-293603D01*
Y-293889D01*
Y-294176D01*
Y-294462D01*
X736874D01*
Y-294748D01*
Y-295035D01*
Y-295321D01*
Y-295607D01*
Y-295894D01*
Y-296180D01*
X736588D01*
Y-296466D01*
Y-296752D01*
X737160D01*
Y-296466D01*
X737447D01*
Y-296180D01*
X737733D01*
Y-295894D01*
X738306D01*
Y-295607D01*
X738592D01*
Y-295321D01*
X738878D01*
Y-295035D01*
X739451D01*
Y-294748D01*
X740024D01*
Y-294462D01*
X740310D01*
Y-294176D01*
X740882D01*
Y-293889D01*
X741742D01*
Y-293603D01*
X742314D01*
Y-293317D01*
X743173D01*
Y-293030D01*
X744605D01*
Y-292744D01*
X750904D01*
Y-293030D01*
X752049D01*
Y-293317D01*
X752908D01*
Y-293603D01*
X753480D01*
Y-293889D01*
X753767D01*
Y-294176D01*
X754339D01*
Y-294462D01*
X754626D01*
Y-294748D01*
X754912D01*
Y-295035D01*
X755198D01*
Y-295321D01*
X755484D01*
Y-295607D01*
Y-295894D01*
X755771D01*
Y-296180D01*
Y-296466D01*
X756057D01*
Y-296752D01*
Y-297039D01*
Y-297325D01*
X756344D01*
Y-297611D01*
Y-297898D01*
Y-298184D01*
Y-298470D01*
X756630D01*
Y-298757D01*
Y-299043D01*
Y-299329D01*
Y-299616D01*
Y-299902D01*
Y-300188D01*
Y-300475D01*
Y-300761D01*
Y-301047D01*
Y-301333D01*
Y-301620D01*
Y-301906D01*
Y-302192D01*
Y-302479D01*
Y-302765D01*
Y-303051D01*
Y-303338D01*
Y-303624D01*
X756344D01*
Y-303910D01*
Y-304197D01*
Y-304483D01*
Y-304769D01*
Y-305055D01*
Y-305342D01*
Y-305628D01*
X756057D01*
Y-305914D01*
Y-306201D01*
Y-306487D01*
Y-306773D01*
Y-307060D01*
Y-307346D01*
Y-307632D01*
X755771D01*
Y-307919D01*
Y-308205D01*
Y-308491D01*
Y-308778D01*
Y-309064D01*
Y-309350D01*
X755484D01*
Y-309636D01*
Y-309923D01*
Y-310209D01*
Y-310495D01*
Y-310782D01*
Y-311068D01*
X755198D01*
Y-311354D01*
Y-311641D01*
Y-311927D01*
Y-312213D01*
Y-312500D01*
Y-312786D01*
X754912D01*
Y-313072D01*
Y-313359D01*
Y-313645D01*
Y-313931D01*
Y-314217D01*
Y-314504D01*
Y-314790D01*
X754626D01*
Y-315076D01*
Y-315363D01*
Y-315649D01*
Y-315935D01*
Y-316222D01*
Y-316508D01*
X754339D01*
Y-316794D01*
Y-317081D01*
Y-317367D01*
Y-317653D01*
Y-317940D01*
Y-318226D01*
X754053D01*
Y-318512D01*
Y-318798D01*
Y-319085D01*
Y-319371D01*
Y-319657D01*
Y-319944D01*
Y-320230D01*
X753767D01*
Y-320516D01*
Y-320803D01*
Y-321089D01*
Y-321375D01*
Y-321662D01*
Y-321948D01*
X753480D01*
Y-322234D01*
Y-322521D01*
Y-322807D01*
Y-323093D01*
Y-323379D01*
Y-323666D01*
X753194D01*
Y-323952D01*
Y-324238D01*
Y-324525D01*
Y-324811D01*
Y-325097D01*
Y-325384D01*
X752908D01*
Y-325670D01*
Y-325956D01*
Y-326243D01*
Y-326529D01*
Y-326815D01*
Y-327102D01*
Y-327388D01*
X752621D01*
Y-327674D01*
Y-327960D01*
Y-328247D01*
Y-328533D01*
Y-328819D01*
Y-329106D01*
X752335D01*
Y-329392D01*
Y-329678D01*
X739165D01*
Y-329392D01*
Y-329106D01*
X739451D01*
Y-328819D01*
Y-328533D01*
Y-328247D01*
Y-327960D01*
Y-327674D01*
Y-327388D01*
X739737D01*
Y-327102D01*
Y-326815D01*
Y-326529D01*
Y-326243D01*
Y-325956D01*
Y-325670D01*
Y-325384D01*
X740024D01*
Y-325097D01*
Y-324811D01*
Y-324525D01*
Y-324238D01*
Y-323952D01*
Y-323666D01*
X740310D01*
Y-323379D01*
Y-323093D01*
Y-322807D01*
Y-322521D01*
Y-322234D01*
Y-321948D01*
X740596D01*
Y-321662D01*
Y-321375D01*
Y-321089D01*
Y-320803D01*
Y-320516D01*
Y-320230D01*
Y-319944D01*
X740882D01*
Y-319657D01*
Y-319371D01*
Y-319085D01*
Y-318798D01*
Y-318512D01*
Y-318226D01*
X741169D01*
Y-317940D01*
Y-317653D01*
Y-317367D01*
Y-317081D01*
Y-316794D01*
Y-316508D01*
Y-316222D01*
X741455D01*
Y-315935D01*
Y-315649D01*
Y-315363D01*
Y-315076D01*
Y-314790D01*
Y-314504D01*
X741742D01*
Y-314217D01*
Y-313931D01*
Y-313645D01*
Y-313359D01*
Y-313072D01*
Y-312786D01*
X742028D01*
Y-312500D01*
Y-312213D01*
Y-311927D01*
Y-311641D01*
Y-311354D01*
Y-311068D01*
X742314D01*
Y-310782D01*
Y-310495D01*
Y-310209D01*
Y-309923D01*
Y-309636D01*
Y-309350D01*
Y-309064D01*
X742600D01*
Y-308778D01*
Y-308491D01*
Y-308205D01*
Y-307919D01*
Y-307632D01*
Y-307346D01*
X742887D01*
Y-307060D01*
Y-306773D01*
Y-306487D01*
Y-306201D01*
Y-305914D01*
Y-305628D01*
Y-305342D01*
X743173D01*
Y-305055D01*
Y-304769D01*
Y-304483D01*
Y-304197D01*
Y-303910D01*
Y-303624D01*
X742887D01*
Y-303338D01*
Y-303051D01*
X742600D01*
Y-302765D01*
X742314D01*
Y-302479D01*
X741742D01*
Y-302192D01*
X740024D01*
Y-302479D01*
X738592D01*
Y-302765D01*
X737733D01*
Y-303051D01*
X737160D01*
Y-303338D01*
X736874D01*
Y-303624D01*
X736302D01*
Y-303910D01*
X736015D01*
Y-304197D01*
X735729D01*
Y-304483D01*
Y-304769D01*
X735443D01*
Y-305055D01*
Y-305342D01*
Y-305628D01*
X735156D01*
Y-305914D01*
Y-306201D01*
Y-306487D01*
Y-306773D01*
Y-307060D01*
Y-307346D01*
X734870D01*
Y-307632D01*
Y-307919D01*
Y-308205D01*
Y-308491D01*
Y-308778D01*
Y-309064D01*
Y-309350D01*
X734584D01*
Y-309636D01*
Y-309923D01*
Y-310209D01*
Y-310495D01*
Y-310782D01*
Y-311068D01*
X734297D01*
Y-311354D01*
Y-311641D01*
Y-311927D01*
Y-312213D01*
Y-312500D01*
Y-312786D01*
X734011D01*
Y-313072D01*
Y-313359D01*
Y-313645D01*
Y-313931D01*
Y-314217D01*
Y-314504D01*
X733725D01*
Y-314790D01*
Y-315076D01*
Y-315363D01*
Y-315649D01*
Y-315935D01*
Y-316222D01*
Y-316508D01*
X733438D01*
Y-316794D01*
Y-317081D01*
Y-317367D01*
Y-317653D01*
Y-317940D01*
Y-318226D01*
X733152D01*
Y-318512D01*
Y-318798D01*
Y-319085D01*
Y-319371D01*
Y-319657D01*
Y-319944D01*
X732866D01*
Y-320230D01*
Y-320516D01*
Y-320803D01*
Y-321089D01*
Y-321375D01*
Y-321662D01*
Y-321948D01*
X732580D01*
Y-322234D01*
Y-322521D01*
Y-322807D01*
Y-323093D01*
Y-323379D01*
Y-323666D01*
X732293D01*
Y-323952D01*
Y-324238D01*
Y-324525D01*
Y-324811D01*
Y-325097D01*
Y-325384D01*
X732007D01*
Y-325670D01*
Y-325956D01*
Y-326243D01*
Y-326529D01*
Y-326815D01*
Y-327102D01*
X731720D01*
Y-327388D01*
Y-327674D01*
Y-327960D01*
Y-328247D01*
Y-328533D01*
Y-328819D01*
Y-329106D01*
X731434D01*
Y-329392D01*
Y-329678D01*
X718264D01*
Y-329392D01*
Y-329106D01*
X718550D01*
Y-328819D01*
Y-328533D01*
Y-328247D01*
Y-327960D01*
Y-327674D01*
Y-327388D01*
Y-327102D01*
X718836D01*
Y-326815D01*
Y-326529D01*
Y-326243D01*
Y-325956D01*
Y-325670D01*
Y-325384D01*
X719123D01*
Y-325097D01*
Y-324811D01*
Y-324525D01*
Y-324238D01*
Y-323952D01*
Y-323666D01*
X719409D01*
Y-323379D01*
Y-323093D01*
Y-322807D01*
Y-322521D01*
Y-322234D01*
Y-321948D01*
Y-321662D01*
X719695D01*
Y-321375D01*
Y-321089D01*
Y-320803D01*
Y-320516D01*
Y-320230D01*
Y-319944D01*
X719982D01*
Y-319657D01*
Y-319371D01*
Y-319085D01*
Y-318798D01*
Y-318512D01*
Y-318226D01*
X720268D01*
Y-317940D01*
Y-317653D01*
Y-317367D01*
Y-317081D01*
Y-316794D01*
Y-316508D01*
X720554D01*
Y-316222D01*
Y-315935D01*
Y-315649D01*
Y-315363D01*
Y-315076D01*
Y-314790D01*
Y-314504D01*
X720841D01*
Y-314217D01*
Y-313931D01*
Y-313645D01*
Y-313359D01*
Y-313072D01*
Y-312786D01*
X721127D01*
Y-312500D01*
Y-312213D01*
Y-311927D01*
Y-311641D01*
Y-311354D01*
Y-311068D01*
X721413D01*
Y-310782D01*
Y-310495D01*
Y-310209D01*
Y-309923D01*
Y-309636D01*
Y-309350D01*
Y-309064D01*
X721700D01*
Y-308778D01*
Y-308491D01*
Y-308205D01*
Y-307919D01*
Y-307632D01*
Y-307346D01*
X721986D01*
Y-307060D01*
Y-306773D01*
Y-306487D01*
Y-306201D01*
Y-305914D01*
Y-305628D01*
X722272D01*
Y-305342D01*
Y-305055D01*
Y-304769D01*
Y-304483D01*
Y-304197D01*
Y-303910D01*
X722558D01*
Y-303624D01*
Y-303338D01*
Y-303051D01*
Y-302765D01*
Y-302479D01*
Y-302192D01*
Y-301906D01*
X722845D01*
Y-301620D01*
Y-301333D01*
Y-301047D01*
Y-300761D01*
Y-300475D01*
Y-300188D01*
X723131D01*
Y-299902D01*
Y-299616D01*
Y-299329D01*
Y-299043D01*
Y-298757D01*
Y-298470D01*
X723418D01*
Y-298184D01*
Y-297898D01*
Y-297611D01*
Y-297325D01*
Y-297039D01*
Y-296752D01*
X723704D01*
Y-296466D01*
Y-296180D01*
Y-295894D01*
Y-295607D01*
Y-295321D01*
Y-295035D01*
Y-294748D01*
X723990D01*
Y-294462D01*
Y-294176D01*
Y-293889D01*
Y-293603D01*
Y-293317D01*
Y-293030D01*
X724276D01*
Y-292744D01*
Y-292458D01*
Y-292171D01*
Y-291885D01*
Y-291599D01*
Y-291313D01*
X724563D01*
Y-291026D01*
Y-290740D01*
Y-290454D01*
Y-290167D01*
Y-289881D01*
Y-289595D01*
Y-289308D01*
X724849D01*
Y-289022D01*
Y-288736D01*
Y-288449D01*
Y-288163D01*
Y-287877D01*
Y-287590D01*
X725135D01*
Y-287304D01*
Y-287018D01*
Y-286732D01*
Y-286445D01*
Y-286159D01*
Y-285873D01*
X725422D01*
Y-285586D01*
Y-285300D01*
Y-285014D01*
Y-284727D01*
Y-284441D01*
Y-284155D01*
X725708D01*
Y-283868D01*
Y-283582D01*
Y-283296D01*
Y-283009D01*
Y-282723D01*
Y-282437D01*
Y-282151D01*
X725994D01*
Y-281864D01*
Y-281578D01*
Y-281292D01*
Y-281005D01*
Y-280719D01*
Y-280433D01*
X726281D01*
Y-280146D01*
Y-279860D01*
Y-279574D01*
Y-279287D01*
Y-279001D01*
Y-278715D01*
X726567D01*
Y-278428D01*
Y-278142D01*
Y-277856D01*
Y-277570D01*
Y-277283D01*
Y-276997D01*
Y-276711D01*
X726853D01*
Y-276424D01*
Y-276138D01*
Y-275852D01*
X740024D01*
Y-276138D01*
D02*
G37*
%LPC*%
G36*
X39224Y32945D02*
X38510D01*
Y32920D01*
Y32894D01*
X38510Y32869D01*
X38510Y32843D01*
X38510Y32818D01*
X38484D01*
Y32792D01*
Y32767D01*
Y32741D01*
X38484Y32716D01*
Y32690D01*
Y32665D01*
X38459D01*
X38459Y32639D01*
Y32614D01*
Y32588D01*
X38459Y32563D01*
X38459Y32537D01*
Y32512D01*
X38433D01*
X38433Y32486D01*
Y32461D01*
Y32435D01*
Y32410D01*
Y32384D01*
Y32359D01*
X38408D01*
Y32333D01*
Y32308D01*
Y32282D01*
Y32257D01*
Y32231D01*
Y32206D01*
Y32180D01*
X38382Y32180D01*
X38382Y32155D01*
Y32129D01*
Y32104D01*
X38382Y32078D01*
Y32053D01*
Y32027D01*
X38357D01*
Y32002D01*
Y31976D01*
Y31951D01*
X38994D01*
Y31976D01*
X39096D01*
Y32002D01*
X39147Y32002D01*
Y32027D01*
X39173Y32027D01*
Y32053D01*
X39198Y32053D01*
X39198Y32078D01*
X39224D01*
Y32104D01*
X39249D01*
X39249Y32129D01*
Y32155D01*
X39275Y32155D01*
Y32180D01*
Y32206D01*
X39300D01*
Y32231D01*
Y32257D01*
X39326D01*
X39326Y32282D01*
X39326Y32308D01*
X39326Y32333D01*
Y32359D01*
X39351D01*
Y32384D01*
X39351Y32410D01*
Y32435D01*
X39351Y32461D01*
X39351Y32486D01*
X39377D01*
Y32512D01*
Y32537D01*
Y32563D01*
X39377Y32588D01*
X39377Y32614D01*
Y32639D01*
Y32665D01*
X39377Y32690D01*
X39377Y32716D01*
Y32741D01*
Y32767D01*
X39351D01*
Y32792D01*
Y32818D01*
X39326D01*
Y32843D01*
X39326Y32869D01*
X39300Y32869D01*
X39300Y32894D01*
X39275D01*
Y32920D01*
X39224D01*
Y32945D01*
D02*
G37*
G36*
X41530Y15233D02*
X40154D01*
Y14561D01*
X39461D01*
Y13873D01*
X38773D01*
Y14561D01*
X38096D01*
Y15233D01*
X36720D01*
Y14561D01*
Y13873D01*
Y13180D01*
Y12492D01*
Y11804D01*
Y11116D01*
Y10428D01*
X38096D01*
Y11116D01*
Y11804D01*
Y12492D01*
Y13180D01*
X38773D01*
Y12492D01*
X39461D01*
Y13180D01*
X40154D01*
Y12492D01*
Y11804D01*
Y11116D01*
Y10428D01*
X41530D01*
Y11116D01*
Y11804D01*
Y12492D01*
Y13180D01*
Y13873D01*
Y14561D01*
Y15233D01*
D02*
G37*
G36*
X32603D02*
X31227D01*
Y14561D01*
Y13873D01*
Y13180D01*
Y12492D01*
X30534D01*
Y13180D01*
X29846D01*
Y12492D01*
X29169D01*
Y13180D01*
Y13873D01*
Y14561D01*
Y15233D01*
X27793D01*
Y14561D01*
Y13873D01*
Y13180D01*
Y12492D01*
Y11804D01*
Y11116D01*
Y10428D01*
X29169D01*
Y11116D01*
X29846D01*
Y11804D01*
X30534D01*
Y11116D01*
X31227D01*
Y10428D01*
X32603D01*
Y11116D01*
Y11804D01*
Y12492D01*
Y13180D01*
Y13873D01*
Y14561D01*
Y15233D01*
D02*
G37*
G36*
X35355D02*
X33979D01*
Y14561D01*
Y13873D01*
Y13180D01*
Y12492D01*
Y11804D01*
Y11116D01*
Y10428D01*
X35355D01*
Y11116D01*
Y11804D01*
Y12492D01*
Y13180D01*
Y13873D01*
Y14561D01*
Y15233D01*
D02*
G37*
G36*
X45658Y7233D02*
X42224D01*
Y6561D01*
X41536D01*
Y5873D01*
Y5180D01*
X42224D01*
Y4492D01*
X44970D01*
Y3804D01*
Y3116D01*
X42911D01*
Y3804D01*
X41536D01*
Y3116D01*
X42224D01*
Y2428D01*
X45658D01*
Y3116D01*
X46346D01*
Y3804D01*
Y4492D01*
X45658D01*
Y5180D01*
X42911D01*
Y5873D01*
Y6561D01*
X44970D01*
Y5873D01*
X46346D01*
Y6561D01*
X45658D01*
Y7233D01*
D02*
G37*
G36*
X40160D02*
X38784D01*
Y6561D01*
Y5873D01*
Y5180D01*
X38090D01*
Y5873D01*
X37402D01*
Y6561D01*
X36725D01*
Y7233D01*
X35349D01*
Y6561D01*
Y5873D01*
Y5180D01*
Y4492D01*
Y3804D01*
Y3116D01*
Y2428D01*
X36725D01*
Y3116D01*
Y3804D01*
Y4492D01*
Y5180D01*
X37402D01*
Y4492D01*
X38090D01*
Y3804D01*
X38784D01*
Y3116D01*
Y2428D01*
X40160D01*
Y3116D01*
Y3804D01*
Y4492D01*
Y5180D01*
Y5873D01*
Y6561D01*
Y7233D01*
D02*
G37*
G36*
X27787D02*
X26411D01*
Y6561D01*
Y5873D01*
Y5180D01*
X24353D01*
Y5873D01*
Y6561D01*
Y7233D01*
X22977D01*
Y6561D01*
Y5873D01*
Y5180D01*
Y4492D01*
Y3804D01*
Y3116D01*
Y2428D01*
X24353D01*
Y3116D01*
Y3804D01*
Y4492D01*
X26411D01*
Y3804D01*
Y3116D01*
Y2428D01*
X27787D01*
Y3116D01*
Y3804D01*
Y4492D01*
Y5180D01*
Y5873D01*
Y6561D01*
Y7233D01*
D02*
G37*
G36*
X33286D02*
X29851D01*
Y6561D01*
X29163D01*
Y5873D01*
Y5180D01*
Y4492D01*
Y3804D01*
Y3116D01*
Y2428D01*
X30539D01*
Y3116D01*
Y3804D01*
X32598D01*
Y3116D01*
Y2428D01*
X33974D01*
Y3116D01*
Y3804D01*
Y4492D01*
Y5180D01*
Y5873D01*
Y6561D01*
X33286D01*
Y7233D01*
D02*
G37*
%LPD*%
G36*
X32598Y5873D02*
Y5180D01*
Y4492D01*
X30539D01*
Y5180D01*
Y5873D01*
Y6561D01*
X32598D01*
Y5873D01*
D02*
G37*
%LPC*%
G36*
X704521Y-290454D02*
X696504D01*
Y-290740D01*
Y-291026D01*
Y-291313D01*
Y-291599D01*
Y-291885D01*
X696218D01*
Y-292171D01*
Y-292458D01*
Y-292744D01*
Y-293030D01*
Y-293317D01*
Y-293603D01*
X695931D01*
Y-293889D01*
Y-294176D01*
Y-294462D01*
Y-294748D01*
Y-295035D01*
Y-295321D01*
X695645D01*
Y-295607D01*
Y-295894D01*
Y-296180D01*
Y-296466D01*
Y-296752D01*
Y-297039D01*
X695359D01*
Y-297325D01*
Y-297611D01*
Y-297898D01*
Y-298184D01*
Y-298470D01*
Y-298757D01*
Y-299043D01*
X695073D01*
Y-299329D01*
Y-299616D01*
Y-299902D01*
Y-300188D01*
Y-300475D01*
Y-300761D01*
X694786D01*
Y-301047D01*
Y-301333D01*
Y-301620D01*
X701944D01*
Y-301333D01*
X703089D01*
Y-301047D01*
X703662D01*
Y-300761D01*
X703948D01*
Y-300475D01*
X704235D01*
Y-300188D01*
X704521D01*
Y-299902D01*
X704807D01*
Y-299616D01*
Y-299329D01*
X705093D01*
Y-299043D01*
Y-298757D01*
X705380D01*
Y-298470D01*
Y-298184D01*
X705666D01*
Y-297898D01*
Y-297611D01*
Y-297325D01*
Y-297039D01*
X705952D01*
Y-296752D01*
Y-296466D01*
Y-296180D01*
Y-295894D01*
Y-295607D01*
X706239D01*
Y-295321D01*
Y-295035D01*
Y-294748D01*
Y-294462D01*
Y-294176D01*
Y-293889D01*
Y-293603D01*
Y-293317D01*
Y-293030D01*
Y-292744D01*
Y-292458D01*
X705952D01*
Y-292171D01*
Y-291885D01*
X705666D01*
Y-291599D01*
Y-291313D01*
X705380D01*
Y-291026D01*
X705093D01*
Y-290740D01*
X704521D01*
Y-290454D01*
D02*
G37*
%LPD*%
D10*
X47382Y55905D02*
G03*
X47382Y55905I-492J0D01*
G01*
X13866Y46362D02*
G03*
X13866Y46362I-492J0D01*
G01*
X1019299Y-339807D02*
Y-331936D01*
X1023235D01*
X1024547Y-333248D01*
Y-335872D01*
X1023235Y-337183D01*
X1019299D01*
X1021923D02*
X1024547Y-339807D01*
X1031106D02*
X1028482D01*
X1027170Y-338495D01*
Y-335872D01*
X1028482Y-334560D01*
X1031106D01*
X1032418Y-335872D01*
Y-337183D01*
X1027170D01*
X1035042Y-334560D02*
X1037666Y-339807D01*
X1040289Y-334560D01*
X664968Y-371306D02*
Y-379177D01*
X668904D01*
X670216Y-377865D01*
Y-372618D01*
X668904Y-371306D01*
X664968D01*
X676775Y-379177D02*
X674152D01*
X672840Y-377865D01*
Y-375242D01*
X674152Y-373930D01*
X676775D01*
X678087Y-375242D01*
Y-376554D01*
X672840D01*
X680711Y-379177D02*
X684647D01*
X685959Y-377865D01*
X684647Y-376554D01*
X682023D01*
X680711Y-375242D01*
X682023Y-373930D01*
X685959D01*
X691207Y-381801D02*
X692518D01*
X693830Y-380489D01*
Y-373930D01*
X689894D01*
X688583Y-375242D01*
Y-377865D01*
X689894Y-379177D01*
X693830D01*
X696454D02*
X699078D01*
X697766D01*
Y-373930D01*
X696454D01*
X703014Y-379177D02*
Y-373930D01*
X706949D01*
X708261Y-375242D01*
Y-379177D01*
X714821D02*
X712197D01*
X710885Y-377865D01*
Y-375242D01*
X712197Y-373930D01*
X714821D01*
X716133Y-375242D01*
Y-376554D01*
X710885D01*
X718757Y-373930D02*
Y-379177D01*
Y-376554D01*
X720069Y-375242D01*
X721381Y-373930D01*
X722692D01*
X861819Y-253196D02*
Y-261067D01*
X865754D01*
X867066Y-259755D01*
Y-254507D01*
X865754Y-253196D01*
X861819D01*
X871002Y-261067D02*
X873626D01*
X874938Y-259755D01*
Y-257131D01*
X873626Y-255820D01*
X871002D01*
X869690Y-257131D01*
Y-259755D01*
X871002Y-261067D01*
X882809Y-255820D02*
X878874D01*
X877561Y-257131D01*
Y-259755D01*
X878874Y-261067D01*
X882809D01*
X885433Y-255820D02*
Y-259755D01*
X886745Y-261067D01*
X890681D01*
Y-255820D01*
X893305Y-261067D02*
Y-255820D01*
X894616D01*
X895928Y-257131D01*
Y-261067D01*
Y-257131D01*
X897240Y-255820D01*
X898552Y-257131D01*
Y-261067D01*
X905112D02*
X902488D01*
X901176Y-259755D01*
Y-257131D01*
X902488Y-255820D01*
X905112D01*
X906424Y-257131D01*
Y-258443D01*
X901176D01*
X909048Y-261067D02*
Y-255820D01*
X912983D01*
X914295Y-257131D01*
Y-261067D01*
X918231Y-254507D02*
Y-255820D01*
X916919D01*
X919543D01*
X918231D01*
Y-259755D01*
X919543Y-261067D01*
X861819Y-292566D02*
Y-300437D01*
X867066D01*
X871002Y-295189D02*
X873626D01*
X874938Y-296501D01*
Y-300437D01*
X871002D01*
X869690Y-299125D01*
X871002Y-297813D01*
X874938D01*
X877561Y-295189D02*
Y-299125D01*
X878874Y-300437D01*
X882809D01*
Y-301749D01*
X881497Y-303061D01*
X880185D01*
X882809Y-300437D02*
Y-295189D01*
X889369Y-300437D02*
X886745D01*
X885433Y-299125D01*
Y-296501D01*
X886745Y-295189D01*
X889369D01*
X890681Y-296501D01*
Y-297813D01*
X885433D01*
X893305Y-295189D02*
Y-300437D01*
Y-297813D01*
X894616Y-296501D01*
X895928Y-295189D01*
X897240D01*
X909048Y-300437D02*
Y-292566D01*
X914295Y-300437D01*
Y-292566D01*
X918231Y-295189D02*
X920855D01*
X922167Y-296501D01*
Y-300437D01*
X918231D01*
X916919Y-299125D01*
X918231Y-297813D01*
X922167D01*
X924790Y-300437D02*
Y-295189D01*
X926102D01*
X927414Y-296501D01*
Y-300437D01*
Y-296501D01*
X928726Y-295189D01*
X930038Y-296501D01*
Y-300437D01*
X936598D02*
X933974D01*
X932662Y-299125D01*
Y-296501D01*
X933974Y-295189D01*
X936598D01*
X937910Y-296501D01*
Y-297813D01*
X932662D01*
X861819Y-331936D02*
Y-339807D01*
X865754D01*
X867066Y-338495D01*
Y-333248D01*
X865754Y-331936D01*
X861819D01*
X871002Y-334560D02*
X873626D01*
X874938Y-335872D01*
Y-339807D01*
X871002D01*
X869690Y-338495D01*
X871002Y-337183D01*
X874938D01*
X878874Y-333248D02*
Y-334560D01*
X877561D01*
X880185D01*
X878874D01*
Y-338495D01*
X880185Y-339807D01*
X888057D02*
X885433D01*
X884121Y-338495D01*
Y-335872D01*
X885433Y-334560D01*
X888057D01*
X889369Y-335872D01*
Y-337183D01*
X884121D01*
X861819Y-371306D02*
Y-379177D01*
X865754D01*
X867066Y-377865D01*
Y-372618D01*
X865754Y-371306D01*
X861819D01*
X871002Y-379177D02*
X873626D01*
X874938Y-377865D01*
Y-375242D01*
X873626Y-373930D01*
X871002D01*
X869690Y-375242D01*
Y-377865D01*
X871002Y-379177D01*
X882809Y-373930D02*
X878874D01*
X877561Y-375242D01*
Y-377865D01*
X878874Y-379177D01*
X882809D01*
X885433Y-373930D02*
Y-377865D01*
X886745Y-379177D01*
X890681D01*
Y-373930D01*
X893305Y-379177D02*
Y-373930D01*
X894616D01*
X895928Y-375242D01*
Y-379177D01*
Y-375242D01*
X897240Y-373930D01*
X898552Y-375242D01*
Y-379177D01*
X905112D02*
X902488D01*
X901176Y-377865D01*
Y-375242D01*
X902488Y-373930D01*
X905112D01*
X906424Y-375242D01*
Y-376554D01*
X901176D01*
X909048Y-379177D02*
Y-373930D01*
X912983D01*
X914295Y-375242D01*
Y-379177D01*
X918231Y-372618D02*
Y-373930D01*
X916919D01*
X919543D01*
X918231D01*
Y-377865D01*
X919543Y-379177D01*
D11*
X22933Y53937D02*
Y57874D01*
X18799Y53937D02*
X22933D01*
Y73622D02*
Y77559D01*
X18799D02*
X22933D01*
X11713Y57874D02*
Y73622D01*
X34646Y62992D02*
X35433D01*
X34646Y60630D02*
X35433D01*
X55905Y61417D02*
Y62205D01*
X53543Y61417D02*
Y62205D01*
X31929Y37992D02*
Y39961D01*
Y37992D02*
X33898D01*
X46201Y37894D02*
X48169D01*
Y39862D01*
X48071Y52165D02*
Y54134D01*
X46102D02*
X48071D01*
X31929D02*
X33898D01*
X31929Y52165D02*
Y54134D01*
X32244Y34844D02*
X33031D01*
X32244Y32482D02*
X33031D01*
X57480Y61417D02*
Y62205D01*
X59842Y61417D02*
Y62205D01*
X12169Y26201D02*
X12169Y26988D01*
Y30925D02*
Y31713D01*
X19256Y26201D02*
Y26988D01*
Y30925D02*
Y31713D01*
X14532Y26201D02*
X14532Y31713D01*
X12169Y26201D02*
X19256D01*
X12169Y31713D02*
X19256D01*
X14138Y26201D02*
Y31713D01*
X13744D02*
X13744Y26201D01*
X50106Y67716D02*
X50894D01*
X50106Y70079D02*
X50894D01*
X33031Y68239D02*
Y68436D01*
X34902Y70306D02*
X35098D01*
X36968Y68239D02*
Y68436D01*
X34902Y66369D02*
X35098D01*
X48206Y63319D02*
X48994D01*
X48206Y65681D02*
X48994D01*
X13006Y46307D02*
X13794D01*
X13006Y48669D02*
X13794D01*
X21006Y48669D02*
X21794D01*
X21006Y46307D02*
X21794D01*
X11819Y11425D02*
Y12213D01*
X14181Y11425D02*
Y12213D01*
X58181Y11425D02*
Y12213D01*
X55819Y11425D02*
Y12213D01*
D12*
X17402Y-6466D02*
X52598D01*
X52598Y15187D02*
X52598Y7707D01*
X52598Y-6466D02*
Y-128D01*
X17402Y-6466D02*
X17402Y-128D01*
Y15187D02*
X17402Y7707D01*
X46957Y71276D02*
X54043D01*
X42232Y80331D02*
X58768D01*
X46563D02*
Y84268D01*
X54437D01*
Y80331D02*
Y84268D01*
X42232Y79150D02*
Y80331D01*
X58768Y79150D02*
Y80331D01*
X65000Y-0D02*
G03*
X70000Y5000I0J5000D01*
G01*
X70000Y75000D02*
G03*
X65000Y80000I-5000J0D01*
G01*
X5000Y80000D02*
G03*
X0Y75000I0J-5000D01*
G01*
X-0Y5000D02*
G03*
X5000Y0I5000J0D01*
G01*
X0Y5000D02*
Y75000D01*
X5000Y80000D02*
X65000D01*
X70000Y5000D02*
Y75000D01*
X5000Y0D02*
X65000D01*
D13*
X17213Y45378D02*
X18787D01*
X17213Y33173D02*
X18787D01*
X17213D02*
Y45378D01*
X18787Y33173D02*
Y45378D01*
X1015362Y-367366D02*
Y-327996D01*
X857882Y-288626D02*
X1133472D01*
X857882Y-327996D02*
X1133472D01*
X661031Y-367366D02*
X1133472D01*
X661031Y-249256D02*
X1133472D01*
X661031Y-406736D02*
Y-249256D01*
X857882Y-406736D02*
Y-249256D01*
X-520071Y762555D02*
X1133472D01*
Y-406736D02*
Y762555D01*
X-520071Y-406736D02*
Y762555D01*
Y-406736D02*
X1133472D01*
X867724Y-392959D02*
Y-398862D01*
X871660D01*
X873628D02*
Y-394927D01*
X875596Y-392959D01*
X877563Y-394927D01*
Y-398862D01*
Y-395911D01*
X873628D01*
X879531Y-398862D02*
Y-392959D01*
X883467Y-398862D01*
Y-392959D01*
X885435Y-398862D02*
Y-394927D01*
X887403Y-392959D01*
X889371Y-394927D01*
Y-398862D01*
Y-395911D01*
X885435D01*
X891339Y-399846D02*
X895274D01*
X897242Y-392959D02*
X901178D01*
X899210D01*
Y-398862D01*
X903146D02*
Y-392959D01*
X907081Y-398862D01*
Y-392959D01*
X909049D02*
Y-393943D01*
X911017Y-395911D01*
X912985Y-393943D01*
Y-392959D01*
X911017Y-395911D02*
Y-398862D01*
X914953Y-399846D02*
X918889D01*
X920856Y-393943D02*
X921840Y-392959D01*
X923808D01*
X924792Y-393943D01*
Y-397878D01*
X923808Y-398862D01*
X921840D01*
X920856Y-397878D01*
Y-393943D01*
X926760D02*
X927744Y-392959D01*
X929712D01*
X930696Y-393943D01*
Y-397878D01*
X929712Y-398862D01*
X927744D01*
X926760Y-397878D01*
Y-393943D01*
X932664Y-398862D02*
Y-397878D01*
X933648D01*
Y-398862D01*
X932664D01*
X937583D02*
Y-392959D01*
X940535D01*
X941519Y-393943D01*
Y-395911D01*
X940535Y-396895D01*
X937583D01*
X947423Y-394927D02*
X944471D01*
X943487Y-395911D01*
Y-397878D01*
X944471Y-398862D01*
X947423D01*
X949391Y-392959D02*
Y-398862D01*
X952342D01*
X953326Y-397878D01*
Y-396895D01*
Y-395911D01*
X952342Y-394927D01*
X949391D01*
X955294Y-392959D02*
Y-398862D01*
X958246D01*
X959230Y-397878D01*
Y-393943D01*
X958246Y-392959D01*
X955294D01*
X962182Y-398862D02*
X964150D01*
X965133Y-397878D01*
Y-395911D01*
X964150Y-394927D01*
X962182D01*
X961198Y-395911D01*
Y-397878D01*
X962182Y-398862D01*
X971037Y-394927D02*
X968085D01*
X967101Y-395911D01*
Y-397878D01*
X968085Y-398862D01*
X971037D01*
D14*
X38582Y72378D02*
Y69622D01*
X39959D01*
X40418Y70082D01*
Y70541D01*
X39959Y71000D01*
X38582D01*
X39959D01*
X40418Y71459D01*
Y71918D01*
X39959Y72378D01*
X38582D01*
X64035Y23622D02*
Y25459D01*
X64954Y26377D01*
X65872Y25459D01*
Y23622D01*
Y25000D01*
X64035D01*
X66790Y23622D02*
X67709D01*
X67250D01*
Y26377D01*
X66790Y25918D01*
X62199Y55918D02*
X61739Y56378D01*
X60821D01*
X60362Y55918D01*
Y55459D01*
X60821Y55000D01*
X61739D01*
X62199Y54541D01*
Y54082D01*
X61739Y53623D01*
X60821D01*
X60362Y54082D01*
X63117Y56378D02*
Y53623D01*
X64495D01*
X64954Y54082D01*
Y55918D01*
X64495Y56378D01*
X63117D01*
X65872Y53623D02*
Y55459D01*
X66790Y56378D01*
X67709Y55459D01*
Y53623D01*
Y55000D01*
X65872D01*
X63117Y33623D02*
Y35459D01*
X64035Y36378D01*
X64954Y35459D01*
Y33623D01*
Y35000D01*
X63117D01*
X67709Y33623D02*
X65872D01*
X67709Y35459D01*
Y35918D01*
X67250Y36378D01*
X66331D01*
X65872Y35918D01*
X63117Y76377D02*
X64954D01*
X64035D01*
Y73623D01*
X65872Y75459D02*
X67709Y73623D01*
X66790Y74541D01*
X67709Y75459D01*
X65872Y73623D01*
X62199Y65918D02*
X61739Y66378D01*
X60821D01*
X60362Y65918D01*
Y65459D01*
X60821Y65000D01*
X61739D01*
X62199Y64541D01*
Y64082D01*
X61739Y63622D01*
X60821D01*
X60362Y64082D01*
X64954Y65918D02*
X64495Y66378D01*
X63576D01*
X63117Y65918D01*
Y64082D01*
X63576Y63622D01*
X64495D01*
X64954Y64082D01*
X65872Y66378D02*
Y63622D01*
X67709D01*
X2291Y53623D02*
Y56378D01*
X3210Y55459D01*
X4128Y56378D01*
Y53623D01*
X5046Y56378D02*
X5965D01*
X5505D01*
Y53623D01*
X5046D01*
X5965D01*
X4128Y65918D02*
X3669Y66378D01*
X2750D01*
X2291Y65918D01*
Y65459D01*
X2750Y65000D01*
X3669D01*
X4128Y64541D01*
Y64082D01*
X3669Y63622D01*
X2750D01*
X2291Y64082D01*
X6883Y65918D02*
X6424Y66378D01*
X5505D01*
X5046Y65918D01*
Y64082D01*
X5505Y63622D01*
X6424D01*
X6883Y64082D01*
X7801Y66378D02*
Y63622D01*
Y64541D01*
X9638Y66378D01*
X8261Y65000D01*
X9638Y63622D01*
X4128Y25918D02*
X3669Y26377D01*
X2750D01*
X2291Y25918D01*
Y24082D01*
X2750Y23622D01*
X3669D01*
X4128Y24082D01*
Y25000D01*
X3210D01*
X5046Y23622D02*
Y26377D01*
X6883Y23622D01*
Y26377D01*
X7801D02*
Y23622D01*
X9179D01*
X9638Y24082D01*
Y25918D01*
X9179Y26377D01*
X7801D01*
X2291Y35918D02*
X2750Y36378D01*
X3669D01*
X4128Y35918D01*
Y35459D01*
X3669Y35000D01*
X3210D01*
X3669D01*
X4128Y34541D01*
Y34082D01*
X3669Y33623D01*
X2750D01*
X2291Y34082D01*
X5046Y36378D02*
Y34541D01*
X5965Y33623D01*
X6883Y34541D01*
Y36378D01*
X7801Y35918D02*
X8261Y36378D01*
X9179D01*
X9638Y35918D01*
Y35459D01*
X9179Y35000D01*
X8720D01*
X9179D01*
X9638Y34541D01*
Y34082D01*
X9179Y33623D01*
X8261D01*
X7801Y34082D01*
X2291Y43622D02*
Y46378D01*
X3210Y45459D01*
X4128Y46378D01*
Y43622D01*
X6424Y46378D02*
X5505D01*
X5046Y45918D01*
Y44082D01*
X5505Y43622D01*
X6424D01*
X6883Y44082D01*
Y45918D01*
X6424Y46378D01*
X4128Y16377D02*
X2291D01*
Y15000D01*
X3210Y15459D01*
X3669D01*
X4128Y15000D01*
Y14082D01*
X3669Y13623D01*
X2750D01*
X2291Y14082D01*
X5046Y16377D02*
Y14541D01*
X5965Y13623D01*
X6883Y14541D01*
Y16377D01*
X2291Y73623D02*
Y76377D01*
X3669D01*
X4128Y75918D01*
Y75000D01*
X3669Y74541D01*
X2291D01*
X3210D02*
X4128Y73623D01*
X5046Y75459D02*
X6883Y73623D01*
X5965Y74541D01*
X6883Y75459D01*
X5046Y73623D01*
X63117Y13623D02*
Y15459D01*
X64035Y16377D01*
X64954Y15459D01*
Y13623D01*
Y15000D01*
X63117D01*
X65872Y15918D02*
X66331Y16377D01*
X67250D01*
X67709Y15918D01*
Y14082D01*
X67250Y13623D01*
X66331D01*
X65872Y14082D01*
Y15918D01*
X63117Y43622D02*
Y45459D01*
X64035Y46378D01*
X64954Y45459D01*
Y43622D01*
Y45000D01*
X63117D01*
X65872Y45918D02*
X66331Y46378D01*
X67250D01*
X67709Y45918D01*
Y45459D01*
X67250Y45000D01*
X66790D01*
X67250D01*
X67709Y44541D01*
Y44082D01*
X67250Y43622D01*
X66331D01*
X65872Y44082D01*
X53163Y45918D02*
X52704Y46378D01*
X51786D01*
X51327Y45918D01*
Y45459D01*
X51786Y45000D01*
X52704D01*
X53163Y44541D01*
Y44082D01*
X52704Y43622D01*
X51786D01*
X51327Y44082D01*
X54082Y46378D02*
Y43622D01*
X55000Y44541D01*
X55918Y43622D01*
Y46378D01*
X58673Y45918D02*
X58214Y46378D01*
X57296D01*
X56837Y45918D01*
Y44082D01*
X57296Y43622D01*
X58214D01*
X58673Y44082D01*
X53163Y35918D02*
X52704Y36378D01*
X51786D01*
X51327Y35918D01*
Y35459D01*
X51786Y35000D01*
X52704D01*
X53163Y34541D01*
Y34082D01*
X52704Y33623D01*
X51786D01*
X51327Y34082D01*
X54082Y36378D02*
Y33623D01*
X55000Y34541D01*
X55918Y33623D01*
Y36378D01*
X56837D02*
Y33623D01*
X58214D01*
X58673Y34082D01*
Y35918D01*
X58214Y36378D01*
X56837D01*
D15*
X33819Y68042D02*
D03*
D16*
X873628Y-322091D02*
X867724Y-316187D01*
X873628Y-310283D01*
X879531Y-322091D02*
Y-310283D01*
X885435D01*
X887403Y-312251D01*
Y-316187D01*
X885435Y-318155D01*
X879531D01*
X891339Y-322091D02*
Y-314219D01*
X895274Y-310283D01*
X899210Y-314219D01*
Y-322091D01*
Y-316187D01*
X891339D01*
X903146Y-322091D02*
Y-310283D01*
X911017Y-322091D01*
Y-310283D01*
X922824D02*
X914953D01*
Y-322091D01*
X922824D01*
X914953Y-316187D02*
X918889D01*
X926760Y-310283D02*
Y-322091D01*
X934632D01*
X938567D02*
X944471Y-316187D01*
X938567Y-310283D01*
X682685Y-385088D02*
Y-400831D01*
X687932Y-395583D01*
X693180Y-400831D01*
Y-385088D01*
X698428Y-400831D02*
X703675D01*
X701052D01*
Y-390336D01*
X698428D01*
X711547Y-400831D02*
Y-390336D01*
X714171D01*
X716794Y-392959D01*
Y-400831D01*
Y-392959D01*
X719418Y-390336D01*
X722042Y-392959D01*
Y-400831D01*
X727290Y-385088D02*
Y-395583D01*
X732537Y-400831D01*
X737785Y-395583D01*
Y-385088D01*
X753528Y-387712D02*
X750904Y-385088D01*
X745656D01*
X743033Y-387712D01*
Y-398207D01*
X745656Y-400831D01*
X750904D01*
X753528Y-398207D01*
Y-392959D01*
X748280D01*
X1037015Y-348342D02*
X1039639Y-345718D01*
X1044887D01*
X1047511Y-348342D01*
Y-358837D01*
X1044887Y-361461D01*
X1039639D01*
X1037015Y-358837D01*
Y-348342D01*
X1052758D02*
X1055382Y-345718D01*
X1060630D01*
X1063254Y-348342D01*
Y-358837D01*
X1060630Y-361461D01*
X1055382D01*
X1052758Y-358837D01*
Y-348342D01*
X873630Y-349982D02*
X875925Y-347686D01*
X880517D01*
X882813Y-349982D01*
Y-352277D01*
X880517Y-354573D01*
X878221D01*
X880517D01*
X882813Y-356869D01*
Y-359165D01*
X880517Y-361461D01*
X875925D01*
X873630Y-359165D01*
X887405Y-361461D02*
X891996D01*
X889701D01*
Y-347686D01*
X887405Y-349982D01*
X898884Y-361461D02*
X908067Y-352277D01*
X912659Y-349982D02*
X914955Y-347686D01*
X919547D01*
X921842Y-349982D01*
Y-359165D01*
X919547Y-361461D01*
X914955D01*
X912659Y-359165D01*
Y-349982D01*
X926434D02*
X928730Y-347686D01*
X933322D01*
X935617Y-349982D01*
Y-352277D01*
X933322Y-354573D01*
X935617Y-356869D01*
Y-359165D01*
X933322Y-361461D01*
X928730D01*
X926434Y-359165D01*
Y-356869D01*
X928730Y-354573D01*
X926434Y-352277D01*
Y-349982D01*
X928730Y-354573D02*
X933322D01*
X940209Y-361461D02*
X949393Y-352277D01*
X963168Y-361461D02*
X953984D01*
X963168Y-352277D01*
Y-349982D01*
X960872Y-347686D01*
X956280D01*
X953984Y-349982D01*
X967759D02*
X970055Y-347686D01*
X974647D01*
X976943Y-349982D01*
Y-359165D01*
X974647Y-361461D01*
X970055D01*
X967759Y-359165D01*
Y-349982D01*
X990718Y-361461D02*
X981534D01*
X990718Y-352277D01*
Y-349982D01*
X988422Y-347686D01*
X983830D01*
X981534Y-349982D01*
X995310D02*
X997605Y-347686D01*
X1002197D01*
X1004493Y-349982D01*
Y-352277D01*
X1002197Y-354573D01*
X999901D01*
X1002197D01*
X1004493Y-356869D01*
Y-359165D01*
X1002197Y-361461D01*
X997605D01*
X995310Y-359165D01*
X867724Y-270913D02*
Y-282721D01*
X875596D01*
X881499Y-274849D02*
X885435D01*
X887403Y-276817D01*
Y-282721D01*
X881499D01*
X879531Y-280753D01*
X881499Y-278785D01*
X887403D01*
X891339Y-282721D02*
Y-274849D01*
X897242D01*
X899210Y-276817D01*
Y-282721D01*
X905114Y-274849D02*
X909049D01*
X911017Y-276817D01*
Y-282721D01*
X905114D01*
X903146Y-280753D01*
X905114Y-278785D01*
X911017D01*
X926760Y-270913D02*
X934632D01*
X930696D01*
Y-282721D01*
X938567D02*
Y-274849D01*
X944471D01*
X946439Y-276817D01*
Y-282721D01*
X950375Y-274849D02*
Y-280753D01*
X952342Y-282721D01*
X958246D01*
Y-284688D01*
X956278Y-286656D01*
X954310D01*
X958246Y-282721D02*
Y-274849D01*
M02*
